<?xml version="1.0" encoding="utf-8"?>
<svg version="1.1" xmlns:xlink="http://www.w3.org/1999/xlink" width="94px" height="94px" xmlns="http://www.w3.org/2000/svg">
  <g transform="matrix(1 0 0 1 0 -12 )">
    <path d="M 47 12  C 73.32 12  94 32.68  94 59  C 94 85.32  73.32 106  47 106  C 20.68 106  0 85.32  0 59  C 0 32.68  20.68 12  47 12  Z " fill-rule="nonzero" fill="#ffffff" stroke="none" />
    <path d="M 47 12.5  C 73.04 12.5  93.5 32.96  93.5 59  C 93.5 85.04  73.04 105.5  47 105.5  C 20.96 105.5  0.5 85.04  0.5 59  C 0.5 32.96  20.96 12.5  47 12.5  Z " stroke-width="1" stroke="#797979" fill="none" />
  </g>
</svg>