<?xml version="1.0" encoding="utf-8"?>
<svg version="1.1" xmlns:xlink="http://www.w3.org/1999/xlink" width="12px" height="12px" viewBox="99 189.5  12 12" xmlns="http://www.w3.org/2000/svg">
  <path d="M 105 189.5  C 108.36 189.5  111 192.14  111 195.5  C 111 198.86  108.36 201.5  105 201.5  C 101.64 201.5  99 198.86  99 195.5  C 99 192.14  101.64 189.5  105 189.5  Z " fill-rule="nonzero" fill="#ffffff" stroke="none" />
  <path d="M 105 190  C 108.08 190  110.5 192.42  110.5 195.5  C 110.5 198.58  108.08 201  105 201  C 101.92 201  99.5 198.58  99.5 195.5  C 99.5 192.42  101.92 190  105 190  Z " stroke-width="1" stroke="#797979" fill="none" />
  <path d="M 105 198.5  C 103.32 198.5  102 197.18  102 195.5  C 102 193.82  103.32 192.5  105 192.5  C 106.68 192.5  108 193.82  108 195.5  C 108 197.18  106.68 198.5  105 198.5  " fill-rule="nonzero" fill="#797979" stroke="none" />
</svg>