<?xml version="1.0" encoding="utf-8"?>
<svg version="1.1" xmlns:xlink="http://www.w3.org/1999/xlink" width="12px" height="12px" viewBox="266 81.5  12 12" xmlns="http://www.w3.org/2000/svg">
  <path d="M 272 81.5  C 275.36 81.5  278 84.14  278 87.5  C 278 90.86  275.36 93.5  272 93.5  C 268.64 93.5  266 90.86  266 87.5  C 266 84.14  268.64 81.5  272 81.5  Z " fill-rule="nonzero" fill="#ffffff" stroke="none" />
  <path d="M 272 82  C 275.08 82  277.5 84.42  277.5 87.5  C 277.5 90.58  275.08 93  272 93  C 268.92 93  266.5 90.58  266.5 87.5  C 266.5 84.42  268.92 82  272 82  Z " stroke-width="1" stroke="#797979" fill="none" />
  <path d="M 272 90.5  C 270.32 90.5  269 89.18  269 87.5  C 269 85.82  270.32 84.5  272 84.5  C 273.68 84.5  275 85.82  275 87.5  C 275 89.18  273.68 90.5  272 90.5  " fill-rule="nonzero" fill="#797979" stroke="none" />
</svg>