<?xml version="1.0" encoding="utf-8"?>
<svg version="1.1" xmlns:xlink="http://www.w3.org/1999/xlink" width="29px" height="20px" xmlns="http://www.w3.org/2000/svg">
  <g transform="matrix(1 0 0 1 -69 -64 )">
    <path d="M 28.1422991071429 9.0375  C 28.714099702381 10.1541666666667  29 11.5416666666667  29 13.2  C 29 14.5833333333333  28.3149181547619 16.4625  26.9447544642857 18.8375  C 26.9123883928571 18.8958333333333  26.8557477678571 18.9958333333333  26.7748325892857 19.1375  C 26.6939174107143 19.2791666666667  26.62109375 19.4041666666667  26.5563616071429 19.5125  C 26.4916294642857 19.6208333333333  26.4215029761905 19.7125  26.3459821428571 19.7875  C 26.2165178571429 19.9291666666667  26.0654761904762 20  25.8928571428571 20  C 25.7310267857143 20  25.6042596726191 19.9583333333333  25.5125558035714 19.875  C 25.4208519345238 19.7916666666667  25.375 19.6875  25.375 19.5625  C 25.375 19.4875  25.3884858630952 19.3770833333333  25.4154575892857 19.23125  C 25.4424293154762 19.0854166666667  25.4559151785714 18.9875  25.4559151785714 18.9375  C 25.5098586309524 18.3708333333333  25.5368303571429 17.8583333333333  25.5368303571429 17.4  C 25.5368303571429 16.5583333333333  25.4424293154762 15.8041666666667  25.2536272321429 15.1375  C 25.0648251488095 14.4708333333333  24.8031994047619 13.89375  24.46875 13.40625  C 24.1343005952381 12.91875  23.7027529761905 12.4979166666667  23.1741071428571 12.14375  C 22.6454613095238 11.7895833333333  22.0763578869048 11.5  21.466796875 11.275  C 20.8572358630952 11.05  20.1397879464286 10.8729166666667  19.314453125 10.74375  C 18.4891183035714 10.6145833333333  17.6583891369048 10.525  16.822265625 10.475  C 15.9861421130952 10.425  15.0394345238095 10.4  13.9821428571429 10.4  L 10.3571428571429 10.4  L 10.3571428571429 13.6  C 10.3571428571429 13.8166666666667  10.254650297619 14.0041666666667  10.0496651785714 14.1625  C 9.84468005952381 14.3208333333333  9.60193452380953 14.4  9.32142857142857 14.4  C 9.04092261904762 14.4  8.79817708333333 14.3208333333333  8.59319196428572 14.1625  L 0.307477678571429 7.7625  C 0.10249255952381 7.60416666666667  0 7.41666666666666  0 7.2  C 0 6.98333333333333  0.10249255952381 6.79583333333333  0.307477678571429 6.6375  L 8.59319196428572 0.237499999999999  C 8.79817708333333 0.0791666666666657  9.04092261904762 0  9.32142857142857 0  C 9.60193452380953 0  9.84468005952381 0.0791666666666657  10.0496651785714 0.237499999999999  C 10.254650297619 0.395833333333331  10.3571428571429 0.583333333333331  10.3571428571429 0.800000000000001  L 10.3571428571429 4  L 13.9821428571429 4  C 21.6744791666667 4  26.39453125 5.67916666666667  28.1422991071429 9.0375  Z " fill-rule="nonzero" fill="#000000" stroke="none" transform="matrix(1 0 0 1 69 64 )" />
  </g>
</svg>