<?xml version="1.0" encoding="utf-8"?>
<svg version="1.1" xmlns:xlink="http://www.w3.org/1999/xlink" width="12px" height="12px" viewBox="945 162.5  12 12" xmlns="http://www.w3.org/2000/svg">
  <path d="M 951 162.5  C 954.36 162.5  957 165.14  957 168.5  C 957 171.86  954.36 174.5  951 174.5  C 947.64 174.5  945 171.86  945 168.5  C 945 165.14  947.64 162.5  951 162.5  Z " fill-rule="nonzero" fill="#ffffff" stroke="none" />
  <path d="M 951 163  C 954.08 163  956.5 165.42  956.5 168.5  C 956.5 171.58  954.08 174  951 174  C 947.92 174  945.5 171.58  945.5 168.5  C 945.5 165.42  947.92 163  951 163  Z " stroke-width="1" stroke="#797979" fill="none" />
  <path d="M 951 171.5  C 949.32 171.5  948 170.18  948 168.5  C 948 166.82  949.32 165.5  951 165.5  C 952.68 165.5  954 166.82  954 168.5  C 954 170.18  952.68 171.5  951 171.5  " fill-rule="nonzero" fill="#797979" stroke="none" />
</svg>