<?xml version="1.0" encoding="utf-8"?>
<svg version="1.1" xmlns:xlink="http://www.w3.org/1999/xlink" width="12px" height="12px" viewBox="216 16.5  12 12" xmlns="http://www.w3.org/2000/svg">
  <path d="M 222 16.5  C 225.36 16.5  228 19.14  228 22.5  C 228 25.86  225.36 28.5  222 28.5  C 218.64 28.5  216 25.86  216 22.5  C 216 19.14  218.64 16.5  222 16.5  Z " fill-rule="nonzero" fill="#ffffff" stroke="none" />
  <path d="M 222 17  C 225.08 17  227.5 19.42  227.5 22.5  C 227.5 25.58  225.08 28  222 28  C 218.92 28  216.5 25.58  216.5 22.5  C 216.5 19.42  218.92 17  222 17  Z " stroke-width="1" stroke="#797979" fill="none" />
  <path d="M 222 25.5  C 220.32 25.5  219 24.18  219 22.5  C 219 20.82  220.32 19.5  222 19.5  C 223.68 19.5  225 20.82  225 22.5  C 225 24.18  223.68 25.5  222 25.5  " fill-rule="nonzero" fill="#797979" stroke="none" />
</svg>