<?xml version="1.0" encoding="utf-8"?>
<svg version="1.1" xmlns:xlink="http://www.w3.org/1999/xlink" width="104px" height="104px" xmlns="http://www.w3.org/2000/svg">
  <g transform="matrix(1 0 0 1 -547 -108 )">
    <path d="M 547 108  L 651 108  L 651 212  L 547 212  L 547 108  " fill-rule="nonzero" fill="#cccccc" stroke="none" />
    <path d="M 554 115  L 644 115  L 644 205  L 554 205  L 554 115  " fill-rule="nonzero" fill="#ffffff" stroke="none" />
    <path d="M 608.88 139.2  C 604.512 139.2  601.08 135.768  601.08 131.4  C 601.08 127.032  604.512 123.6  608.88 123.6  C 613.248 123.6  616.68 127.032  616.68 131.4  C 616.68 135.768  613.248 139.2  608.88 139.2  " fill-rule="nonzero" fill="#cccccc" stroke="none" />
    <path d="M 557 203  L 557 156.25  L 578.25 135  L 608 152  L 625 147.75  L 642 152  L 642 203  L 557 203  " fill-rule="nonzero" fill="#169bd5" stroke="none" />
  </g>
</svg>