<?xml version="1.0" encoding="utf-8"?>
<svg version="1.1" xmlns:xlink="http://www.w3.org/1999/xlink" width="29px" height="26px" xmlns="http://www.w3.org/2000/svg">
  <g transform="matrix(1 0 0 1 -69 -64 )">
    <path d="M 28.1422991071429 11.74875  C 28.714099702381 13.2004166666667  29 15.0041666666667  29 17.16  C 29 18.9583333333333  28.3149181547619 21.40125  26.9447544642857 24.48875  C 26.9123883928571 24.5645833333333  26.8557477678571 24.6945833333333  26.7748325892857 24.87875  C 26.6939174107143 25.0629166666667  26.62109375 25.2254166666667  26.5563616071429 25.36625  C 26.4916294642857 25.5070833333333  26.4215029761905 25.62625  26.3459821428571 25.72375  C 26.2165178571429 25.9079166666667  26.0654761904762 26  25.8928571428571 26  C 25.7310267857143 26  25.6042596726191 25.9458333333333  25.5125558035714 25.8375  C 25.4208519345238 25.7291666666667  25.375 25.59375  25.375 25.43125  C 25.375 25.33375  25.3884858630952 25.1902083333333  25.4154575892857 25.000625  C 25.4424293154762 24.8110416666667  25.4559151785714 24.68375  25.4559151785714 24.61875  C 25.5098586309524 23.8820833333333  25.5368303571429 23.2158333333333  25.5368303571429 22.62  C 25.5368303571429 21.5258333333333  25.4424293154762 20.5454166666667  25.2536272321429 19.67875  C 25.0648251488095 18.8120833333333  24.8031994047619 18.061875  24.46875 17.428125  C 24.1343005952381 16.794375  23.7027529761905 16.2472916666667  23.1741071428571 15.786875  C 22.6454613095238 15.3264583333333  22.0763578869048 14.95  21.466796875 14.6575  C 20.8572358630952 14.365  20.1397879464286 14.1347916666667  19.314453125 13.966875  C 18.4891183035714 13.7989583333333  17.6583891369048 13.6825  16.822265625 13.6175  C 15.9861421130952 13.5525  15.0394345238095 13.52  13.9821428571429 13.52  L 10.3571428571429 13.52  L 10.3571428571429 17.68  C 10.3571428571429 17.9616666666667  10.254650297619 18.2054166666667  10.0496651785714 18.41125  C 9.84468005952381 18.6170833333333  9.60193452380953 18.72  9.32142857142857 18.72  C 9.04092261904762 18.72  8.79817708333333 18.6170833333333  8.59319196428572 18.41125  L 0.307477678571429 10.09125  C 0.10249255952381 9.88541666666666  0 9.64166666666666  0 9.36  C 0 9.07833333333333  0.10249255952381 8.83458333333333  0.307477678571429 8.62875  L 8.59319196428572 0.308749999999999  C 8.79817708333333 0.102916666666665  9.04092261904762 0  9.32142857142857 0  C 9.60193452380953 0  9.84468005952381 0.102916666666665  10.0496651785714 0.308749999999999  C 10.254650297619 0.51458333333333  10.3571428571429 0.758333333333331  10.3571428571429 1.04  L 10.3571428571429 5.2  L 13.9821428571429 5.2  C 21.6744791666667 5.2  26.39453125 7.38291666666667  28.1422991071429 11.74875  Z " fill-rule="nonzero" fill="#000000" stroke="none" transform="matrix(1 0 0 1 69 64 )" />
  </g>
</svg>