<?xml version="1.0" encoding="utf-8"?>
<svg version="1.1" xmlns:xlink="http://www.w3.org/1999/xlink" width="16px" height="26px" xmlns="http://www.w3.org/2000/svg">
  <g transform="matrix(1 0 0 1 -868 -200 )">
    <path d="M 15.6041666666667 0.40625  C 15.8680555555556 0.677083333333329  16 0.997807017543856  16 1.36842105263158  L 16 24.6315789473684  C 16 25.0021929824561  15.8680555555556 25.3229166666667  15.6041666666667 25.59375  C 15.3402777777778 25.8645833333333  15.0277777777778 26  14.6666666666667 26  C 14.3055555555556 26  13.9930555555556 25.8645833333333  13.7291666666667 25.59375  L 6.79166666666667 18.4736842105263  L 1.33333333333333 18.4736842105263  C 0.972222222222222 18.4736842105263  0.659722222222222 18.3382675438597  0.395833333333333 18.0674342105263  C 0.131944444444444 17.796600877193  0 17.4758771929825  0 17.1052631578947  L 0 8.89473684210526  C 0 8.52412280701754  0.131944444444444 8.20339912280701  0.395833333333333 7.93256578947369  C 0.659722222222222 7.66173245614035  0.972222222222222 7.52631578947369  1.33333333333333 7.52631578947369  L 6.79166666666667 7.52631578947369  L 13.7291666666667 0.40625  C 13.9930555555556 0.135416666666665  14.3055555555556 0  14.6666666666667 0  C 15.0277777777778 0  15.3402777777778 0.135416666666665  15.6041666666667 0.40625  Z " fill-rule="nonzero" fill="#000000" stroke="none" transform="matrix(1 0 0 1 868 200 )" />
  </g>
</svg>