<?xml version="1.0" encoding="utf-8"?>
<svg version="1.1" xmlns:xlink="http://www.w3.org/1999/xlink" width="24px" height="26px" xmlns="http://www.w3.org/2000/svg">
  <g transform="matrix(1 0 0 1 -860 -139 )">
    <path d="M 23.5625 0.437500000000001  C 23.8541666666667 0.729166666666664  24 1.08333333333333  24 1.5  L 24 19  C 24 19.5208333333333  23.8229166666667 19.984375  23.46875 20.390625  C 23.1145833333333 20.796875  22.6666666666667 21.1119791666667  22.125 21.3359375  C 21.5833333333333 21.5598958333333  21.0442708333333 21.7265625  20.5078125 21.8359375  C 19.9713541666667 21.9453125  19.46875 22  19 22  C 18.53125 22  18.0286458333333 21.9453125  17.4921875 21.8359375  C 16.9557291666667 21.7265625  16.4166666666667 21.5598958333333  15.875 21.3359375  C 15.3333333333333 21.1119791666667  14.8854166666667 20.796875  14.53125 20.390625  C 14.1770833333333 19.984375  14 19.5208333333333  14 19  C 14 18.4791666666667  14.1770833333333 18.015625  14.53125 17.609375  C 14.8854166666667 17.203125  15.3333333333333 16.8880208333333  15.875 16.6640625  C 16.4166666666667 16.4401041666667  16.9557291666667 16.2734375  17.4921875 16.1640625  C 18.0286458333333 16.0546875  18.53125 16  19 16  C 20.09375 16  21.09375 16.203125  22 16.609375  L 22 8.21875  L 10 11.921875  L 10 23  C 10 23.5208333333333  9.82291666666667 23.984375  9.46875 24.390625  C 9.11458333333333 24.796875  8.66666666666667 25.1119791666667  8.125 25.3359375  C 7.58333333333333 25.5598958333333  7.04427083333333 25.7265625  6.5078125 25.8359375  C 5.97135416666667 25.9453125  5.46875 26  5 26  C 4.53125 26  4.02864583333333 25.9453125  3.4921875 25.8359375  C 2.95572916666667 25.7265625  2.41666666666667 25.5598958333333  1.875 25.3359375  C 1.33333333333333 25.1119791666667  0.885416666666667 24.796875  0.53125 24.390625  C 0.177083333333333 23.984375  0 23.5208333333333  0 23  C 0 22.4791666666667  0.177083333333333 22.015625  0.53125 21.609375  C 0.885416666666667 21.203125  1.33333333333333 20.8880208333333  1.875 20.6640625  C 2.41666666666667 20.4401041666667  2.95572916666667 20.2734375  3.4921875 20.1640625  C 4.02864583333333 20.0546875  4.53125 20  5 20  C 6.09375 20  7.09375 20.203125  8 20.609375  L 8 5.5  C 8 5.17708333333333  8.09895833333333 4.8828125  8.296875 4.6171875  C 8.49479166666667 4.3515625  8.75 4.16666666666666  9.0625 4.0625  L 22.0625 0.0624999999999998  C 22.1875 0.0208333333333333  22.3333333333333 0  22.5 0  C 22.9166666666667 0  23.2708333333333 0.145833333333333  23.5625 0.437500000000001  Z " fill-rule="nonzero" fill="#000000" stroke="none" transform="matrix(1 0 0 1 860 139 )" />
  </g>
</svg>