<?xml version="1.0" encoding="utf-8"?>
<svg version="1.1" xmlns:xlink="http://www.w3.org/1999/xlink" width="17px" height="26px" xmlns="http://www.w3.org/2000/svg">
  <g>
    <path d="M 16.5794270833333 0.40625  C 16.8598090277778 0.677083333333329  17 0.997807017543856  17 1.36842105263158  L 17 24.6315789473684  C 17 25.0021929824561  16.8598090277778 25.3229166666667  16.5794270833333 25.59375  C 16.2990451388889 25.8645833333333  15.9670138888889 26  15.5833333333333 26  C 15.1996527777778 26  14.8676215277778 25.8645833333333  14.5872395833333 25.59375  L 7.21614583333333 18.4736842105263  L 1.41666666666667 18.4736842105263  C 1.03298611111111 18.4736842105263  0.700954861111111 18.3382675438597  0.420572916666667 18.0674342105263  C 0.140190972222222 17.796600877193  0 17.4758771929825  0 17.1052631578947  L 0 8.89473684210526  C 0 8.52412280701754  0.140190972222222 8.20339912280701  0.420572916666667 7.93256578947369  C 0.700954861111111 7.66173245614035  1.03298611111111 7.52631578947369  1.41666666666667 7.52631578947369  L 7.21614583333333 7.52631578947369  L 14.5872395833333 0.40625  C 14.8676215277778 0.135416666666665  15.1996527777778 0  15.5833333333333 0  C 15.9670138888889 0  16.2990451388889 0.135416666666665  16.5794270833333 0.40625  Z " fill-rule="nonzero" fill="#000000" stroke="none" />
  </g>
</svg>