<?xml version="1.0" encoding="utf-8"?>
<svg version="1.1" xmlns:xlink="http://www.w3.org/1999/xlink" width="21px" height="21px" xmlns="http://www.w3.org/2000/svg">
  <g transform="matrix(1 0 0 1 -376 -181 )">
    <path d="M 386.5 181  C 392.38 181  397 185.62  397 191.5  C 397 197.38  392.38 202  386.5 202  C 380.62 202  376 197.38  376 191.5  C 376 185.62  380.62 181  386.5 181  Z " fill-rule="nonzero" fill="#ffffff" stroke="none" />
    <path d="M 386.5 181.5  C 392.1 181.5  396.5 185.9  396.5 191.5  C 396.5 197.1  392.1 201.5  386.5 201.5  C 380.9 201.5  376.5 197.1  376.5 191.5  C 376.5 185.9  380.9 181.5  386.5 181.5  Z " stroke-width="1" stroke="#797979" fill="none" />
  </g>
</svg>