<?xml version="1.0" encoding="utf-8"?>
<svg version="1.1" xmlns:xlink="http://www.w3.org/1999/xlink" width="26px" height="26px" xmlns="http://www.w3.org/2000/svg">
  <g transform="matrix(1 0 0 1 -860 -247 )">
    <path d="M 6.474609375 1.74348958333333  C 8.46636284722222 0.581163194444442  10.6414930555556 0  13 0  C 15.3585069444444 0  17.5336371527778 0.581163194444442  19.525390625 1.74348958333333  C 21.5171440972222 2.90581597222222  23.0941840277778 4.48285590277778  24.2565104166667 6.474609375  C 25.4188368055556 8.46636284722222  26 10.6414930555556  26 13  C 26 15.3585069444444  25.4188368055556 17.5336371527778  24.2565104166667 19.525390625  C 23.0941840277778 21.5171440972222  21.5171440972222 23.0941840277778  19.525390625 24.2565104166667  C 17.5336371527778 25.4188368055556  15.3585069444444 26  13 26  C 10.6414930555556 26  8.46636284722222 25.4188368055556  6.474609375 24.2565104166667  C 4.48285590277778 23.0941840277778  2.90581597222222 21.5171440972222  1.74348958333333 19.525390625  C 0.581163194444444 17.5336371527778  0 15.3585069444444  0 13  C 0 10.6414930555556  0.581163194444444 8.46636284722222  1.74348958333333 6.474609375  C 2.90581597222222 4.48285590277778  4.48285590277778 2.90581597222222  6.474609375 1.74348958333333  Z M 18.3658854166667 8.61588541666667  C 18.1740451388889 8.55946180555555  17.9314236111111 8.62717013888889  17.6380208333333 8.81901041666667  C 17.6154513888889 8.83029513888889  17.5618489583333 8.88389756944444  17.4772135416667 8.97981770833333  C 17.392578125 9.07573784722222  17.31640625 9.12934027777778  17.2486979166667 9.140625  C 17.2712673611111 9.140625  17.2966579861111 9.11241319444444  17.3248697916667 9.05598958333333  C 17.3530815972222 8.99956597222222  17.3812934027778 8.9375  17.4095052083333 8.86979166666667  C 17.4377170138889 8.80208333333333  17.4574652777778 8.76258680555556  17.46875 8.75130208333333  C 17.5364583333333 8.67230902777778  17.6605902777778 8.58767361111111  17.8411458333333 8.49739583333333  C 17.9991319444444 8.4296875  18.2925347222222 8.36197916666667  18.7213541666667 8.29427083333333  C 19.1050347222222 8.20399305555555  19.3927951388889 8.26605902777778  19.5846354166667 8.48046875  C 19.5620659722222 8.45789930555555  19.6156684027778 8.38454861111111  19.7454427083333 8.26041666666667  C 19.8752170138889 8.13628472222222  19.95703125 8.06857638888889  19.9908854166667 8.05729166666667  C 20.0247395833333 8.03472222222222  20.109375 8.00933159722222  20.2447916666667 7.98111979166667  C 20.3802083333333 7.95290798611111  20.46484375 7.91059027777778  20.4986979166667 7.85416666666667  L 20.5325520833333 7.48177083333333  C 20.3971354166667 7.49305555555555  20.2983940972222 7.45355902777778  20.236328125 7.36328125  C 20.1742621527778 7.27300347222222  20.1375868055556 7.15451388888889  20.1263020833333 7.0078125  C 20.1263020833333 7.03038194444444  20.0924479166667 7.07552083333333  20.0247395833333 7.14322916666667  C 20.0247395833333 7.06423611111111  19.9993489583333 7.01909722222222  19.9485677083333 7.0078125  C 19.8977864583333 6.99652777777778  19.8328993055556 7.00217013888889  19.75390625 7.02473958333333  C 19.6749131944444 7.04730902777778  19.6241319444444 7.05295138888889  19.6015625 7.04166666666667  C 19.4887152777778 7.0078125  19.4040798611111 6.96549479166667  19.34765625 6.91471354166667  C 19.2912326388889 6.86393229166667  19.24609375 6.77083333333333  19.2122395833333 6.63541666666667  C 19.1783854166667 6.5  19.1558159722222 6.41536458333333  19.14453125 6.38151041666667  C 19.1219618055556 6.32508680555555  19.068359375 6.26302083333333  18.9837239583333 6.1953125  C 18.8990885416667 6.12760416666667  18.8454861111111 6.07118055555555  18.8229166666667 6.02604166666667  C 18.8116319444444 6.00347222222222  18.7975260416667 5.97243923611111  18.7805989583333 5.93294270833333  C 18.763671875 5.89344618055555  18.7467447916667 5.85677083333333  18.7298177083333 5.82291666666667  C 18.712890625 5.7890625  18.6903211805556 5.75802951388889  18.662109375 5.72981770833333  C 18.6338975694444 5.70160590277778  18.6028645833333 5.6875  18.5690104166667 5.6875  C 18.53515625 5.6875  18.4956597222222 5.71571180555555  18.4505208333333 5.77213541666667  C 18.4053819444444 5.82855902777778  18.3630642361111 5.88498263888889  18.3235677083333 5.94140625  C 18.2840711805556 5.99782986111111  18.2586805555556 6.02604166666667  18.2473958333333 6.02604166666667  C 18.2135416666667 6.00347222222222  18.1796875 5.99500868055555  18.1458333333333 6.00065104166667  C 18.1119791666667 6.00629340277778  18.0865885416667 6.01193576388889  18.0696614583333 6.017578125  C 18.052734375 6.02322048611111  18.02734375 6.04014756944444  17.9934895833333 6.068359375  C 17.9596354166667 6.09657118055555  17.9314236111111 6.11631944444444  17.9088541666667 6.12760416666667  C 17.875 6.15017361111111  17.8270399305556 6.16710069444444  17.7649739583333 6.17838541666667  C 17.7029079861111 6.18967013888889  17.6549479166667 6.20095486111111  17.62109375 6.21223958333333  C 17.7903645833333 6.15581597222222  17.7847222222222 6.09375  17.6041666666667 6.02604166666667  C 17.4913194444444 5.98090277777778  17.4010416666667 5.96397569444444  17.3333333333333 5.97526041666667  C 17.4348958333333 5.93012152777778  17.4772135416667 5.86241319444444  17.4602864583333 5.77213541666667  C 17.443359375 5.68185763888889  17.3953993055556 5.60286458333333  17.31640625 5.53515625  L 17.4010416666667 5.53515625  C 17.3897569444444 5.49001736111111  17.341796875 5.44205729166667  17.2571614583333 5.39127604166667  C 17.1725260416667 5.34049479166667  17.0737847222222 5.29253472222222  16.9609375 5.24739583333333  C 16.8480902777778 5.20225694444444  16.7747395833333 5.16840277777778  16.7408854166667 5.14583333333333  C 16.6506076388889 5.08940972222222  16.4587673611111 5.03580729166667  16.1653645833333 4.98502604166667  C 15.8719618055556 4.93424479166667  15.6857638888889 4.93142361111111  15.6067708333333 4.9765625  C 15.5503472222222 5.04427083333333  15.5249565972222 5.103515625  15.5305989583333 5.154296875  C 15.5362413194444 5.205078125  15.5588107638889 5.28407118055555  15.5983072916667 5.39127604166667  C 15.6378038194444 5.49848090277778  15.6575520833333 5.56901041666667  15.6575520833333 5.60286458333333  C 15.6688368055556 5.67057291666667  15.6378038194444 5.74392361111111  15.564453125 5.82291666666667  C 15.4911024305556 5.90190972222222  15.4544270833333 5.96961805555555  15.4544270833333 6.02604166666667  C 15.4544270833333 6.10503472222222  15.5334201388889 6.19249131944444  15.69140625 6.28841145833333  C 15.8493923611111 6.38433159722222  15.9058159722222 6.50564236111111  15.8606770833333 6.65234375  C 15.8268229166667 6.74262152777778  15.7365451388889 6.83289930555555  15.58984375 6.92317708333333  C 15.4431423611111 7.01345486111111  15.3528645833333 7.08116319444444  15.3190104166667 7.12630208333333  C 15.2625868055556 7.21657986111111  15.2541232638889 7.32096354166667  15.2936197916667 7.439453125  C 15.3331163194444 7.55794270833333  15.3923611111111 7.65104166666667  15.4713541666667 7.71875  C 15.4939236111111 7.74131944444444  15.5023871527778 7.76388888888889  15.4967447916667 7.78645833333333  C 15.4911024305556 7.80902777777778  15.4713541666667 7.83441840277778  15.4375 7.86263020833333  C 15.4036458333333 7.89084201388889  15.3726128472222 7.91341145833333  15.3444010416667 7.93033854166667  C 15.3161892361111 7.947265625  15.2795138888889 7.96701388888889  15.234375 7.98958333333333  L 15.18359375 8.0234375  C 15.0594618055556 8.07986111111111  14.9437934027778 8.04600694444444  14.8365885416667 7.921875  C 14.7293836805556 7.79774305555555  14.6532118055556 7.65104166666667  14.6080729166667 7.48177083333333  C 14.5290798611111 7.19965277777778  14.4388020833333 7.03038194444444  14.3372395833333 6.97395833333333  C 14.0776909722222 6.88368055555555  13.9140625 6.88932291666667  13.8463541666667 6.99088541666667  C 13.7899305555556 6.84418402777778  13.55859375 6.69748263888889  13.15234375 6.55078125  C 12.8702256944444 6.44921875  12.54296875 6.42664930555555  12.1705729166667 6.48307291666667  C 12.23828125 6.47178819444444  12.23828125 6.38715277777778  12.1705729166667 6.22916666666667  C 12.0915798611111 6.05989583333333  11.984375 5.9921875  11.8489583333333 6.02604166666667  C 11.8828125 5.95833333333333  11.9053819444444 5.85959201388889  11.9166666666667 5.72981770833333  C 11.9279513888889 5.60004340277778  11.93359375 5.52387152777778  11.93359375 5.50130208333333  C 11.9674479166667 5.35460069444444  12.03515625 5.22482638888889  12.13671875 5.11197916666667  C 12.1480034722222 5.10069444444444  12.1875 5.052734375  12.2552083333333 4.96809895833333  C 12.3229166666667 4.88346354166667  12.3765190972222 4.80729166666667  12.416015625 4.73958333333333  C 12.4555121527778 4.671875  12.4583333333333 4.63802083333333  12.4244791666667 4.63802083333333  C 12.8194444444444 4.68315972222222  13.1015625 4.62109375  13.2708333333333 4.45182291666667  C 13.3272569444444 4.39539930555555  13.3921440972222 4.29947916666667  13.4654947916667 4.1640625  C 13.5388454861111 4.02864583333333  13.5980902777778 3.93272569444444  13.6432291666667 3.87630208333333  C 13.7447916666667 3.80859375  13.8237847222222 3.77756076388889  13.8802083333333 3.783203125  C 13.9366319444444 3.78884548611111  14.0184461805556 3.81987847222222  14.1256510416667 3.87630208333333  C 14.2328559027778 3.93272569444444  14.3146701388889 3.9609375  14.37109375 3.9609375  C 14.5290798611111 3.97222222222222  14.6165364583333 3.91015625  14.6334635416667 3.77473958333333  C 14.650390625 3.63932291666667  14.6080729166667 3.52647569444444  14.5065104166667 3.43619791666667  C 14.6419270833333 3.44748263888889  14.6588541666667 3.3515625  14.5572916666667 3.1484375  C 14.5121527777778 3.06944444444444  14.4670138888889 3.01866319444444  14.421875 2.99609375  C 14.2864583333333 2.95095486111111  14.1341145833333 2.97916666666667  13.96484375 3.08072916666667  C 13.8745659722222 3.12586805555555  13.8858506944444 3.17100694444444  13.9986979166667 3.21614583333333  C 13.9874131944444 3.20486111111111  13.9338107638889 3.26410590277778  13.837890625 3.39388020833333  C 13.7419704861111 3.52365451388889  13.6488715277778 3.62239583333333  13.55859375 3.69010416666667  C 13.4683159722222 3.7578125  13.3780381944444 3.72960069444444  13.2877604166667 3.60546875  C 13.2764756944444 3.59418402777778  13.2454427083333 3.51801215277778  13.1946614583333 3.376953125  C 13.1438802083333 3.23589409722222  13.0902777777778 3.15972222222222  13.0338541666667 3.1484375  C 12.9435763888889 3.1484375  12.8532986111111 3.23307291666667  12.7630208333333 3.40234375  C 12.796875 3.31206597222222  12.7348090277778 3.22743055555555  12.5768229166667 3.1484375  C 12.4188368055556 3.06944444444444  12.2834201388889 3.02430555555555  12.1705729166667 3.01302083333333  C 12.3849826388889 2.87760416666667  12.33984375 2.72526041666667  12.03515625 2.55598958333333  C 11.9561631944444 2.51085069444444  11.8404947916667 2.48263888888889  11.6881510416667 2.47135416666667  C 11.5358072916667 2.46006944444444  11.42578125 2.48263888888889  11.3580729166667 2.5390625  C 11.3016493055556 2.61805555555555  11.2706163194444 2.68294270833333  11.2649739583333 2.73372395833333  C 11.2593315972222 2.78450520833333  11.2875434027778 2.82964409722222  11.349609375 2.869140625  C 11.4116753472222 2.90863715277778  11.4709201388889 2.93967013888889  11.52734375 2.96223958333333  C 11.5837673611111 2.98480902777778  11.6486545138889 3.00737847222222  11.7220052083333 3.02994791666667  C 11.7953559027778 3.05251736111111  11.8433159722222 3.06944444444444  11.8658854166667 3.08072916666667  C 12.0238715277778 3.19357638888889  12.0690104166667 3.27256944444444  12.0013020833333 3.31770833333333  C 11.9787326388889 3.32899305555555  11.9307725694444 3.34874131944444  11.857421875 3.376953125  C 11.7840711805556 3.40516493055555  11.7191840277778 3.43055555555555  11.6627604166667 3.453125  C 11.6063368055556 3.47569444444444  11.5724826388889 3.49826388888889  11.5611979166667 3.52083333333333  C 11.52734375 3.56597222222222  11.52734375 3.64496527777778  11.5611979166667 3.7578125  C 11.5950520833333 3.87065972222222  11.5837673611111 3.94965277777778  11.52734375 3.99479166666667  C 11.4709201388889 3.93836805555555  11.4201388888889 3.83962673611111  11.375 3.69856770833333  C 11.3298611111111 3.55750868055555  11.2903645833333 3.46440972222222  11.2565104166667 3.41927083333333  C 11.3355034722222 3.52083333333333  11.1944444444444 3.5546875  10.8333333333333 3.52083333333333  L 10.6640625 3.50390625  C 10.6189236111111 3.50390625  10.5286458333333 3.51519097222222  10.3932291666667 3.53776041666667  C 10.2578125 3.56032986111111  10.1421440972222 3.56597222222222  10.0462239583333 3.5546875  C 9.95030381944444 3.54340277777778  9.87413194444444 3.49826388888889  9.81770833333333 3.41927083333333  C 9.77256944444444 3.32899305555555  9.77256944444444 3.21614583333333  9.81770833333333 3.08072916666667  C 9.82899305555556 3.03559027777778  9.8515625 3.02430555555555  9.88541666666667 3.046875  C 9.84027777777778 3.01302083333333  9.77821180555556 2.95941840277778  9.69921875 2.88606770833333  C 9.62022569444444 2.81271701388889  9.56380208333333 2.76475694444444  9.52994791666667 2.7421875  C 9.01085069444444 2.91145833333333  8.48046875 3.14279513888889  7.93880208333333 3.43619791666667  C 8.00651041666667 3.44748263888889  8.07421875 3.44184027777778  8.14192708333333 3.41927083333333  C 8.19835069444444 3.39670138888889  8.27170138888889 3.36002604166667  8.36197916666667 3.30924479166667  C 8.45225694444444 3.25846354166667  8.50868055555556 3.22743055555555  8.53125 3.21614583333333  C 8.91493055555556 3.05815972222222  9.15190972222222 3.01866319444444  9.2421875 3.09765625  L 9.32682291666667 3.01302083333333  C 9.48480902777778 3.19357638888889  9.59765625 3.33463541666667  9.66536458333333 3.43619791666667  C 9.58637152777778 3.39105902777778  9.41710069444444 3.38541666666667  9.15755208333333 3.41927083333333  C 8.93185763888889 3.48697916666667  8.80772569444444 3.5546875  8.78515625 3.62239583333333  C 8.86414930555556 3.7578125  8.89236111111111 3.859375  8.86979166666667 3.92708333333333  C 8.82465277777778 3.89322916666667  8.759765625 3.83680555555555  8.67513020833333 3.7578125  C 8.59049479166667 3.67881944444444  8.50868055555556 3.61675347222222  8.4296875 3.57161458333333  C 8.35069444444444 3.52647569444444  8.26605902777778 3.49826388888889  8.17578125 3.48697916666667  C 7.99522569444444 3.48697916666667  7.87109375 3.49262152777778  7.80338541666667 3.50390625  C 6.15581597222222 4.40668402777778  4.82986111111111 5.65928819444444  3.82552083333333 7.26171875  C 3.90451388888889 7.34071180555555  3.97222222222222 7.38585069444444  4.02864583333333 7.39713541666667  C 4.07378472222222 7.40842013888889  4.10199652777778 7.45920138888889  4.11328125 7.54947916666667  C 4.12456597222222 7.63975694444444  4.138671875 7.70182291666667  4.15559895833333 7.73567708333333  C 4.17252604166667 7.76953125  4.23741319444444 7.75260416666667  4.35026041666667 7.68489583333333  C 4.45182291666667 7.77517361111111  4.46875 7.88237847222222  4.40104166666667 8.00651041666667  C 4.41232638888889 7.99522569444444  4.66059027777778 8.14756944444444  5.14583333333333 8.46354166666667  C 5.36024305555556 8.65538194444444  5.47873263888889 8.77387152777778  5.50130208333333 8.81901041666667  C 5.53515625 8.94314236111111  5.47873263888889 9.04470486111111  5.33203125 9.12369791666667  C 5.32074652777778 9.10112847222222  5.26996527777778 9.05034722222222  5.1796875 8.97135416666667  C 5.08940972222222 8.89236111111111  5.03862847222222 8.86979166666666  5.02734375 8.90364583333333  C 4.99348958333333 8.96006944444444  4.99631076388889 9.064453125  5.03580729166667 9.216796875  C 5.07530381944444 9.369140625  5.13454861111111 9.43967013888889  5.21354166666667 9.42838541666667  C 5.13454861111111 9.42838541666667  5.08094618055556 9.51866319444444  5.052734375 9.69921875  C 5.02452256944444 9.87977430555555  5.01041666666667 10.080078125  5.01041666666667 10.3001302083333  C 5.01041666666667 10.5201822916667  5.00477430555556 10.6527777777778  4.99348958333333 10.6979166666667  L 5.02734375 10.71484375  C 4.99348958333333 10.8502604166667  5.02452256944444 11.044921875  5.12044270833333 11.298828125  C 5.21636284722222 11.552734375  5.33767361111111 11.6627604166667  5.484375 11.62890625  C 5.33767361111111 11.6627604166667  5.45052083333333 11.9053819444444  5.82291666666667 12.3567708333333  C 5.890625 12.4470486111111  5.93576388888889 12.4978298611111  5.95833333333333 12.5091145833333  C 5.9921875 12.5316840277778  6.05989583333333 12.5740017361111  6.16145833333333 12.6360677083333  C 6.26302083333333 12.6981336805556  6.34765625 12.7545572916667  6.41536458333333 12.8053385416667  C 6.48307291666667 12.8561197916667  6.53949652777778 12.9153645833333  6.58463541666667 12.9830729166667  C 6.62977430555556 13.0394965277778  6.68619791666667 13.1664496527778  6.75390625 13.3639322916667  C 6.82161458333333 13.5614149305556  6.90060763888889 13.6940104166667  6.99088541666667 13.76171875  C 6.96831597222222 13.8294270833333  7.02191840277778 13.9422743055556  7.15169270833333 14.1002604166667  C 7.28146701388889 14.2582465277778  7.34071180555556 14.3880208333333  7.32942708333333 14.4895833333333  C 7.31814236111111 14.4895833333333  7.30403645833333 14.4952256944444  7.287109375 14.5065104166667  C 7.27018229166667 14.5177951388889  7.25607638888889 14.5234375  7.24479166666667 14.5234375  C 7.27864583333333 14.6024305555556  7.36610243055556 14.6814236111111  7.50716145833333 14.7604166666667  C 7.64822048611111 14.8394097222222  7.73567708333333 14.9127604166667  7.76953125 14.98046875  C 7.78081597222222 15.0143229166667  7.79210069444444 15.0707465277778  7.80338541666667 15.1497395833333  C 7.81467013888889 15.2287326388889  7.83159722222222 15.2907986111111  7.85416666666667 15.3359375  C 7.87673611111111 15.3810763888889  7.921875 15.3923611111111  7.98958333333333 15.3697916666667  C 8.01215277777778 15.1440972222222  7.87673611111111 14.7942708333333  7.58333333333333 14.3203125  C 7.4140625 14.0381944444444  7.31814236111111 13.8745659722222  7.29557291666667 13.8294270833333  C 7.26171875 13.7730034722222  7.23068576388889 13.685546875  7.20247395833333 13.5670572916667  C 7.17426215277778 13.4485677083333  7.14887152777778 13.3667534722222  7.12630208333333 13.3216145833333  C 7.14887152777778 13.3216145833333  7.18272569444444 13.330078125  7.22786458333333 13.3470052083333  C 7.27300347222222 13.3639322916667  7.32096354166667 13.3836805555556  7.37174479166667 13.40625  C 7.42252604166667 13.4288194444444  7.46484375 13.4513888888889  7.49869791666667 13.4739583333333  C 7.53255208333333 13.4965277777778  7.54383680555556 13.5134548611111  7.53255208333333 13.5247395833333  C 7.49869791666667 13.6037326388889  7.50998263888889 13.7024739583333  7.56640625 13.8209635416667  C 7.62282986111111 13.939453125  7.69053819444444 14.0438368055556  7.76953125 14.1341145833333  C 7.84852430555556 14.2243923611111  7.94444444444444 14.3315972222222  8.05729166666667 14.4557291666667  C 8.17013888888889 14.5798611111111  8.23784722222222 14.6532118055556  8.26041666666667 14.67578125  C 8.328125 14.7434895833333  8.40711805555556 14.853515625  8.49739583333333 15.005859375  C 8.58767361111111 15.158203125  8.58767361111111 15.234375  8.49739583333333 15.234375  C 8.59895833333333 15.234375  8.71180555555556 15.2936197916667  8.8359375 15.412109375  C 8.96006944444444 15.5305989583333  9.05598958333333 15.640625  9.12369791666667 15.7421875  C 9.18012152777778 15.8324652777778  9.22526041666667 15.9791666666667  9.25911458333333 16.1822916666667  C 9.29296875 16.3854166666667  9.32118055555556 16.5208333333333  9.34375 16.5885416666667  C 9.36631944444444 16.6675347222222  9.41427951388889 16.7437065972222  9.48763020833333 16.8170572916667  C 9.56098090277778 16.8904079861111  9.63151041666667 16.9440104166667  9.69921875 16.9778645833333  L 9.97005208333333 17.11328125  C 9.97005208333333 17.11328125  10.0434027777778 17.1527777777778  10.1901041666667 17.2317708333333  C 10.2465277777778 17.2543402777778  10.3509114583333 17.3135850694444  10.5032552083333 17.4095052083333  C 10.6555989583333 17.5054253472222  10.7769097222222 17.5703125  10.8671875 17.6041666666667  C 10.9800347222222 17.6493055555556  11.0703125 17.671875  11.1380208333333 17.671875  C 11.2057291666667 17.671875  11.2875434027778 17.6577690972222  11.3834635416667 17.6295572916667  C 11.4793836805556 17.6013454861111  11.5555555555556 17.5815972222222  11.6119791666667 17.5703125  C 11.78125 17.5477430555556  11.9448784722222 17.6323784722222  12.1028645833333 17.82421875  C 12.2608506944444 18.0160590277778  12.3793402777778 18.1345486111111  12.4583333333333 18.1796875  C 12.8645833333333 18.3940972222222  13.1749131944444 18.4561631944444  13.3893229166667 18.3658854166667  C 13.3667534722222 18.3771701388889  13.3695746527778 18.4194878472222  13.3977864583333 18.4928385416667  C 13.4259982638889 18.5661892361111  13.4711371527778 18.6536458333333  13.533203125 18.7552083333333  C 13.5952690972222 18.8567708333333  13.6460503472222 18.9385850694444  13.685546875 19.0006510416667  C 13.7250434027778 19.0627170138889  13.7560763888889 19.1106770833333  13.7786458333333 19.14453125  C 13.8350694444444 19.2122395833333  13.9366319444444 19.296875  14.0833333333333 19.3984375  C 14.2300347222222 19.5  14.3315972222222 19.5846354166667  14.3880208333333 19.65234375  C 14.4557291666667 19.6072048611111  14.4952256944444 19.5564236111111  14.5065104166667 19.5  C 14.47265625 19.5902777777778  14.5121527777778 19.703125  14.625 19.8385416666667  C 14.7378472222222 19.9739583333333  14.8394097222222 20.0303819444444  14.9296875 20.0078125  C 15.0876736111111 19.9739583333333  15.1666666666667 19.7934027777778  15.1666666666667 19.4661458333333  C 14.8168402777778 19.6354166666667  14.5403645833333 19.5338541666667  14.3372395833333 19.1614583333333  C 14.3372395833333 19.1501736111111  14.3231336805556 19.119140625  14.294921875 19.068359375  C 14.2667100694444 19.017578125  14.244140625 18.9696180555556  14.2272135416667 18.9244791666667  C 14.2102864583333 18.8793402777778  14.1961805555556 18.8313802083333  14.1848958333333 18.7805989583333  C 14.1736111111111 18.7298177083333  14.1736111111111 18.6875  14.1848958333333 18.6536458333333  C 14.1961805555556 18.6197916666667  14.2243923611111 18.6028645833333  14.26953125 18.6028645833333  C 14.37109375 18.6028645833333  14.4275173611111 18.5831163194444  14.4388020833333 18.5436197916667  C 14.4500868055556 18.5041232638889  14.4388020833333 18.43359375  14.4049479166667 18.33203125  C 14.37109375 18.23046875  14.3485243055556 18.1571180555556  14.3372395833333 18.1119791666667  C 14.3259548611111 18.0217013888889  14.2638888888889 17.9088541666667  14.1510416666667 17.7734375  C 14.0381944444444 17.6380208333333  13.9704861111111 17.5533854166667  13.9479166666667 17.51953125  C 13.8914930555556 17.62109375  13.8012152777778 17.6662326388889  13.6770833333333 17.6549479166667  C 13.5529513888889 17.6436631944444  13.4626736111111 17.5928819444444  13.40625 17.5026041666667  C 13.40625 17.5138888888889  13.3977864583333 17.544921875  13.380859375 17.595703125  C 13.3639322916667 17.646484375  13.35546875 17.6831597222222  13.35546875 17.7057291666667  C 13.2087673611111 17.7057291666667  13.1241319444444 17.7000868055556  13.1015625 17.6888020833333  C 13.1128472222222 17.6549479166667  13.126953125 17.5562065972222  13.1438802083333 17.392578125  C 13.1608072916667 17.2289496527778  13.1805555555556 17.1019965277778  13.203125 17.01171875  C 13.2144097222222 16.9665798611111  13.2454427083333 16.8988715277778  13.2962239583333 16.80859375  C 13.3470052083333 16.7183159722222  13.3893229166667 16.6365017361111  13.4231770833333 16.5631510416667  C 13.45703125 16.4898003472222  13.4796006944444 16.4192708333333  13.4908854166667 16.3515625  C 13.5021701388889 16.2838541666667  13.4767795138889 16.2302517361111  13.4147135416667 16.1907552083333  C 13.3526475694444 16.1512586805556  13.25390625 16.1371527777778  13.1184895833333 16.1484375  C 12.9040798611111 16.1597222222222  12.7573784722222 16.2725694444444  12.6783854166667 16.4869791666667  C 12.6671006944444 16.5208333333333  12.6501736111111 16.580078125  12.6276041666667 16.6647135416667  C 12.6050347222222 16.7493489583333  12.5768229166667 16.8142361111111  12.54296875 16.859375  C 12.5091145833333 16.9045138888889  12.4583333333333 16.9440104166667  12.390625 16.9778645833333  C 12.3116319444444 17.01171875  12.1762152777778 17.0230034722222  11.984375 17.01171875  C 11.7925347222222 17.0004340277778  11.6571180555556 16.9722222222222  11.578125 16.9270833333333  C 11.4314236111111 16.8368055555556  11.3044704861111 16.6731770833333  11.197265625 16.4361979166667  C 11.0900607638889 16.19921875  11.0364583333333 15.9904513888889  11.0364583333333 15.8098958333333  C 11.0364583333333 15.6970486111111  11.0505642361111 15.5475260416667  11.0787760416667 15.361328125  C 11.1069878472222 15.1751302083333  11.1239149305556 15.0340711805556  11.1295572916667 14.9381510416667  C 11.1351996527778 14.8422309027778  11.1041666666667 14.7039930555556  11.0364583333333 14.5234375  C 11.0703125 14.5008680555556  11.12109375 14.447265625  11.1888020833333 14.3626302083333  C 11.2565104166667 14.2779947916667  11.3129340277778 14.21875  11.3580729166667 14.1848958333333  C 11.3806423611111 14.1736111111111  11.4060329861111 14.1651475694444  11.4342447916667 14.1595052083333  C 11.4624565972222 14.1538628472222  11.4878472222222 14.1538628472222  11.5104166666667 14.1595052083333  C 11.5329861111111 14.1651475694444  11.5555555555556 14.1566840277778  11.578125 14.1341145833333  C 11.6006944444444 14.1115451388889  11.6176215277778 14.0776909722222  11.62890625 14.0325520833333  C 11.6176215277778 14.0212673611111  11.5950520833333 14.0043402777778  11.5611979166667 13.9817708333333  C 11.52734375 13.9479166666667  11.5047743055556 13.9309895833333  11.4934895833333 13.9309895833333  C 11.5724826388889 13.96484375  11.7332899305556 13.9563802083333  11.9759114583333 13.9055989583333  C 12.2185329861111 13.8548177083333  12.3736979166667 13.86328125  12.44140625 13.9309895833333  C 12.6106770833333 14.0551215277778  12.7348090277778 14.0438368055556  12.8138020833333 13.8971354166667  C 12.8138020833333 13.8858506944444  12.7996961805556 13.8322482638889  12.771484375 13.736328125  C 12.7432725694444 13.6404079861111  12.7404513888889 13.5642361111111  12.7630208333333 13.5078125  C 12.8194444444444 13.8125  12.9830729166667 13.86328125  13.25390625 13.66015625  C 13.2877604166667 13.6940104166667  13.3752170138889 13.7222222222222  13.5162760416667 13.7447916666667  C 13.6573350694444 13.7673611111111  13.7560763888889 13.7955729166667  13.8125 13.8294270833333  C 13.8463541666667 13.8519965277778  13.8858506944444 13.8830295138889  13.9309895833333 13.9225260416667  C 13.9761284722222 13.9620225694444  14.0071614583333 13.9874131944444  14.0240885416667 13.9986979166667  C 14.041015625 14.0099826388889  14.0692274305556 14.0071614583333  14.1087239583333 13.990234375  C 14.1482204861111 13.9733072916667  14.1961805555556 13.9366319444444  14.2526041666667 13.8802083333333  C 14.3654513888889 14.0381944444444  14.4331597222222 14.1736111111111  14.4557291666667 14.2864583333333  C 14.5798611111111 14.7378472222222  14.6870659722222 14.9861111111111  14.77734375 15.03125  C 14.8563368055556 15.0651041666667  14.9184027777778 15.0763888888889  14.9635416666667 15.0651041666667  C 15.0086805555556 15.0538194444444  15.0340711805556 15.0002170138889  15.0397135416667 14.904296875  C 15.0453559027778 14.8083767361111  15.0453559027778 14.7293836805556  15.0397135416667 14.6673177083333  C 15.0340711805556 14.6052517361111  15.0256076388889 14.5347222222222  15.0143229166667 14.4557291666667  L 14.9973958333333 14.3203125  L 14.9973958333333 14.015625  L 14.98046875 13.8802083333333  C 14.8111979166667 13.8463541666667  14.7068142361111 13.7786458333333  14.6673177083333 13.6770833333333  C 14.6278211805556 13.5755208333333  14.6362847222222 13.4711371527778  14.6927083333333 13.3639322916667  C 14.7491319444444 13.2567274305556  14.8337673611111 13.15234375  14.9466145833333 13.05078125  C 14.9578993055556 13.0394965277778  15.0030381944444 13.0197482638889  15.08203125 12.9915364583333  C 15.1610243055556 12.9633246527778  15.2484809027778 12.9266493055556  15.3444010416667 12.8815104166667  C 15.4403211805556 12.8363715277778  15.5108506944444 12.7912326388889  15.5559895833333 12.74609375  C 15.79296875 12.5316840277778  15.8776041666667 12.3342013888889  15.8098958333333 12.1536458333333  C 15.8888888888889 12.1536458333333  15.9509548611111 12.1028645833333  15.99609375 12.0013020833333  C 15.9848090277778 12.0013020833333  15.9565972222222 11.984375  15.9114583333333 11.9505208333333  C 15.8663194444444 11.9166666666667  15.8240017361111 11.8884548611111  15.7845052083333 11.8658854166667  C 15.7450086805556 11.8433159722222  15.7196180555556 11.83203125  15.7083333333333 11.83203125  C 15.8098958333333 11.7756076388889  15.8211805555556 11.6853298611111  15.7421875 11.5611979166667  C 15.7986111111111 11.52734375  15.8409288194444 11.4652777777778  15.869140625 11.375  C 15.8973524305556 11.2847222222222  15.9396701388889 11.2282986111111  15.99609375 11.2057291666667  C 16.09765625 11.3411458333333  16.2161458333333 11.3524305555556  16.3515625 11.2395833333333  C 16.4418402777778 11.1493055555556  16.4474826388889 11.0590277777778  16.3684895833333 10.96875  C 16.4249131944444 10.8897569444444  16.5405815972222 10.8305121527778  16.7154947916667 10.791015625  C 16.8904079861111 10.7515190972222  16.9947916666667 10.6979166666667  17.0286458333333 10.6302083333333  C 17.1076388888889 10.6527777777778  17.1527777777778 10.6414930555556  17.1640625 10.5963541666667  C 17.1753472222222 10.5512152777778  17.1809895833333 10.4835069444444  17.1809895833333 10.3932291666667  C 17.1809895833333 10.3029513888889  17.1979166666667 10.2352430555556  17.2317708333333 10.1901041666667  C 17.2769097222222 10.1336805555556  17.3615451388889 10.0828993055556  17.4856770833333 10.0377604166667  C 17.6098090277778 9.99262152777778  17.6831597222222 9.96440972222222  17.7057291666667 9.953125  L 17.9934895833333 9.76692708333333  C 18.02734375 9.72178819444444  18.02734375 9.69921875  17.9934895833333 9.69921875  C 18.1966145833333 9.72178819444444  18.3715277777778 9.65972222222222  18.5182291666667 9.51302083333333  C 18.6310763888889 9.38888888888889  18.5972222222222 9.27604166666667  18.4166666666667 9.17447916666667  C 18.4505208333333 9.10677083333333  18.43359375 9.05316840277778  18.3658854166667 9.013671875  C 18.2981770833333 8.97417534722222  18.2135416666667 8.94314236111111  18.1119791666667 8.92057291666667  C 18.1458333333333 8.90928819444444  18.2107204861111 8.90646701388889  18.306640625 8.912109375  C 18.4025607638889 8.91775173611111  18.4618055555556 8.90928819444444  18.484375 8.88671875  C 18.6536458333333 8.77387152777778  18.6141493055556 8.68359375  18.3658854166667 8.61588541666667  Z M 14.8450520833333 23.3932291666667  C 14.8450520833333 23.4609375  14.8563368055556 23.5512152777778  14.87890625 23.6640625  C 17.2035590277778 23.2578125  19.1840277777778 22.19140625  20.8203125 20.46484375  C 20.7864583333333 20.4309895833333  20.7159288194444 20.4055989583333  20.6087239583333 20.388671875  C 20.5015190972222 20.3717447916667  20.4309895833333 20.3519965277778  20.3971354166667 20.3294270833333  C 20.1940104166667 20.2504340277778  20.05859375 20.2052951388889  19.9908854166667 20.1940104166667  C 20.0021701388889 20.1150173611111  19.9880642361111 20.0416666666667  19.9485677083333 19.9739583333333  C 19.9090711805556 19.90625  19.8639322916667 19.85546875  19.8131510416667 19.8216145833333  C 19.7623697916667 19.7877604166667  19.6918402777778 19.7426215277778  19.6015625 19.6861979166667  C 19.5112847222222 19.6297743055556  19.44921875 19.5902777777778  19.4153645833333 19.5677083333333  C 19.3927951388889 19.5451388888889  19.3532986111111 19.5112847222222  19.296875 19.4661458333333  C 19.2404513888889 19.4210069444444  19.2009548611111 19.3899739583333  19.1783854166667 19.373046875  C 19.1558159722222 19.3561197916667  19.1134982638889 19.3307291666667  19.0514322916667 19.296875  C 18.9893663194444 19.2630208333333  18.94140625 19.2517361111111  18.9075520833333 19.2630208333333  C 18.8736979166667 19.2743055555556  18.8172743055556 19.2799479166667  18.73828125 19.2799479166667  L 18.6875 19.296875  C 18.6536458333333 19.3081597222222  18.6226128472222 19.322265625  18.5944010416667 19.3391927083333  C 18.5661892361111 19.3561197916667  18.53515625 19.373046875  18.5013020833333 19.3899739583333  C 18.4674479166667 19.4069010416667  18.4448784722222 19.423828125  18.43359375 19.4407552083333  C 18.4223090277778 19.4576822916667  18.4223090277778 19.4717881944444  18.43359375 19.4830729166667  C 18.1966145833333 19.2912326388889  17.9934895833333 19.1671006944444  17.82421875 19.1106770833333  C 17.7677951388889 19.0993923611111  17.7057291666667 19.068359375  17.6380208333333 19.017578125  C 17.5703125 18.966796875  17.5110677083333 18.9273003472222  17.4602864583333 18.8990885416667  C 17.4095052083333 18.8708767361111  17.3530815972222 18.8624131944444  17.291015625 18.8736979166667  C 17.2289496527778 18.8849826388889  17.1640625 18.9244791666667  17.0963541666667 18.9921875  C 17.0399305555556 19.0486111111111  17.0060763888889 19.1332465277778  16.9947916666667 19.24609375  C 16.9835069444444 19.3589409722222  16.9722222222222 19.4322916666667  16.9609375 19.4661458333333  C 16.8819444444444 19.4097222222222  16.8819444444444 19.3109809027778  16.9609375 19.169921875  C 17.0399305555556 19.0288628472222  17.0512152777778 18.9244791666667  16.9947916666667 18.8567708333333  C 16.9609375 18.7890625  16.9016927083333 18.763671875  16.8170572916667 18.7805989583333  C 16.732421875 18.7975260416667  16.6647135416667 18.8229166666667  16.6139322916667 18.8567708333333  C 16.5631510416667 18.890625  16.4982638888889 18.9385850694444  16.4192708333333 19.0006510416667  C 16.3402777777778 19.0627170138889  16.2894965277778 19.0993923611111  16.2669270833333 19.1106770833333  C 16.2443576388889 19.1219618055556  16.1963975694444 19.1529947916667  16.123046875 19.2037760416667  C 16.0496961805556 19.2545572916667  16.0017361111111 19.296875  15.9791666666667 19.3307291666667  C 15.9453125 19.3758680555556  15.9114583333333 19.4435763888889  15.8776041666667 19.5338541666667  C 15.84375 19.6241319444444  15.8155381944444 19.6861979166667  15.79296875 19.7200520833333  C 15.7703993055556 19.6749131944444  15.7055121527778 19.6382378472222  15.5983072916667 19.6100260416667  C 15.4911024305556 19.5818142361111  15.4375 19.55078125  15.4375 19.5169270833333  C 15.4600694444444 19.6297743055556  15.4826388888889 19.8272569444444  15.5052083333333 20.109375  C 15.5277777777778 20.3914930555556  15.5559895833333 20.6059027777778  15.58984375 20.7526041666667  C 15.6688368055556 21.1024305555556  15.6011284722222 21.3732638888889  15.38671875 21.5651041666667  C 15.08203125 21.8472222222222  14.9184027777778 22.0729166666667  14.8958333333333 22.2421875  C 14.8506944444444 22.4904513888889  14.9184027777778 22.6371527777778  15.0989583333333 22.6822916666667  C 15.0989583333333 22.7612847222222  15.0538194444444 22.876953125  14.9635416666667 23.029296875  C 14.8732638888889 23.181640625  14.8337673611111 23.3029513888889  14.8450520833333 23.3932291666667  Z " fill-rule="nonzero" fill="#000000" stroke="none" transform="matrix(1 0 0 1 860 247 )" />
  </g>
</svg>