<?xml version="1.0" encoding="utf-8"?>
<svg version="1.1" xmlns:xlink="http://www.w3.org/1999/xlink" width="60px" height="60px" xmlns="http://www.w3.org/2000/svg">
  <g transform="matrix(1 0 0 1 -176 -176 )">
    <path d="M 176 176  L 236 176  L 236 236  L 176 236  L 176 176  " fill-rule="nonzero" fill="#cccccc" stroke="none" />
    <path d="M 180 180  L 232 180  L 232 232  L 180 232  L 180 180  " fill-rule="nonzero" fill="#ffffff" stroke="none" />
    <path d="M 211.7 194  C 209.18 194  207.2 192.02  207.2 189.5  C 207.2 186.98  209.18 185  211.7 185  C 214.22 185  216.2 186.98  216.2 189.5  C 216.2 192.02  214.22 194  211.7 194  " fill-rule="nonzero" fill="#cccccc" stroke="none" />
    <path d="M 182 231  L 182 204.05  L 194.25 191.8  L 211.4 201.6  L 221.2 199.15  L 231 201.6  L 231 231  L 182 231  " fill-rule="nonzero" fill="#169bd5" stroke="none" />
  </g>
</svg>