<?xml version="1.0" encoding="utf-8"?>
<svg version="1.1" xmlns:xlink="http://www.w3.org/1999/xlink" width="28px" height="23px" xmlns="http://www.w3.org/2000/svg">
  <g transform="matrix(1 0 0 1 -233 -204 )">
    <path d="M 7.3209756097561 8.84615384615384  L 2.90926829268293 8.84615384615384  L 11.4185365853659 18.0378605769231  L 7.3209756097561 8.84615384615384  Z M 9.23317073170732 8.84615384615384  L 14 19.5168269230769  L 18.7668292682927 8.84615384615384  L 9.23317073170732 8.84615384615384  Z M 2.63609756097561 7.07692307692308  L 7.3619512195122 7.07692307692308  L 10.1482926829268 1.76923076923077  L 6.56975609756098 1.76923076923077  L 2.63609756097561 7.07692307692308  Z M 20.6790243902439 8.84615384615384  L 16.5814634146341 18.0378605769231  L 25.0907317073171 8.84615384615384  L 20.6790243902439 8.84615384615384  Z M 12.1287804878049 1.76923076923077  L 9.34243902439025 7.07692307692308  L 18.6575609756098 7.07692307692308  L 15.8712195121951 1.76923076923077  L 12.1287804878049 1.76923076923077  Z M 17.8517073170732 1.76923076923077  L 20.6380487804878 7.07692307692308  L 25.3639024390244 7.07692307692308  L 21.430243902439 1.76923076923077  L 17.8517073170732 1.76923076923077  Z M 21.8673170731707 0  C 22.1678048780488 0  22.4 0.119791666666665  22.5639024390244 0.359375  L 27.8087804878049 7.43629807692308  C 27.9362601626016 7.60216346153846  27.9954471544715 7.79336939102564  27.9863414634146 8.00991586538462  C 27.9772357723577 8.22646233974359  27.899837398374 8.41306089743589  27.7541463414634 8.56971153846154  L 14.6419512195122 22.7235576923077  C 14.4780487804878 22.9078525641026  14.2640650406504 23  14 23  C 13.7359349593496 23  13.5219512195122 22.9078525641026  13.3580487804878 22.7235576923077  L 0.245853658536585 8.56971153846154  C 0.100162601626016 8.41306089743589  0.0227642276422764 8.22646233974359  0.0136585365853659 8.00991586538462  C 0.00455284552845528 7.79336939102564  0.063739837398374 7.60216346153846  0.191219512195122 7.43629807692308  L 5.43609756097561 0.359375  C 5.6 0.119791666666665  5.83219512195122 0  6.13268292682927 0  L 21.8673170731707 0  Z " fill-rule="nonzero" fill="#000000" stroke="none" transform="matrix(1 0 0 1 233 204 )" />
  </g>
</svg>