<?xml version="1.0" encoding="utf-8"?>
<svg version="1.1" xmlns:xlink="http://www.w3.org/1999/xlink" width="26px" height="26px" xmlns="http://www.w3.org/2000/svg">
  <g transform="matrix(1 0 0 1 -233 -236 )">
    <path d="M 7.95089285714286 1.03013392857143  C 9.55654761904762 0.343377976190476  11.2395833333333 0  13 0  C 14.7604166666667 0  16.4434523809524 0.343377976190476  18.0491071428571 1.03013392857143  C 19.6547619047619 1.71688988095238  21.0379464285714 2.640625  22.1986607142857 3.80133928571428  C 23.359375 4.96205357142857  24.2831101190476 6.34523809523809  24.9698660714286 7.95089285714286  C 25.6566220238095 9.55654761904762  26 11.2395833333333  26 13  C 26 14.7604166666667  25.6566220238095 16.4434523809524  24.9698660714286 18.0491071428571  C 24.2831101190476 19.6547619047619  23.359375 21.0379464285714  22.1986607142857 22.1986607142857  C 21.0379464285714 23.359375  19.6547619047619 24.2831101190476  18.0491071428571 24.9698660714286  C 16.4434523809524 25.6566220238095  14.7604166666667 26  13 26  C 11.2395833333333 26  9.55654761904762 25.6566220238095  7.95089285714286 24.9698660714286  C 6.3452380952381 24.2831101190476  4.96205357142857 23.359375  3.80133928571429 22.1986607142857  C 2.640625 21.0379464285714  1.71688988095238 19.6547619047619  1.03013392857143 18.0491071428571  C 0.343377976190476 16.4434523809524  0 14.7604166666667  0 13  C 0 11.2395833333333  0.343377976190476 9.55654761904762  1.03013392857143 7.95089285714286  C 1.71688988095238 6.34523809523809  2.640625 4.96205357142857  3.80133928571429 3.80133928571428  C 4.96205357142857 2.640625  6.3452380952381 1.71688988095238  7.95089285714286 1.03013392857143  Z M 18.2377232142857 3.16294642857143  C 16.5837053571429 2.29241071428572  14.8377976190476 1.85714285714286  13 1.85714285714286  C 11.1622023809524 1.85714285714286  9.41629464285714 2.29241071428572  7.76227678571429 3.16294642857143  L 10.5770089285714 5.97767857142857  C 11.3701636904762 5.70684523809524  12.1778273809524 5.57142857142857  13 5.57142857142857  C 13.8221726190476 5.57142857142857  14.6298363095238 5.70684523809524  15.4229910714286 5.97767857142857  L 18.2377232142857 3.16294642857143  Z M 1.85714285714286 13  C 1.85714285714286 14.8377976190476  2.29241071428571 16.5837053571429  3.16294642857143 18.2377232142857  L 5.97767857142857 15.4229910714286  C 5.70684523809524 14.6298363095238  5.57142857142857 13.8221726190476  5.57142857142857 13  C 5.57142857142857 12.1778273809524  5.70684523809524 11.3701636904762  5.97767857142857 10.5770089285714  L 3.16294642857143 7.76227678571428  C 2.29241071428571 9.41629464285714  1.85714285714286 11.1622023809524  1.85714285714286 13  Z M 7.76227678571429 22.8370535714286  C 9.41629464285714 23.7075892857143  11.1622023809524 24.1428571428571  13 24.1428571428571  C 14.8377976190476 24.1428571428571  16.5837053571429 23.7075892857143  18.2377232142857 22.8370535714286  L 15.4229910714286 20.0223214285714  C 14.6298363095238 20.2931547619048  13.8221726190476 20.4285714285714  13 20.4285714285714  C 12.1778273809524 20.4285714285714  11.3701636904762 20.2931547619048  10.5770089285714 20.0223214285714  L 7.76227678571429 22.8370535714286  Z M 9.06082589285714 16.9391741071429  C 10.1489955357143 18.02734375  11.4620535714286 18.5714285714286  13 18.5714285714286  C 14.5379464285714 18.5714285714286  15.8510044642857 18.02734375  16.9391741071429 16.9391741071429  C 18.02734375 15.8510044642857  18.5714285714286 14.5379464285714  18.5714285714286 13  C 18.5714285714286 11.4620535714286  18.02734375 10.1489955357143  16.9391741071429 9.06082589285714  C 15.8510044642857 7.97265625  14.5379464285714 7.42857142857143  13 7.42857142857143  C 11.4620535714286 7.42857142857143  10.1489955357143 7.97265625  9.06082589285714 9.06082589285714  C 7.97265625 10.1489955357143  7.42857142857143 11.4620535714286  7.42857142857143 13  C 7.42857142857143 14.5379464285714  7.97265625 15.8510044642857  9.06082589285714 16.9391741071429  Z M 20.4285714285714 13  C 20.4285714285714 13.8221726190476  20.2931547619048 14.6298363095238  20.0223214285714 15.4229910714286  L 22.8370535714286 18.2377232142857  C 23.7075892857143 16.5837053571429  24.1428571428571 14.8377976190476  24.1428571428571 13  C 24.1428571428571 11.1622023809524  23.7075892857143 9.41629464285714  22.8370535714286 7.76227678571428  L 20.0223214285714 10.5770089285714  C 20.2931547619048 11.3701636904762  20.4285714285714 12.1778273809524  20.4285714285714 13  Z " fill-rule="nonzero" fill="#000000" stroke="none" transform="matrix(1 0 0 1 233 236 )" />
  </g>
</svg>