<?xml version="1.0" encoding="utf-8"?>
<svg version="1.1" xmlns:xlink="http://www.w3.org/1999/xlink" width="30px" height="23px" xmlns="http://www.w3.org/2000/svg">
  <g transform="matrix(1 0 0 1 -233 -272 )">
    <path d="M 2.5 0  L 27.5 0  C 28.1875 0  28.7760416666667 0.234592013888887  29.265625 0.703776041666668  C 29.7552083333333 1.17296006944444  30 1.73697916666667  30 2.39583333333333  L 30 20.6041666666667  C 30 21.2630208333333  29.7552083333333 21.8270399305556  29.265625 22.2962239583333  C 28.7760416666667 22.7654079861111  28.1875 23  27.5 23  L 2.5 23  C 1.8125 23  1.22395833333333 22.7654079861111  0.734375 22.2962239583333  C 0.244791666666667 21.8270399305556  0 21.2630208333333  0 20.6041666666667  L 0 2.39583333333333  C 0 1.73697916666667  0.244791666666667 1.17296006944444  0.734375 0.703776041666668  C 1.22395833333333 0.234592013888887  1.8125 0  2.5 0  Z M 27.5 2  L 2.5 2  C 2.36458333333333 1.91666666666667  2.24739583333333 1.96408420138889  2.1484375 2.05891927083333  C 2.04947916666667 2.15375434027778  2 2.26605902777778  2 2.39583333333333  L 2 6  L 28 6  L 28 2.39583333333333  C 28 2.26605902777778  27.9505208333333 2.15375434027778  27.8515625 2.05891927083333  C 27.7526041666667 1.96408420138889  27.6354166666667 1.91666666666667  27.5 2  Z M 2.5 21  L 27.5 21  C 27.6354166666667 21.0833333333333  27.7526041666667 21.0359157986111  27.8515625 20.9410807291667  C 27.9505208333333 20.8462456597222  28 20.7339409722222  28 20.6041666666667  L 28 11.5  L 2 11.5  L 2 20.6041666666667  C 2 20.7339409722222  2.04947916666667 20.8462456597222  2.1484375 20.9410807291667  C 2.24739583333333 21.0359157986111  2.36458333333333 21.0833333333333  2.5 21  Z M 8 19.1666666666667  L 4 19.1666666666667  L 4 17.25  L 8 17.25  L 8 19.1666666666667  Z M 16 19.1666666666667  L 10 19.1666666666667  L 10 17.25  L 16 17.25  L 16 19.1666666666667  Z " fill-rule="nonzero" fill="#000000" stroke="none" transform="matrix(1 0 0 1 233 272 )" />
  </g>
</svg>