<?xml version="1.0" encoding="utf-8"?>
<svg version="1.1" xmlns:xlink="http://www.w3.org/1999/xlink" width="27px" height="28px" xmlns="http://www.w3.org/2000/svg">
  <g transform="matrix(1 0 0 1 -23 -204 )">
    <path d="M 13.778073089701 16.8072916666667  L 13.778073089701 12  L 26.7847176079734 12  C 26.9282392026578 12.8090277777778  27 13.5868055555556  27 14.328125  C 27 16.9652777777778  26.4558139534884 19.3198784722222  25.3674418604651 21.3919270833333  C 24.2790697674419 23.4639756944444  22.7272425249169 25.0833333333333  20.7119601328904 26.25  C 18.6966777408638 27.4166666666667  16.3853820598007 28  13.778073089701 28  C 11.9003322259136 28  10.112292358804 27.6323784722222  8.41395348837209 26.8971354166667  C 6.7156146179402 26.1618923611111  5.25049833887043 25.1684027777778  4.01860465116279 23.9166666666667  C 2.78671096345515 22.6649305555556  1.80897009966777 21.1762152777778  1.08538205980066 19.4505208333333  C 0.361794019933555 17.7248263888889  0 15.9079861111111  0 14  C 0 12.0920138888889  0.361794019933555 10.2751736111111  1.08538205980066 8.54947916666667  C 1.80897009966777 6.82378472222222  2.78671096345515 5.33506944444444  4.01860465116279 4.08333333333333  C 5.25049833887043 2.83159722222222  6.7156146179402 1.83810763888889  8.41395348837209 1.10286458333333  C 10.112292358804 0.367621527777775  11.9003322259136 0  13.778073089701 0  C 17.3661129568106 0  20.4458471760797 1.22135416666667  23.0172757475083 3.6640625  L 19.2677740863787 7.328125  C 17.7966777408638 5.88194444444444  15.9667774086379 5.15885416666667  13.778073089701 5.15885416666667  C 12.2352159468439 5.15885416666667  10.8089700996678 5.55381944444444  9.49933554817276 6.34375  C 8.18970099667774 7.13368055555555  7.15215946843854 8.20616319444444  6.38671096345515 9.56119791666667  C 5.62126245847176 10.9162326388889  5.23853820598007 12.3958333333333  5.23853820598007 14  C 5.23853820598007 15.6041666666667  5.62126245847176 17.0837673611111  6.38671096345515 18.4388020833333  C 7.15215946843854 19.7938368055556  8.18970099667774 20.8663194444444  9.49933554817276 21.65625  C 10.8089700996678 22.4461805555556  12.2352159468439 22.8411458333333  13.778073089701 22.8411458333333  C 14.8186046511628 22.8411458333333  15.775415282392 22.6953125  16.6485049833887 22.4036458333333  C 17.5215946843854 22.1119791666667  18.2392026578073 21.7473958333333  18.8013289036545 21.3098958333333  C 19.3634551495017 20.8723958333333  19.8538205980066 20.3741319444444  20.2724252491694 19.8151041666667  C 20.6910299003322 19.2560763888889  20.9990033222591 18.7274305555556  21.1963455149502 18.2291666666667  C 21.3936877076412 17.7309027777778  21.5282392026578 17.2569444444444  21.6 16.8072916666667  L 13.778073089701 16.8072916666667  Z " fill-rule="nonzero" fill="#000000" stroke="none" transform="matrix(1 0 0 1 23 204 )" />
  </g>
</svg>