<?xml version="1.0" encoding="utf-8"?>
<svg version="1.1" xmlns:xlink="http://www.w3.org/1999/xlink" width="28px" height="28px" xmlns="http://www.w3.org/2000/svg">
  <g transform="matrix(1 0 0 1 -109 -204 )">
    <path d="M 5.25 0  L 22.75 0  C 24.1961805555556 0  25.4327256944444 0.513454861111109  26.4596354166667 1.54036458333333  C 27.4865451388889 2.56727430555555  28 3.80381944444444  28 5.25  L 28 22.75  C 28 24.1961805555556  27.4865451388889 25.4327256944444  26.4596354166667 26.4596354166667  C 25.4327256944444 27.4865451388889  24.1961805555556 28  22.75 28  L 19 28  L 19 17.1536458333333  L 22.9505208333333 17.1536458333333  L 23.4973958333333 12.9244791666667  L 19.3229166666667 12.9244791666667  L 19.3229166666667 10.2265625  C 19.3229166666667 9.54600694444444  19.4657118055556 9.03559027777778  19.7513020833333 8.6953125  C 20.0368923611111 8.35503472222222  20.5928819444444 8.18489583333333  21.4192708333333 8.18489583333333  L 23.6432291666667 8.16666666666667  L 23.6432291666667 4.39322916666667  C 22.8776041666667 4.28385416666667  21.7960069444444 4.22916666666667  20.3984375 4.22916666666667  C 18.7456597222222 4.22916666666667  17.4240451388889 4.71527777777778  16.43359375 5.6875  C 15.4431423611111 6.65972222222222  14.9479166666667 8.03298611111111  14.9479166666667 9.80729166666667  L 14.9479166666667 12.9244791666667  L 11.3020833333333 12.9244791666667  L 11.3020833333333 17.1536458333333  L 15 17.1536458333333  L 15 28  L 5.25 28  C 3.80381944444444 28  2.56727430555556 27.4865451388889  1.54036458333333 26.4596354166667  C 0.513454861111111 25.4327256944444  0 24.1961805555556  0 22.75  L 0 5.25  C 0 3.80381944444444  0.513454861111111 2.56727430555555  1.54036458333333 1.54036458333333  C 2.56727430555556 0.513454861111109  3.80381944444444 0  5.25 0  Z " fill-rule="nonzero" fill="#000000" stroke="none" transform="matrix(1 0 0 1 109 204 )" />
  </g>
</svg>