<?xml version="1.0" encoding="utf-8"?>
<svg version="1.1" xmlns:xlink="http://www.w3.org/1999/xlink" width="26px" height="28px" xmlns="http://www.w3.org/2000/svg">
  <g transform="matrix(1 0 0 1 -290 -204 )">
    <path d="M 18.109375 21.2421875  C 18.546875 20.7369791666667  18.765625 20.1041666666667  18.765625 19.34375  C 18.765625 18.75  18.7369791666667 18.1927083333333  18.6796875 17.671875  C 18.6223958333333 17.1510416666667  18.5130208333333 16.6276041666667  18.3515625 16.1015625  C 18.1901041666667 15.5755208333333  17.984375 15.1276041666667  17.734375 14.7578125  C 17.484375 14.3880208333333  17.1510416666667 14.0859375  16.734375 13.8515625  C 16.3177083333333 13.6171875  15.84375 13.5  15.3125 13.5  C 15.25 13.5416666666667  15.0755208333333 13.6484375  14.7890625 13.8203125  C 14.5026041666667 13.9921875  14.28125 14.1197916666667  14.125 14.203125  C 13.96875 14.2864583333333  13.7578125 14.390625  13.4921875 14.515625  C 13.2265625 14.640625  12.9713541666667 14.7291666666667  12.7265625 14.78125  C 12.4817708333333 14.8333333333333  12.2395833333333 14.859375  12 14.859375  C 11.7604166666667 14.859375  11.5182291666667 14.8333333333333  11.2734375 14.78125  C 11.0286458333333 14.7291666666667  10.7734375 14.640625  10.5078125 14.515625  C 10.2421875 14.390625  10.03125 14.2864583333333  9.875 14.203125  C 9.71875 14.1197916666667  9.49739583333333 13.9921875  9.2109375 13.8203125  C 8.92447916666667 13.6484375  8.75 13.5416666666667  8.6875 13.5  C 8.15625 13.5  7.68229166666667 13.6171875  7.265625 13.8515625  C 6.84895833333333 14.0859375  6.515625 14.3880208333333  6.265625 14.7578125  C 6.015625 15.1276041666667  5.80989583333333 15.5755208333333  5.6484375 16.1015625  C 5.48697916666667 16.6276041666667  5.37760416666667 17.1510416666667  5.3203125 17.671875  C 5.26302083333333 18.1927083333333  5.234375 18.75  5.234375 19.34375  C 5.234375 20.1041666666667  5.453125 20.7369791666667  5.890625 21.2421875  C 6.328125 21.7473958333333  6.86458333333333 22  7.5 22  L 16.5 22  C 17.1354166666667 22  17.671875 21.7473958333333  18.109375 21.2421875  Z M 14.8671875 12.921875  C 15.6640625 12.1302083333333  16.0625 11.1770833333333  16.0625 10.0625  C 16.0625 8.9375  15.6640625 7.97916666666666  14.8671875 7.1875  C 14.0703125 6.39583333333333  13.1145833333333 6  12 6  C 10.8854166666667 6  9.9296875 6.39583333333333  9.1328125 7.1875  C 8.3359375 7.97916666666666  7.9375 8.9375  7.9375 10.0625  C 7.9375 11.1770833333333  8.3359375 12.1302083333333  9.1328125 12.921875  C 9.9296875 13.7135416666667  10.8854166666667 14.109375  12 14.109375  C 13.1145833333333 14.109375  14.0703125 13.7135416666667  14.8671875 12.921875  Z M 25.859375 18.140625  C 25.953125 18.234375  26 18.3541666666667  26 18.5  L 26 21.5  C 26 21.6458333333333  25.953125 21.765625  25.859375 21.859375  C 25.765625 21.953125  25.6458333333333 22  25.5 22  L 24 22  L 24 25.5  C 24 26.1875  23.7552083333333 26.7760416666667  23.265625 27.265625  C 22.7760416666667 27.7552083333333  22.1875 28  21.5 28  L 2.5 28  C 1.8125 28  1.22395833333333 27.7552083333333  0.734375 27.265625  C 0.244791666666667 26.7760416666667  0 26.1875  0 25.5  L 0 2.5  C 0 1.8125  0.244791666666667 1.22395833333333  0.734375 0.734375000000001  C 1.22395833333333 0.244791666666667  1.8125 0  2.5 0  L 21.5 0  C 22.1875 0  22.7760416666667 0.244791666666667  23.265625 0.734375000000001  C 23.7552083333333 1.22395833333333  24 1.8125  24 2.5  L 24 6  L 25.5 6  C 25.6458333333333 6  25.765625 6.046875  25.859375 6.140625  C 25.953125 6.234375  26 6.35416666666666  26 6.5  L 26 9.5  C 26 9.64583333333333  25.953125 9.765625  25.859375 9.859375  C 25.765625 9.953125  25.6458333333333 10  25.5 10  L 24 10  L 24 12  L 25.5 12  C 25.6458333333333 12  25.765625 12.046875  25.859375 12.140625  C 25.953125 12.234375  26 12.3541666666667  26 12.5  L 26 15.5  C 26 15.6458333333333  25.953125 15.765625  25.859375 15.859375  C 25.765625 15.953125  25.6458333333333 16  25.5 16  L 24 16  L 24 18  L 25.5 18  C 25.6458333333333 18  25.765625 18.046875  25.859375 18.140625  Z " fill-rule="nonzero" fill="#000000" stroke="none" transform="matrix(1 0 0 1 290 204 )" />
  </g>
</svg>