<?xml version="1.0" encoding="utf-8"?>
<svg version="1.1" xmlns:xlink="http://www.w3.org/1999/xlink" width="21px" height="17px" xmlns="http://www.w3.org/2000/svg">
  <g transform="matrix(1 0 0 1 -552 -61 )">
    <path d="M 5.49073170731707 6.53846153846154  L 2.18195121951219 6.53846153846154  L 8.56390243902439 13.3323317307692  L 5.49073170731707 6.53846153846154  Z M 6.92487804878049 6.53846153846154  L 10.5 14.4254807692308  L 14.0751219512195 6.53846153846154  L 6.92487804878049 6.53846153846154  Z M 1.97707317073171 5.23076923076923  L 5.52146341463415 5.23076923076923  L 7.61121951219512 1.30769230769231  L 4.92731707317073 1.30769230769231  L 1.97707317073171 5.23076923076923  Z M 15.5092682926829 6.53846153846154  L 12.4360975609756 13.3323317307692  L 18.8180487804878 6.53846153846154  L 15.5092682926829 6.53846153846154  Z M 9.09658536585366 1.30769230769231  L 7.00682926829268 5.23076923076923  L 13.9931707317073 5.23076923076923  L 11.9034146341463 1.30769230769231  L 9.09658536585366 1.30769230769231  Z M 13.3887804878049 1.30769230769231  L 15.4785365853659 5.23076923076923  L 19.0229268292683 5.23076923076923  L 16.0726829268293 1.30769230769231  L 13.3887804878049 1.30769230769231  Z M 16.4004878048781 0  C 16.6258536585366 0  16.8 0.0885416666666654  16.9229268292683 0.265625  L 20.8565853658537 5.49639423076923  C 20.9521951219512 5.61899038461538  20.9965853658537 5.76031650641026  20.989756097561 5.92037259615385  C 20.9829268292683 6.08042868589743  20.9248780487805 6.21834935897436  20.8156097560976 6.33413461538462  L 10.9814634146341 16.7956730769231  C 10.8585365853659 16.931891025641  10.6980487804878 17  10.5 17  C 10.3019512195122 17  10.1414634146341 16.931891025641  10.0185365853659 16.7956730769231  L 0.184390243902439 6.33413461538462  C 0.0751219512195122 6.21834935897436  0.0170731707317073 6.08042868589743  0.0102439024390244 5.92037259615385  C 0.00341463414634146 5.76031650641026  0.0478048780487805 5.61899038461538  0.143414634146341 5.49639423076923  L 4.07707317073171 0.265625  C 4.2 0.0885416666666654  4.37414634146341 0  4.59951219512195 0  L 16.4004878048781 0  Z " fill-rule="nonzero" fill="#000000" stroke="none" transform="matrix(1 0 0 1 552 61 )" />
  </g>
</svg>