<?xml version="1.0" encoding="utf-8"?>
<svg version="1.1" xmlns:xlink="http://www.w3.org/1999/xlink" width="44px" height="44px" xmlns="http://www.w3.org/2000/svg">
  <defs>
    <mask fill="white" id="clip1">
      <path d="M 222 358  C 209.79 358  200 348.21  200 336  L 200 336  C 200 323.79  209.79 314  222 314  L 222 314  C 234.21 314  244 323.79  244 336  L 244 336  C 244 348.21  234.21 358  222 358  " fill-rule="evenodd" />
    </mask>
  </defs>
  <g transform="matrix(1 0 0 1 -200 -314 )">
    <path d="M 200 314  L 244 314  L 244 358  L 200 358  L 200 314  " fill-rule="nonzero" fill="#cccccc" stroke="none" mask="url(#clip1)" />
    <path d="M 203 317  L 241 317  L 241 355  L 203 355  L 203 317  " fill-rule="nonzero" fill="#ffffff" stroke="none" mask="url(#clip1)" />
    <path d="M 226.18 327.2  C 224.332 327.2  222.88 325.748  222.88 323.9  C 222.88 322.052  224.332 320.6  226.18 320.6  C 228.028 320.6  229.48 322.052  229.48 323.9  C 229.48 325.748  228.028 327.2  226.18 327.2  " fill-rule="nonzero" fill="#cccccc" stroke="none" mask="url(#clip1)" />
    <path d="M 204 354  L 204 334.2  L 213 325.2  L 225.6 332.4  L 232.8 330.6  L 240 332.4  L 240 354  L 204 354  " fill-rule="nonzero" fill="#169bd5" stroke="none" mask="url(#clip1)" />
  </g>
</svg>