<?xml version="1.0" encoding="utf-8"?>
<svg version="1.1" xmlns:xlink="http://www.w3.org/1999/xlink" width="26px" height="26px" xmlns="http://www.w3.org/2000/svg">
  <g transform="matrix(1 0 0 1 -61 -63 )">
    <path d="M 25.6783854166667 21.1859375  C 25.8927951388889 21.4432291666667  26 21.7479166666667  26 22.1  L 26 24.7  C 26 25.0520833333333  25.8927951388889 25.3567708333333  25.6783854166667 25.6140625  C 25.4639756944444 25.8713541666667  25.2100694444444 26  24.9166666666667 26  L 1.08333333333333 26  C 0.789930555555556 26  0.536024305555556 25.8713541666667  0.321614583333333 25.6140625  C 0.107204861111111 25.3567708333333  0 25.0520833333333  0 24.7  L 0 22.1  C 0 21.7479166666667  0.107204861111111 21.4432291666667  0.321614583333333 21.1859375  C 0.536024305555556 20.9286458333333  0.789930555555556 20.8  1.08333333333333 20.8  L 24.9166666666667 20.8  C 25.2100694444444 20.8  25.4639756944444 20.9286458333333  25.6783854166667 21.1859375  Z M 25.6783854166667 10.7859375  C 25.8927951388889 11.0432291666667  26 11.3479166666667  26 11.7  L 26 14.3  C 26 14.6520833333333  25.8927951388889 14.9567708333333  25.6783854166667 15.2140625  C 25.4639756944444 15.4713541666667  25.2100694444444 15.6  24.9166666666667 15.6  L 1.08333333333333 15.6  C 0.789930555555556 15.6  0.536024305555556 15.4713541666667  0.321614583333333 15.2140625  C 0.107204861111111 14.9567708333333  0 14.6520833333333  0 14.3  L 0 11.7  C 0 11.3479166666667  0.107204861111111 11.0432291666667  0.321614583333333 10.7859375  C 0.536024305555556 10.5286458333333  0.789930555555556 10.4  1.08333333333333 10.4  L 24.9166666666667 10.4  C 25.2100694444444 10.4  25.4639756944444 10.5286458333333  25.6783854166667 10.7859375  Z M 25.6783854166667 0.385937500000001  C 25.8927951388889 0.643229166666665  26 0.947916666666665  26 1.3  L 26 3.9  C 26 4.25208333333333  25.8927951388889 4.55677083333333  25.6783854166667 4.8140625  C 25.4639756944444 5.07135416666666  25.2100694444444 5.2  24.9166666666667 5.2  L 1.08333333333333 5.2  C 0.789930555555556 5.2  0.536024305555556 5.07135416666666  0.321614583333333 4.8140625  C 0.107204861111111 4.55677083333333  0 4.25208333333333  0 3.9  L 0 1.3  C 0 0.947916666666665  0.107204861111111 0.643229166666665  0.321614583333333 0.385937500000001  C 0.536024305555556 0.128645833333332  0.789930555555556 0  1.08333333333333 0  L 24.9166666666667 0  C 25.2100694444444 0  25.4639756944444 0.128645833333332  25.6783854166667 0.385937500000001  Z " fill-rule="nonzero" fill="#000000" stroke="none" transform="matrix(1 0 0 1 61 63 )" />
  </g>
</svg>