<?xml version="1.0" encoding="utf-8"?>
<svg version="1.1" xmlns:xlink="http://www.w3.org/1999/xlink" width="26px" height="26px" xmlns="http://www.w3.org/2000/svg">
  <g transform="matrix(1 0 0 1 -151 -1072 )">
    <path d="M 17.9427083333333 0.986607142857144  L 24.8489583333333 6.90625  C 25.0069444444444 7.04166666666666  25.1649305555556 7.21577380952381  25.3229166666667 7.42857142857143  L 17.3333333333333 7.42857142857143  L 17.3333333333333 0.580357142857144  C 17.5815972222222 0.715773809523808  17.7847222222222 0.851190476190473  17.9427083333333 0.986607142857144  Z M 15.640625 8.87946428571428  C 15.9565972222222 9.15029761904762  16.3402777777778 9.28571428571428  16.7916666666667 9.28571428571428  L 26 9.28571428571428  L 26 24.6071428571429  C 26 24.9940476190476  25.8420138888889 25.3229166666667  25.5260416666667 25.59375  C 25.2100694444444 25.8645833333333  24.8263888888889 26  24.375 26  L 1.625 26  C 1.17361111111111 26  0.789930555555556 25.8645833333333  0.473958333333333 25.59375  C 0.157986111111111 25.3229166666667  0 24.9940476190476  0 24.6071428571429  L 0 1.39285714285714  C 0 1.00595238095238  0.157986111111111 0.677083333333332  0.473958333333333 0.40625  C 0.789930555555556 0.135416666666668  1.17361111111111 0  1.625 0  L 15.1666666666667 0  L 15.1666666666667 7.89285714285714  C 15.1666666666667 8.2797619047619  15.3246527777778 8.60863095238095  15.640625 8.87946428571428  Z M 19.34765625 20.2979910714286  C 19.44921875 20.2109375  19.5 20.0997023809524  19.5 19.9642857142857  L 19.5 19.0357142857143  C 19.5 18.9002976190476  19.44921875 18.7890625  19.34765625 18.7020089285714  C 19.24609375 18.6149553571429  19.1163194444444 18.5714285714286  18.9583333333333 18.5714285714286  L 7.04166666666667 18.5714285714286  C 6.88368055555556 18.5714285714286  6.75390625 18.6149553571429  6.65234375 18.7020089285714  C 6.55078125 18.7890625  6.5 18.9002976190476  6.5 19.0357142857143  L 6.5 19.9642857142857  C 6.5 20.0997023809524  6.55078125 20.2109375  6.65234375 20.2979910714286  C 6.75390625 20.3850446428571  6.88368055555556 20.4285714285714  7.04166666666667 20  L 18.9583333333333 20  C 19.1163194444444 20.4285714285714  19.24609375 20.3850446428571  19.34765625 20.2979910714286  Z M 19.34765625 16.5837053571429  C 19.44921875 16.4966517857143  19.5 16.3854166666667  19.5 16.25  L 19.5 15.3214285714286  C 19.5 15.1860119047619  19.44921875 15.0747767857143  19.34765625 14.9877232142857  C 19.24609375 14.9006696428571  19.1163194444444 14.8571428571429  18.9583333333333 14.8571428571429  L 7.04166666666667 14.8571428571429  C 6.88368055555556 14.8571428571429  6.75390625 14.9006696428571  6.65234375 14.9877232142857  C 6.55078125 15.0747767857143  6.5 15.1860119047619  6.5 15.3214285714286  L 6.5 16.25  C 6.5 16.3854166666667  6.55078125 16.4966517857143  6.65234375 16.5837053571429  C 6.75390625 16.6707589285714  6.88368055555556 16.7142857142857  7.04166666666667 16.7142857142857  L 18.9583333333333 16.7142857142857  C 19.1163194444444 16.7142857142857  19.24609375 16.6707589285714  19.34765625 16.5837053571429  Z M 19.34765625 12.8694196428571  C 19.44921875 12.7823660714286  19.5 12.671130952381  19.5 12.5357142857143  L 19.5 11.6071428571429  C 19.5 11.4717261904762  19.44921875 11.3604910714286  19.34765625 11.2734375  C 19.24609375 11.1863839285714  19.1163194444444 11.1428571428571  18.9583333333333 11.1428571428571  L 7.04166666666667 11.1428571428571  C 6.88368055555556 11.1428571428571  6.75390625 11.1863839285714  6.65234375 11.2734375  C 6.55078125 11.3604910714286  6.5 11.4717261904762  6.5 11.6071428571429  L 6.5 12.5357142857143  C 6.5 12.671130952381  6.55078125 12.7823660714286  6.65234375 12.8694196428571  C 6.75390625 12.9564732142857  6.88368055555556 13  7.04166666666667 13  L 18.9583333333333 13  C 19.1163194444444 13  19.24609375 12.9564732142857  19.34765625 12.8694196428571  Z " fill-rule="nonzero" fill="#000000" stroke="none" transform="matrix(1 0 0 1 151 1072 )" />
  </g>
</svg>