<?xml version="1.0" encoding="utf-8"?>
<svg version="1.1" xmlns:xlink="http://www.w3.org/1999/xlink" width="40px" height="38px" xmlns="http://www.w3.org/2000/svg">
  <defs>
    <mask fill="white" id="clip29">
      <path d="M 47 98  C 36.455 98  28 89.545  28 79  L 28 79  C 28 68.455  36.455 60  47 60  L 49 60  C 59.545 60  68 68.455  68 79  L 68 79  C 68 89.545  59.545 98  49 98  " fill-rule="evenodd" />
    </mask>
  </defs>
  <g transform="matrix(1 0 0 1 -28 -60 )">
    <path d="M 28 60  L 68 60  L 68 98  L 28 98  L 28 60  " fill-rule="nonzero" fill="#cccccc" stroke="none" mask="url(#clip29)" />
    <path d="M 31 63  L 65 63  L 65 95  L 31 95  L 31 63  " fill-rule="nonzero" fill="#ffffff" stroke="none" mask="url(#clip29)" />
    <path d="M 51.65 71.4  C 50.054 71.4  48.8 70.146  48.8 68.55  C 48.8 66.954  50.054 65.7  51.65 65.7  C 53.246 65.7  54.5 66.954  54.5 68.55  C 54.5 70.146  53.246 71.4  51.65 71.4  " fill-rule="nonzero" fill="#cccccc" stroke="none" mask="url(#clip29)" />
    <path d="M 32 94  L 32 77.5  L 40 70  L 51.2 76.9  L 57.6 74.5  L 64 76.9  L 64 94  L 32 94  " fill-rule="nonzero" fill="#169bd5" stroke="none" mask="url(#clip29)" />
  </g>
</svg>