<?xml version="1.0" encoding="utf-8"?>
<svg version="1.1" xmlns:xlink="http://www.w3.org/1999/xlink" width="169px" height="272px" xmlns="http://www.w3.org/2000/svg">
  <g transform="matrix(1 0 0 1 -64 -153 )">
    <path d="M 64 153  L 233 153  L 233 425  L 64 425  L 64 153  " fill-rule="nonzero" fill="#cccccc" stroke="none" />
    <path d="M 76 165  L 221 165  L 221 413  L 76 413  L 76 165  " fill-rule="nonzero" fill="#ffffff" stroke="none" />
    <path d="M 164.555 219.15  C 157.457 219.15  151.88 213.573  151.88 206.475  C 151.88 199.377  157.457 193.8  164.555 193.8  C 171.653 193.8  177.23 199.377  177.23 206.475  C 177.23 213.573  171.653 219.15  164.555 219.15  " fill-rule="nonzero" fill="#cccccc" stroke="none" />
    <path d="M 80 409  L 80 277  L 114.25 217  L 162.2 265  L 189.6 253  L 217 265  L 217 409  L 80 409  " fill-rule="nonzero" fill="#169bd5" stroke="none" />
  </g>
</svg>