<?xml version="1.0" encoding="utf-8"?>
<svg version="1.1" xmlns:xlink="http://www.w3.org/1999/xlink" width="15px" height="26px" xmlns="http://www.w3.org/2000/svg">
  <g transform="matrix(1 0 0 1 -564 -63 )">
    <path d="M 8.603515625 24.54765625  C 8.90950520833333 24.2294270833333  9.0625 23.846875  9.0625 23.4  C 9.0625 22.953125  8.90950520833333 22.5705729166667  8.603515625 22.25234375  C 8.29752604166667 21.9341145833333  7.9296875 21.775  7.5 21.775  C 7.0703125 21.775  6.70247395833333 21.9341145833333  6.396484375 22.25234375  C 6.09049479166667 22.5705729166667  5.9375 22.953125  5.9375 23.4  C 5.9375 23.846875  6.09049479166667 24.2294270833333  6.396484375 24.54765625  C 6.70247395833333 24.8658854166667  7.0703125 25.025  7.5 25.025  C 7.9296875 25.025  8.29752604166667 24.8658854166667  8.603515625 24.54765625  Z M 12.939453125 20.60703125  C 13.0631510416667 20.4783854166667  13.125 20.3260416666667  13 20.15  L 13 5.85  C 13.125 5.67395833333333  13.0631510416667 5.52161458333333  12.939453125 5.39296875  C 12.8157552083333 5.26432291666666  12.6692708333333 5.2  12.5 5.2  L 2.5 5.2  C 2.33072916666667 5.2  2.18424479166667 5.26432291666666  2.060546875 5.39296875  C 1.93684895833333 5.52161458333333  1.875 5.67395833333333  2 5.85  L 2 20.15  C 1.875 20.3260416666667  1.93684895833333 20.4783854166667  2.060546875 20.60703125  C 2.18424479166667 20.7356770833333  2.33072916666667 20.8  2.5 20.8  L 12.5 20.8  C 12.6692708333333 20.8  12.8157552083333 20.7356770833333  12.939453125 20.60703125  Z M 9.0625 3.25  C 9.27083333333334 3.25  9.375 3.14166666666666  9.375 2.925  C 9.375 2.70833333333333  9.27083333333334 2.6  9.0625 2.6  L 5.9375 2.6  C 5.72916666666667 2.6  5.625 2.70833333333333  5.625 2.925  C 5.625 3.14166666666666  5.72916666666667 3.25  5.9375 3.25  L 9.0625 3.25  Z M 14.2578125 0.771874999999999  C 14.7526041666667 1.28645833333333  15 1.89583333333333  15 2.6  L 15 23.4  C 15 24.1041666666667  14.7526041666667 24.7135416666667  14.2578125 25.228125  C 13.7630208333333 25.7427083333333  13.1770833333333 26  12.5 26  L 2.5 26  C 1.82291666666667 26  1.23697916666667 25.7427083333333  0.7421875 25.228125  C 0.247395833333333 24.7135416666667  0 24.1041666666667  0 23.4  L 0 2.6  C 0 1.89583333333333  0.247395833333333 1.28645833333333  0.7421875 0.771874999999999  C 1.23697916666667 0.257291666666664  1.82291666666667 0  2.5 0  L 12.5 0  C 13.1770833333333 0  13.7630208333333 0.257291666666664  14.2578125 0.771874999999999  Z " fill-rule="nonzero" fill="#000000" stroke="none" transform="matrix(1 0 0 1 564 63 )" />
  </g>
</svg>