<?xml version="1.0" encoding="utf-8"?>
<svg version="1.1" xmlns:xlink="http://www.w3.org/1999/xlink" width="53px" height="51px" xmlns="http://www.w3.org/2000/svg">
  <g transform="matrix(1 0 0 1 -509 -98 )">
    <path d="M 509 98  L 562 98  L 562 149  L 509 149  L 509 98  " fill-rule="nonzero" fill="#cccccc" stroke="none" />
    <path d="M 513 102  L 558 102  L 558 145  L 513 145  L 513 102  " fill-rule="nonzero" fill="#ffffff" stroke="none" />
    <path d="M 540.385 113.3  C 538.243 113.3  536.56 111.617  536.56 109.475  C 536.56 107.333  538.243 105.65  540.385 105.65  C 542.527 105.65  544.21 107.333  544.21 109.475  C 544.21 111.617  542.527 113.3  540.385 113.3  " fill-rule="nonzero" fill="#cccccc" stroke="none" />
    <path d="M 515 144  L 515 122  L 525.5 112  L 540.2 120.905660377358  L 548.6 118  L 557 120.905660377358  L 557 144  L 515 144  " fill-rule="nonzero" fill="#169bd5" stroke="none" />
  </g>
</svg>