<?xml version="1.0" encoding="utf-8"?>
<svg version="1.1" xmlns:xlink="http://www.w3.org/1999/xlink" width="17px" height="13px" xmlns="http://www.w3.org/2000/svg">
  <g transform="matrix(1 0 0 1 -220 -82 )">
    <path d="M 1.41666666666667 0  L 15.5833333333333 0  C 15.9729166666667 0  16.3064236111111 0.13259548611111  16.5838541666667 0.397786458333334  C 16.8612847222222 0.662977430555555  17 0.981770833333334  17 1.35416666666667  L 17 11.6458333333333  C 17 12.0182291666667  16.8612847222222 12.3370225694444  16.5838541666667 12.6022135416667  C 16.3064236111111 12.8674045138889  15.9729166666667 13  15.5833333333333 13  L 1.41666666666667 13  C 1.02708333333333 13  0.693576388888889 12.8674045138889  0.416145833333333 12.6022135416667  C 0.138715277777778 12.3370225694444  0 12.0182291666667  0 11.6458333333333  L 0 1.35416666666667  C 0 0.981770833333334  0.138715277777778 0.662977430555555  0.416145833333333 0.397786458333334  C 0.693576388888889 0.13259548611111  1.02708333333333 0  1.41666666666667 0  Z M 15.5833333333333 1  L 1.41666666666667 1  C 1.33993055555556 1.08333333333333  1.27352430555556 1.11013454861111  1.21744791666667 1.16373697916667  C 1.16137152777778 1.21733940972222  1.13333333333333 1.28081597222222  1.13333333333333 1.35416666666667  L 1.13333333333333 3.25  L 15.8666666666667 3.25  L 15.8666666666667 1.35416666666667  C 15.8666666666667 1.28081597222222  15.8386284722222 1.21733940972222  15.7825520833333 1.16373697916667  C 15.7264756944444 1.11013454861111  15.6600694444444 1.08333333333333  15.5833333333333 1  Z M 1.41666666666667 12  L 15.5833333333333 12  C 15.6600694444444 11.9166666666667  15.7264756944444 11.8898654513889  15.7825520833333 11.8362630208333  C 15.8386284722222 11.7826605902778  15.8666666666667 11.7191840277778  15.8666666666667 11.6458333333333  L 15.8666666666667 6.5  L 1.13333333333333 6.5  L 1.13333333333333 11.6458333333333  C 1.13333333333333 11.7191840277778  1.16137152777778 11.7826605902778  1.21744791666667 11.8362630208333  C 1.27352430555556 11.8898654513889  1.33993055555556 11.9166666666667  1.41666666666667 12  Z M 4.53333333333333 10.8333333333333  L 2.26666666666667 10.8333333333333  L 2.26666666666667 9.75  L 4.53333333333333 9.75  L 4.53333333333333 10.8333333333333  Z M 9.06666666666667 10.8333333333333  L 5.66666666666667 10.8333333333333  L 5.66666666666667 9.75  L 9.06666666666667 9.75  L 9.06666666666667 10.8333333333333  Z " fill-rule="nonzero" fill="#000000" stroke="none" transform="matrix(1 0 0 1 220 82 )" />
  </g>
</svg>