<?xml version="1.0" encoding="utf-8"?>
<svg version="1.1" xmlns:xlink="http://www.w3.org/1999/xlink" width="178px" height="104px" xmlns="http://www.w3.org/2000/svg">
  <g transform="matrix(1 0 0 1 -879 -185 )">
    <path d="M 879 185  L 1057 185  L 1057 289  L 879 289  L 879 185  " fill-rule="nonzero" fill="#cccccc" stroke="none" />
    <path d="M 886 192  L 1050 192  L 1050 282  L 886 282  L 886 192  " fill-rule="nonzero" fill="#ffffff" stroke="none" />
    <path d="M 979.36 216.2  C 974.992 216.2  971.56 212.768  971.56 208.4  C 971.56 204.032  974.992 200.6  979.36 200.6  C 983.728 200.6  987.16 204.032  987.16 208.4  C 987.16 212.768  983.728 216.2  979.36 216.2  " fill-rule="nonzero" fill="#cccccc" stroke="none" />
    <path d="M 889 280  L 889 233.25  L 928.75 212  L 984.4 250.202247191011  L 1016.2 224.75  L 1048 250.202247191011  L 1048 280  L 889 280  " fill-rule="nonzero" fill="#169bd5" stroke="none" />
  </g>
</svg>