<?xml version="1.0" encoding="utf-8"?>
<svg version="1.1" xmlns:xlink="http://www.w3.org/1999/xlink" width="23px" height="18px" xmlns="http://www.w3.org/2000/svg">
  <g transform="matrix(1 0 0 1 -156 -590 )">
    <path d="M 1.91666666666667 0  L 21.0833333333333 0  C 21.6104166666667 0  22.0616319444444 0.183593749999998  22.4369791666667 0.550781250000001  C 22.8123263888889 0.917968749999999  23 1.359375  23 1.875  L 23 16.125  C 23 16.640625  22.8123263888889 17.08203125  22.4369791666667 17.44921875  C 22.0616319444444 17.81640625  21.6104166666667 18  21.0833333333333 18  L 1.91666666666667 18  C 1.38958333333333 18  0.938368055555556 17.81640625  0.563020833333333 17.44921875  C 0.187673611111111 17.08203125  0 16.640625  0 16.125  L 0 1.875  C 0 1.359375  0.187673611111111 0.917968749999999  0.563020833333333 0.550781250000001  C 0.938368055555556 0.183593749999998  1.38958333333333 0  1.91666666666667 0  Z M 21.0833333333333 1.5  L 1.91666666666667 1.5  C 1.81284722222222 1.5  1.72300347222222 1.537109375  1.64713541666667 1.611328125  C 1.57126736111111 1.685546875  1.53333333333333 1.7734375  1.53333333333333 1.875  L 1.53333333333333 4.5  L 21.4666666666667 4.5  L 21.4666666666667 1.875  C 21.4666666666667 1.7734375  21.4287326388889 1.685546875  21.3528645833333 1.611328125  C 21.2769965277778 1.537109375  21.1871527777778 1.5  21.0833333333333 1.5  Z M 1.91666666666667 16.5  L 21.0833333333333 16.5  C 21.1871527777778 16.5  21.2769965277778 16.462890625  21.3528645833333 16.388671875  C 21.4287326388889 16.314453125  21.4666666666667 16.2265625  21.4666666666667 16.125  L 21.4666666666667 9  L 1.53333333333333 9  L 1.53333333333333 16.125  C 1.53333333333333 16.2265625  1.57126736111111 16.314453125  1.64713541666667 16.388671875  C 1.72300347222222 16.462890625  1.81284722222222 16.5  1.91666666666667 16.5  Z M 6.13333333333333 15  L 3.06666666666667 15  L 3.06666666666667 13.5  L 6.13333333333333 13.5  L 6.13333333333333 15  Z M 12.2666666666667 15  L 7.66666666666667 15  L 7.66666666666667 13.5  L 12.2666666666667 13.5  L 12.2666666666667 15  Z " fill-rule="nonzero" fill="#000000" stroke="none" transform="matrix(1 0 0 1 156 590 )" />
  </g>
</svg>