<?xml version="1.0" encoding="utf-8"?>
<svg version="1.1" xmlns:xlink="http://www.w3.org/1999/xlink" width="26px" height="26px" xmlns="http://www.w3.org/2000/svg">
  <g transform="matrix(1 0 0 1 -12 -62 )">
    <path d="M 16.0638020833333 16.0638020833333  C 16.91015625 15.2174479166667  17.3333333333333 14.1961805555556  17.3333333333333 13  C 17.3333333333333 11.8038194444444  16.91015625 10.7825520833333  16.0638020833333 9.93619791666667  C 15.2174479166667 9.08984375  14.1961805555556 8.66666666666667  13 8.66666666666667  C 11.8038194444444 8.66666666666667  10.7825520833333 9.08984375  9.93619791666667 9.93619791666667  C 9.08984375 10.7825520833333  8.66666666666667 11.8038194444444  8.66666666666667 13  C 8.66666666666667 14.1961805555556  9.08984375 15.2174479166667  9.93619791666667 16.0638020833333  C 10.7825520833333 16.91015625  11.8038194444444 17.3333333333333  13 17.3333333333333  C 14.1961805555556 17.3333333333333  15.2174479166667 16.91015625  16.0638020833333 16.0638020833333  Z M 25.8645833333333 10.7571614583333  C 25.9548611111111 10.8756510416667  26 11.0082465277778  26 11.1549479166667  L 26 14.9127604166667  C 26 15.0481770833333  25.9548611111111 15.1779513888889  25.8645833333333 15.3020833333333  C 25.7743055555556 15.4262152777778  25.6614583333333 15.4995659722222  25.5260416666667 15.5221354166667  L 22.39453125 15.99609375  C 22.1801215277778 16.60546875  21.9600694444444 17.1189236111111  21.734375 17.5364583333333  C 22.1293402777778 18.1006944444444  22.7330729166667 18.8793402777778  23.5455729166667 19.8723958333333  C 23.6584201388889 20.0078125  23.71484375 20.1488715277778  23.71484375 20.2955729166667  C 23.71484375 20.4422743055556  23.6640625 20.5720486111111  23.5625 20.6848958333333  C 23.2578125 21.1024305555556  22.69921875 21.7118055555556  21.88671875 22.5130208333333  C 21.07421875 23.3142361111111  20.5438368055556 23.71484375  20.2955729166667 23.71484375  C 20.16015625 23.71484375  20.0134548611111 23.6640625  19.85546875 23.5625  L 17.51953125 21.734375  C 17.0230034722222 21.9939236111111  16.5095486111111 22.2083333333333  15.9791666666667 22.3776041666667  C 15.7986111111111 23.9123263888889  15.6349826388889 24.9618055555556  15.48828125 25.5260416666667  C 15.4092881944444 25.8420138888889  15.2061631944444 26  14.87890625 26  L 11.12109375 26  C 10.9631076388889 26  10.8248697916667 25.9520399305556  10.7063802083333 25.8561197916667  C 10.587890625 25.7601996527778  10.5230034722222 25.6388888888889  10.51171875 25.4921875  L 10.0377604166667 22.3776041666667  C 9.48480902777778 22.1970486111111  8.97699652777778 21.98828125  8.51432291666667 21.7513020833333  L 6.12760416666667 23.5625  C 6.01475694444444 23.6640625  5.87369791666667 23.71484375  5.70442708333333 23.71484375  C 5.54644097222222 23.71484375  5.40538194444444 23.6527777777778  5.28125 23.5286458333333  C 3.859375 22.2421875  2.92838541666667 21.2942708333333  2.48828125 20.6848958333333  C 2.40928819444444 20.5720486111111  2.36979166666667 20.4422743055556  2.36979166666667 20.2955729166667  C 2.36979166666667 20.16015625  2.41493055555556 20.0303819444444  2.50520833333333 19.90625  C 2.67447916666667 19.6692708333333  2.96223958333333 19.2940538194444  3.36848958333333 18.7805989583333  C 3.77473958333333 18.2671440972222  4.07942708333333 17.8693576388889  4.28255208333333 17.5872395833333  C 3.97786458333333 17.0230034722222  3.74652777777778 16.4644097222222  3.58854166666667 15.9114583333333  L 0.490885416666667 15.4544270833333  C 0.344184027777778 15.4318576388889  0.225694444444444 15.361328125  0.135416666666667 15.2428385416667  C 0.0451388888888889 15.1243489583333  0 14.9917534722222  0 14.8450520833333  L 0 11.0872395833333  C 0 10.9518229166667  0.0451388888888889 10.8220486111111  0.135416666666667 10.6979166666667  C 0.225694444444444 10.5737847222222  0.332899305555556 10.5004340277778  0.45703125 10.4778645833333  L 3.60546875 10.00390625  C 3.76345486111111 9.48480902777778  3.98350694444444 8.96571180555556  4.265625 8.44661458333333  C 3.81423611111111 7.80338541666667  3.21050347222222 7.02473958333333  2.45442708333333 6.11067708333333  C 2.34157986111111 5.97526041666667  2.28515625 5.83984375  2.28515625 5.70442708333333  C 2.28515625 5.59157986111111  2.3359375 5.46180555555555  2.4375 5.31510416666667  C 2.73090277777778 4.90885416666667  3.28667534722222 4.30230034722222  4.10481770833333 3.49544270833333  C 4.92296006944444 2.68858506944444  5.45616319444444 2.28515625  5.70442708333333 2.28515625  C 5.85112847222222 2.28515625  5.99782986111111 2.34157986111111  6.14453125 2.45442708333333  L 8.48046875 4.265625  C 8.97699652777778 4.00607638888889  9.49045138888889 3.79166666666667  10.0208333333333 3.62239583333333  C 10.2013888888889 2.08767361111111  10.3650173611111 1.03819444444444  10.51171875 0.473958333333332  C 10.5907118055556 0.15798611111111  10.7938368055556 0  11.12109375 0  L 14.87890625 0  C 15.0368923611111 0  15.1751302083333 0.0479600694444422  15.2936197916667 0.143880208333332  C 15.412109375 0.23980034722222  15.4769965277778 0.36111111111111  15.48828125 0.5078125  L 15.9622395833333 3.62239583333333  C 16.5151909722222 3.80295138888889  17.0230034722222 4.01171875  17.4856770833333 4.24869791666667  L 19.8893229166667 2.4375  C 19.9908854166667 2.3359375  20.1263020833333 2.28515625  20.2955729166667 2.28515625  C 20.4422743055556 2.28515625  20.5833333333333 2.34157986111111  20.71875 2.45442708333333  C 22.1744791666667 3.79730902777778  23.10546875 4.75651041666667  23.51171875 5.33203125  C 23.5907118055556 5.42230902777778  23.6302083333333 5.54644097222222  23.6302083333333 5.70442708333333  C 23.6302083333333 5.83984375  23.5850694444444 5.96961805555555  23.4947916666667 6.09375  C 23.3255208333333 6.33072916666667  23.0377604166667 6.70594618055555  22.6315104166667 7.21940104166667  C 22.2252604166667 7.73285590277778  21.9205729166667 8.13064236111111  21.7174479166667 8.41276041666667  C 22.0108506944444 8.97699652777778  22.2421875 9.52994791666666  22.4114583333333 10.0716145833333  L 25.5091145833333 10.5455729166667  C 25.6558159722222 10.5681423611111  25.7743055555556 10.638671875  25.8645833333333 10.7571614583333  Z " fill-rule="nonzero" fill="#ffffff" stroke="none" transform="matrix(1 0 0 1 12 62 )" />
  </g>
</svg>