<?xml version="1.0" encoding="utf-8"?>
<svg version="1.1" xmlns:xlink="http://www.w3.org/1999/xlink" width="40px" height="29px" xmlns="http://www.w3.org/2000/svg">
  <g transform="matrix(1 0 0 1 -32 -5 )">
    <path d="M 32 5  L 72 5  L 72 34  L 32 34  L 32 5  " fill-rule="nonzero" fill="#cccccc" stroke="none" />
    <path d="M 34 7  L 70 7  L 70 32  L 34 32  L 34 7  " fill-rule="nonzero" fill="#ffffff" stroke="none" />
    <path d="M 54.975 13.7  C 53.757 13.7  52.8 12.743  52.8 11.525  C 52.8 10.307  53.757 9.35  54.975 9.35  C 56.193 9.35  57.15 10.307  57.15 11.525  C 57.15 12.743  56.193 13.7  54.975 13.7  " fill-rule="nonzero" fill="#cccccc" stroke="none" />
    <path d="M 35 32  L 35 18.8  L 43.75 12.8  L 56 21.56  L 63 16.4  L 70 21.56  L 70 32  L 35 32  " fill-rule="nonzero" fill="#169bd5" stroke="none" />
  </g>
</svg>