<?xml version="1.0" encoding="utf-8"?>
<svg version="1.1" xmlns:xlink="http://www.w3.org/1999/xlink" width="104px" height="104px" xmlns="http://www.w3.org/2000/svg">
  <g transform="matrix(1 0 0 1 -546 -107 )">
    <path d="M 546 107  L 650 107  L 650 211  L 546 211  L 546 107  " fill-rule="nonzero" fill="#cccccc" stroke="none" />
    <path d="M 553 114  L 643 114  L 643 204  L 553 204  L 553 114  " fill-rule="nonzero" fill="#ffffff" stroke="none" />
    <path d="M 607.88 138.2  C 603.512 138.2  600.08 134.768  600.08 130.4  C 600.08 126.032  603.512 122.6  607.88 122.6  C 612.248 122.6  615.68 126.032  615.68 130.4  C 615.68 134.768  612.248 138.2  607.88 138.2  " fill-rule="nonzero" fill="#cccccc" stroke="none" />
    <path d="M 556 202  L 556 155.25  L 577.25 134  L 607 151  L 624 146.75  L 641 151  L 641 202  L 556 202  " fill-rule="nonzero" fill="#169bd5" stroke="none" />
  </g>
</svg>