<?xml version="1.0" encoding="utf-8"?>
<svg version="1.1" xmlns:xlink="http://www.w3.org/1999/xlink" width="85px" height="85px" xmlns="http://www.w3.org/2000/svg">
  <g transform="matrix(1 0 0 1 -82 -14 )">
    <path d="M 82 14  L 167 14  L 167 99  L 82 99  L 82 14  " fill-rule="nonzero" fill="#cccccc" stroke="none" />
    <path d="M 88 20  L 161 20  L 161 93  L 88 93  L 88 20  " fill-rule="nonzero" fill="#ffffff" stroke="none" />
    <path d="M 132.575 39.5  C 129.005 39.5  126.2 36.695  126.2 33.125  C 126.2 29.555  129.005 26.75  132.575 26.75  C 136.145 26.75  138.95 29.555  138.95 33.125  C 138.95 36.695  136.145 39.5  132.575 39.5  " fill-rule="nonzero" fill="#cccccc" stroke="none" />
    <path d="M 90 91  L 90 53.05  L 107.25 35.8  L 131.4 49.6  L 145.2 46.15  L 159 49.6  L 159 91  L 90 91  " fill-rule="nonzero" fill="#169bd5" stroke="none" />
  </g>
</svg>