<?xml version="1.0" encoding="utf-8"?>
<svg version="1.1" xmlns:xlink="http://www.w3.org/1999/xlink" width="22px" height="22px" xmlns="http://www.w3.org/2000/svg">
  <g transform="matrix(1 0 0 1 -55 -698 )">
    <path d="M 6.72767857142857 0.871651785714285  C 8.08630952380952 0.290550595238095  9.51041666666667 0  11 0  C 12.4895833333333 0  13.9136904761905 0.290550595238095  15.2723214285714 0.871651785714285  C 16.6309523809524 1.45275297619048  17.8013392857143 2.234375  18.7834821428571 3.21651785714286  C 19.765625 4.19866071428571  20.5472470238095 5.36904761904762  21.1283482142857 6.72767857142857  C 21.7094494047619 8.08630952380952  22 9.51041666666667  22 11  C 22 12.4895833333333  21.7094494047619 13.9136904761905  21.1283482142857 15.2723214285714  C 20.5472470238095 16.6309523809524  19.765625 17.8013392857143  18.7834821428571 18.7834821428571  C 17.8013392857143 19.765625  16.6309523809524 20.5472470238095  15.2723214285714 21.1283482142857  C 13.9136904761905 21.7094494047619  12.4895833333333 22  11 22  C 9.51041666666667 22  8.08630952380952 21.7094494047619  6.72767857142857 21.1283482142857  C 5.36904761904762 20.5472470238095  4.19866071428571 19.765625  3.21651785714286 18.7834821428571  C 2.234375 17.8013392857143  1.45275297619048 16.6309523809524  0.871651785714286 15.2723214285714  C 0.290550595238095 13.9136904761905  0 12.4895833333333  0 11  C 0 9.51041666666667  0.290550595238095 8.08630952380952  0.871651785714286 6.72767857142857  C 1.45275297619048 5.36904761904762  2.234375 4.19866071428571  3.21651785714286 3.21651785714286  C 4.19866071428571 2.234375  5.36904761904762 1.45275297619048  6.72767857142857 0.871651785714285  Z M 15.4319196428571 2.67633928571429  C 14.0323660714286 1.93973214285714  12.5550595238095 1.57142857142857  11 1.57142857142857  C 9.44494047619048 1.57142857142857  7.96763392857143 1.93973214285714  6.56808035714286 2.67633928571429  L 8.94977678571428 5.05803571428571  C 9.62090773809524 4.82886904761905  10.3043154761905 4.71428571428571  11 4.71428571428571  C 11.6956845238095 4.71428571428571  12.3790922619048 4.82886904761905  13.0502232142857 5.05803571428571  L 15.4319196428571 2.67633928571429  Z M 1.57142857142857 11  C 1.57142857142857 12.5550595238095  1.93973214285714 14.0323660714286  2.67633928571429 15.4319196428571  L 5.05803571428571 13.0502232142857  C 4.82886904761905 12.3790922619048  4.71428571428571 11.6956845238095  4.71428571428571 11  C 4.71428571428571 10.3043154761905  4.82886904761905 9.62090773809524  5.05803571428571 8.94977678571428  L 2.67633928571429 6.56808035714286  C 1.93973214285714 7.96763392857143  1.57142857142857 9.44494047619048  1.57142857142857 11  Z M 6.56808035714286 19.3236607142857  C 7.96763392857143 20.0602678571429  9.44494047619048 20.4285714285714  11 20.4285714285714  C 12.5550595238095 20.4285714285714  14.0323660714286 20.0602678571429  15.4319196428571 19.3236607142857  L 13.0502232142857 16.9419642857143  C 12.3790922619048 17.171130952381  11.6956845238095 17.2857142857143  11 17.2857142857143  C 10.3043154761905 17.2857142857143  9.62090773809524 17.171130952381  8.94977678571428 16.9419642857143  L 6.56808035714286 19.3236607142857  Z M 7.66685267857143 14.3331473214286  C 8.58761160714286 15.25390625  9.69866071428572 15.7142857142857  11 15.7142857142857  C 12.3013392857143 15.7142857142857  13.4123883928571 15.25390625  14.3331473214286 14.3331473214286  C 15.25390625 13.4123883928571  15.7142857142857 12.3013392857143  15.7142857142857 11  C 15.7142857142857 9.69866071428572  15.25390625 8.58761160714286  14.3331473214286 7.66685267857143  C 13.4123883928571 6.74609375  12.3013392857143 6.28571428571429  11 6.28571428571429  C 9.69866071428572 6.28571428571429  8.58761160714286 6.74609375  7.66685267857143 7.66685267857143  C 6.74609375 8.58761160714286  6.28571428571429 9.69866071428572  6.28571428571429 11  C 6.28571428571429 12.3013392857143  6.74609375 13.4123883928571  7.66685267857143 14.3331473214286  Z M 17.2857142857143 11  C 17.2857142857143 11.6956845238095  17.171130952381 12.3790922619048  16.9419642857143 13.0502232142857  L 19.3236607142857 15.4319196428571  C 20.0602678571429 14.0323660714286  20.4285714285714 12.5550595238095  20.4285714285714 11  C 20.4285714285714 9.44494047619048  20.0602678571429 7.96763392857143  19.3236607142857 6.56808035714286  L 16.9419642857143 8.94977678571428  C 17.171130952381 9.62090773809524  17.2857142857143 10.3043154761905  17.2857142857143 11  Z " fill-rule="nonzero" fill="#333333" stroke="none" transform="matrix(1 0 0 1 55 698 )" />
  </g>
</svg>