<?xml version="1.0" encoding="utf-8"?>
<svg version="1.1" xmlns:xlink="http://www.w3.org/1999/xlink" width="53px" height="53px" xmlns="http://www.w3.org/2000/svg">
  <g transform="matrix(1 0 0 1 -240 -202 )">
    <path d="M 240 202  L 293 202  L 293 255  L 240 255  L 240 202  " fill-rule="nonzero" fill="#cccccc" stroke="none" />
    <path d="M 244 206  L 289 206  L 289 251  L 244 251  L 244 206  " fill-rule="nonzero" fill="#ffffff" stroke="none" />
    <path d="M 271.535 217.9  C 269.309 217.9  267.56 216.151  267.56 213.925  C 267.56 211.699  269.309 209.95  271.535 209.95  C 273.761 209.95  275.51 211.699  275.51 213.925  C 275.51 216.151  273.761 217.9  271.535 217.9  " fill-rule="nonzero" fill="#cccccc" stroke="none" />
    <path d="M 246 250  L 246 226.9  L 256.5 216.4  L 271.2 224.8  L 279.6 222.7  L 288 224.8  L 288 250  L 246 250  " fill-rule="nonzero" fill="#169bd5" stroke="none" />
  </g>
</svg>