<?xml version="1.0" encoding="utf-8"?>
<svg version="1.1" xmlns:xlink="http://www.w3.org/1999/xlink" width="22px" height="39px" xmlns="http://www.w3.org/2000/svg">
  <g transform="matrix(1 0 0 1 -156 -91 )">
    <path d="M 13.0269151138716 34.8577154308617  C 13.1787439613527 35.1182364729459  13.2546583850932 35.4178356713427  13.2546583850932 35.7565130260521  C 13.2546583850932 36.0951903807615  13.1787439613527 36.3947895791583  13.0269151138716 36.6553106212425  L 11.888198757764 38.6092184368737  C 11.736369910283 38.8697394789579  11.5617667356798 39  11.3643892339545 39  C 11.1670117322291 39  10.992408557626 38.8697394789579  10.8405797101449 38.6092184368737  L 0.227743271221532 20.3987975951904  C 0.0759144237405108 20.1382765531062  0 19.8386773547094  0 19.5  C 0 19.1613226452906  0.0759144237405108 18.8617234468938  0.227743271221532 18.6012024048096  L 10.8405797101449 0.390781563126253  C 10.992408557626 0.130260521042083  11.1670117322291 0  11.3643892339545 0  C 11.5617667356798 0  11.736369910283 0.130260521042083  11.888198757764 0.390781563126253  L 13.0269151138716 2.34468937875751  C 13.1787439613527 2.60521042084168  13.2546583850932 2.90480961923847  13.2546583850932 3.2434869739479  C 13.2546583850932 3.58216432865731  13.1787439613527 3.88176352705411  13.0269151138716 4.14228456913828  L 4.07660455486542 19.5  L 13.0269151138716 34.8577154308617  Z M 21.7722567287785 34.8577154308617  C 21.9240855762595 35.1182364729459  22 35.4178356713427  22 35.7565130260521  C 22 36.0951903807615  21.9240855762595 36.3947895791583  21.7722567287785 36.6553106212425  L 20.6335403726708 38.6092184368737  C 20.4817115251898 38.8697394789579  20.3071083505866 39  20.1097308488613 39  C 19.912353347136 39  19.7377501725328 38.8697394789579  19.5859213250518 38.6092184368737  L 8.97308488612837 20.3987975951904  C 8.82125603864734 20.1382765531062  8.74534161490683 19.8386773547094  8.74534161490683 19.5  C 8.74534161490683 19.1613226452906  8.82125603864734 18.8617234468938  8.97308488612837 18.6012024048096  L 19.5859213250518 0.390781563126253  C 19.7377501725328 0.130260521042083  19.912353347136 0  20.1097308488613 0  C 20.3071083505866 0  20.4817115251898 0.130260521042083  20.6335403726708 0.390781563126253  L 21.7722567287785 2.34468937875751  C 21.9240855762595 2.60521042084168  22 2.90480961923847  22 3.2434869739479  C 22 3.58216432865731  21.9240855762595 3.88176352705411  21.7722567287785 4.14228456913828  L 12.8219461697723 19.5  L 21.7722567287785 34.8577154308617  Z " fill-rule="nonzero" fill="#000000" stroke="none" transform="matrix(1 0 0 1 156 91 )" />
  </g>
</svg>