<?xml version="1.0" encoding="utf-8"?>
<svg version="1.1" xmlns:xlink="http://www.w3.org/1999/xlink" width="25px" height="28px" xmlns="http://www.w3.org/2000/svg">
  <g transform="matrix(1 0 0 1 -203 -168 )">
    <path d="M 17.2526041666667 1.0625  L 23.8932291666667 7.4375  C 24.0451388888889 7.58333333333333  24.1970486111111 7.77083333333333  24.3489583333333 8  L 16.6666666666667 8  L 16.6666666666667 0.625000000000001  C 16.9053819444444 0.770833333333332  17.1006944444444 0.916666666666663  17.2526041666667 1.0625  Z M 15.0390625 9.5625  C 15.3428819444444 9.85416666666666  15.7118055555556 10  16.1458333333333 10  L 25 10  L 25 26.5  C 25 26.9166666666667  24.8480902777778 27.2708333333333  24.5442708333333 27.5625  C 24.2404513888889 27.8541666666667  23.8715277777778 28  23.4375 28  L 1.5625 28  C 1.12847222222222 28  0.759548611111111 27.8541666666667  0.455729166666667 27.5625  C 0.151909722222222 27.2708333333333  0 26.9166666666667  0 26.5  L 0 1.5  C 0 1.08333333333333  0.151909722222222 0.729166666666666  0.455729166666667 0.4375  C 0.759548611111111 0.145833333333334  1.12847222222222 0  1.5625 0  L 14.5833333333333 0  L 14.5833333333333 8.5  C 14.5833333333333 8.91666666666666  14.7352430555556 9.27083333333333  15.0390625 9.5625  Z M 18.603515625 21.859375  C 18.701171875 21.765625  18.75 21.6458333333333  18.75 21.5  L 18.75 20.5  C 18.75 20.3541666666667  18.701171875 20.234375  18.603515625 20.140625  C 18.505859375 20.046875  18.3810763888889 20  18.2291666666667 20  L 6.77083333333333 20  C 6.61892361111111 20  6.494140625 20.046875  6.396484375 20.140625  C 6.298828125 20.234375  6.25 20.3541666666667  6.25 20.5  L 6.25 21.5  C 6.25 21.6458333333333  6.298828125 21.765625  6.396484375 21.859375  C 6.494140625 21.953125  6.61892361111111 22  6.77083333333333 22  L 18.2291666666667 22  C 18.3810763888889 22  18.505859375 21.953125  18.603515625 21.859375  Z M 18.603515625 17.859375  C 18.701171875 17.765625  18.75 17.6458333333333  18.75 17.5  L 18.75 16.5  C 18.75 16.3541666666667  18.701171875 16.234375  18.603515625 16.140625  C 18.505859375 16.046875  18.3810763888889 16  18.2291666666667 16  L 6.77083333333333 16  C 6.61892361111111 16  6.494140625 16.046875  6.396484375 16.140625  C 6.298828125 16.234375  6.25 16.3541666666667  6.25 16.5  L 6.25 17.5  C 6.25 17.6458333333333  6.298828125 17.765625  6.396484375 17.859375  C 6.494140625 17.953125  6.61892361111111 18  6.77083333333333 18  L 18.2291666666667 18  C 18.3810763888889 18  18.505859375 17.953125  18.603515625 17.859375  Z M 18.603515625 13.859375  C 18.701171875 13.765625  18.75 13.6458333333333  18.75 13.5  L 18.75 12.5  C 18.75 12.3541666666667  18.701171875 12.234375  18.603515625 12.140625  C 18.505859375 12.046875  18.3810763888889 12  18.2291666666667 12  L 6.77083333333333 12  C 6.61892361111111 12  6.494140625 12.046875  6.396484375 12.140625  C 6.298828125 12.234375  6.25 12.3541666666667  6.25 12.5  L 6.25 13.5  C 6.25 13.6458333333333  6.298828125 13.765625  6.396484375 13.859375  C 6.494140625 13.953125  6.61892361111111 14  6.77083333333333 14  L 18.2291666666667 14  C 18.3810763888889 14  18.505859375 13.953125  18.603515625 13.859375  Z " fill-rule="nonzero" fill="#000000" stroke="none" transform="matrix(1 0 0 1 203 168 )" />
  </g>
</svg>