<?xml version="1.0" encoding="utf-8"?>
<svg version="1.1" xmlns:xlink="http://www.w3.org/1999/xlink" width="26px" height="26px" xmlns="http://www.w3.org/2000/svg">
  <g transform="matrix(1 0 0 1 -12 -17 )">
    <path d="M 10.5790816326531 23.77578125  C 10.5680272108844 23.8502604166667  10.5790816326531 23.9416666666667  10.6122448979592 24.05  C 10.6122448979592 24.1041666666667  10.6177721088435 24.2395833333333  10.6288265306122 24.45625  C 10.639880952381 24.6729166666667  10.6426445578231 24.85234375  10.6371173469388 24.99453125  C 10.6315901360544 25.13671875  10.6150085034014 25.2958333333333  10.5873724489796 25.471875  C 10.5597363945578 25.6479166666667  10.5044642857143 25.7799479166667  10.421556122449 25.86796875  C 10.3386479591837 25.9559895833333  10.2253401360544 26  10.0816326530612 26  L 4.77551020408163 26  C 3.46003401360544 26  2.33524659863946 25.4278645833333  1.40114795918367 24.28359375  C 0.467049319727891 23.1393229166667  0 21.7614583333333  0 20.15  L 0 5.85  C 0 4.23854166666666  0.467049319727891 2.86067708333333  1.40114795918367 1.71640625  C 2.33524659863946 0.572135416666663  3.46003401360544 0  4.77551020408163 0  L 10.0816326530612 0  C 10.2253401360544 0  10.3497023809524 0.064322916666663  10.4547193877551 0.192968750000001  C 10.5597363945578 0.321614583333332  10.6122448979592 0.473958333333332  10.6122448979592 0.650000000000001  C 10.6122448979592 0.704166666666664  10.6177721088435 0.839583333333332  10.6288265306122 1.05625  C 10.639880952381 1.27291666666666  10.6426445578231 1.45234375  10.6371173469388 1.59453125  C 10.6315901360544 1.73671875  10.6150085034014 1.89583333333333  10.5873724489796 2.071875  C 10.5597363945578 2.24791666666666  10.5044642857143 2.37994791666666  10.421556122449 2.46796875  C 10.3386479591837 2.55598958333333  10.2253401360544 2.6  10.0816326530612 2.6  L 4.77551020408163 2.6  C 4.04591836734694 2.6  3.42134353741497 2.91822916666666  2.90178571428571 3.5546875  C 2.38222789115646 4.19114583333333  2.12244897959184 4.95625  2.12244897959184 5.85  L 2.12244897959184 20.15  C 2.12244897959184 21.04375  2.38222789115646 21.8088541666667  2.90178571428571 22.4453125  C 3.42134353741497 23.0817708333333  4.04591836734694 23.4  4.77551020408163 23.4  L 9.55102040816327 23.4  L 9.73341836734694 23.4  L 9.94897959183673 23.4  C 9.94897959183673 23.4  10.0125425170068 23.4067708333333  10.1396683673469 23.4203125  C 10.2667942176871 23.4338541666667  10.3303571428571 23.4541666666667  10.3303571428571 23.48125  C 10.3303571428571 23.5083333333333  10.374574829932 23.5455729166667  10.4630102040816 23.59296875  C 10.5514455782313 23.6403645833333  10.5901360544218 23.7013020833333  10.5790816326531 23.77578125  Z M 25.6849489795918 12.0859375  C 25.8949829931973 12.3432291666667  26 12.6479166666667  26 13  C 26 13.3520833333333  25.8949829931973 13.6567708333333  25.6849489795918 13.9140625  L 16.6645408163265 24.9640625  C 16.4545068027211 25.2213541666667  16.2057823129252 25.35  15.9183673469388 25.35  C 15.6309523809524 25.35  15.3822278911565 25.2213541666667  15.172193877551 24.9640625  C 14.9621598639456 24.7067708333333  14.8571428571429 24.4020833333333  14.8571428571429 24.05  L 14.8571428571429 18.2  L 7.42857142857143 18.2  C 7.14115646258503 18.2  6.89243197278912 18.0713541666667  6.68239795918367 17.8140625  C 6.47236394557823 17.5567708333333  6.36734693877551 17.2520833333333  6.36734693877551 16.9  L 6.36734693877551 9.1  C 6.36734693877551 8.74791666666666  6.47236394557823 8.44322916666666  6.68239795918367 8.1859375  C 6.89243197278912 7.92864583333333  7.14115646258503 7.8  7.42857142857143 7.8  L 14.8571428571429 7.8  L 14.8571428571429 1.95  C 14.8571428571429 1.59791666666666  14.9621598639456 1.29322916666666  15.172193877551 1.0359375  C 15.3822278911565 0.778645833333332  15.6309523809524 0.650000000000001  15.9183673469388 0.650000000000001  C 16.2057823129252 0.650000000000001  16.4545068027211 0.778645833333332  16.6645408163265 1.0359375  L 25.6849489795918 12.0859375  Z " fill-rule="nonzero" fill="#ffffff" stroke="none" transform="matrix(1 0 0 1 12 17 )" />
  </g>
</svg>