<?xml version="1.0" encoding="utf-8"?>
<svg version="1.1" xmlns:xlink="http://www.w3.org/1999/xlink" width="20px" height="20px" xmlns="http://www.w3.org/2000/svg">
  <g transform="matrix(1 0 0 1 -95 -1119 )">
    <path d="M 10.2059800664452 12.0052083333333  L 10.2059800664452 8.56770833333333  L 19.8405315614618 8.56770833333333  C 19.9468438538206 9.14930555555556  20 9.70486111111111  20 10.234375  C 20 12.1180555555556  19.5968992248062 13.7999131944444  18.7906976744186 15.2799479166667  C 17.984496124031 16.7599826388889  16.8349944629014 17.9166666666667  15.3421926910299 18.75  C 13.8493909191584 19.5833333333333  12.1373200442968 20  10.2059800664452 20  C 8.81506090808417 20  7.4905869324474 19.7374131944444  6.23255813953488 19.2122395833333  C 4.97452934662237 18.6870659722222  3.88925802879291 17.9774305555556  2.97674418604651 17.0833333333333  C 2.06423034330011 16.1892361111111  1.33997785160576 15.1258680555556  0.803986710963455 13.8932291666667  C 0.267995570321152 12.6605902777778  0 11.3628472222222  0 10  C 0 8.63715277777778  0.267995570321152 7.33940972222222  0.803986710963455 6.10677083333333  C 1.33997785160576 4.87413194444444  2.06423034330011 3.81076388888889  2.97674418604651 2.91666666666667  C 3.88925802879291 2.02256944444444  4.97452934662237 1.31293402777778  6.23255813953488 0.787760416666667  C 7.4905869324474 0.262586805555554  8.81506090808417 0  10.2059800664452 0  C 12.8637873754153 0  15.1450719822813 0.872395833333333  17.0498338870432 2.6171875  L 14.2724252491694 5.234375  C 13.1827242524917 4.20138888888889  11.8272425249169 3.68489583333333  10.2059800664452 3.68489583333333  C 9.06312292358804 3.68489583333333  8.00664451827243 3.96701388888889  7.03654485049834 4.53125  C 6.06644518272425 5.09548611111111  5.29789590254707 5.86154513888889  4.73089700996678 6.82942708333333  C 4.16389811738649 7.79730902777778  3.88039867109635 8.85416666666667  3.88039867109635 10  C 3.88039867109635 11.1458333333333  4.16389811738649 12.2026909722222  4.73089700996678 13.1705729166667  C 5.29789590254707 14.1384548611111  6.06644518272425 14.9045138888889  7.03654485049834 15.46875  C 8.00664451827243 16.0329861111111  9.06312292358804 16.3151041666667  10.2059800664452 16.3151041666667  C 10.9767441860465 16.3151041666667  11.6854928017719 16.2109375  12.3322259136213 16.0026041666667  C 12.9789590254707 15.7942708333333  13.5105204872647 15.5338541666667  13.9269102990033 15.2213541666667  C 14.343300110742 14.9088541666667  14.7065337763012 14.5529513888889  15.0166112956811 14.1536458333333  C 15.3266888150609 13.7543402777778  15.5548172757475 13.3767361111111  15.7009966777409 13.0208333333333  C 15.8471760797342 12.6649305555556  15.9468438538206 12.3263888888889  16 12.0052083333333  L 10.2059800664452 12.0052083333333  Z " fill-rule="nonzero" fill="#000000" stroke="none" transform="matrix(1 0 0 1 95 1119 )" />
  </g>
</svg>