<?xml version="1.0" encoding="utf-8"?>
<svg version="1.1" xmlns:xlink="http://www.w3.org/1999/xlink" width="20px" height="20px" xmlns="http://www.w3.org/2000/svg">
  <g transform="matrix(1 0 0 1 -157 -1119 )">
    <path d="M 3.75 0  L 16.25 0  C 17.2829861111111 0  18.1662326388889 0.366753472222221  18.8997395833333 1.10026041666667  C 19.6332465277778 1.83376736111111  20 2.71701388888889  20 3.75  L 20 16.25  C 20 17.2829861111111  19.6332465277778 18.1662326388889  18.8997395833333 18.8997395833333  C 18.1662326388889 19.6332465277778  17.2829861111111 20  16.25 20  L 13.8020833333333 20  L 13.8020833333333 12.2526041666667  L 16.3932291666667 12.2526041666667  L 16.7838541666667 9.23177083333333  L 13.8020833333333 9.23177083333333  L 13.8020833333333 7.3046875  C 13.8020833333333 6.81857638888889  13.9040798611111 6.45399305555555  14.1080729166667 6.2109375  C 14.3120659722222 5.96788194444444  14.7092013888889 5.84635416666667  15.2994791666667 5.84635416666667  L 16.8880208333333 5.83333333333333  L 16.8880208333333 3.13802083333333  C 16.3411458333333 3.05989583333333  15.5685763888889 3.02083333333333  14.5703125 3.02083333333333  C 13.3897569444444 3.02083333333333  12.4457465277778 3.36805555555555  11.73828125 4.0625  C 11.0308159722222 4.75694444444444  10.6770833333333 5.73784722222222  10.6770833333333 7.00520833333333  L 10.6770833333333 9.23177083333333  L 8.07291666666667 9.23177083333333  L 8.07291666666667 12.2526041666667  L 10.6770833333333 12.2526041666667  L 10.6770833333333 20  L 3.75 20  C 2.71701388888889 20  1.83376736111111 19.6332465277778  1.10026041666667 18.8997395833333  C 0.366753472222222 18.1662326388889  0 17.2829861111111  0 16.25  L 0 3.75  C 0 2.71701388888889  0.366753472222222 1.83376736111111  1.10026041666667 1.10026041666667  C 1.83376736111111 0.366753472222221  2.71701388888889 0  3.75 0  Z " fill-rule="nonzero" fill="#000000" stroke="none" transform="matrix(1 0 0 1 157 1119 )" />
  </g>
</svg>