<?xml version="1.0" encoding="utf-8"?>
<svg version="1.1" xmlns:xlink="http://www.w3.org/1999/xlink" width="22px" height="39px" xmlns="http://www.w3.org/2000/svg">
  <g transform="matrix(1 0 0 1 74 -87 )">
    <path d="M 13.0269151138716 18.6012024048096  C 13.1787439613527 18.8617234468938  13.2546583850932 19.1613226452906  13.2546583850932 19.5  C 13.2546583850932 19.8386773547094  13.1787439613527 20.1382765531062  13.0269151138716 20.3987975951904  L 2.41407867494824 38.6092184368737  C 2.26224982746722 38.8697394789579  2.08764665286404 39  1.89026915113872 39  C 1.69289164941339 39  1.51828847481021 38.8697394789579  1.36645962732919 38.6092184368737  L 0.227743271221532 36.6553106212425  C 0.0759144237405108 36.3947895791583  0 36.0951903807615  0 35.7565130260521  C 0 35.4178356713427  0.0759144237405108 35.1182364729459  0.227743271221532 34.8577154308617  L 9.17805383022774 19.5  L 0.227743271221532 4.14228456913828  C 0.0759144237405108 3.88176352705411  0 3.58216432865731  0 3.2434869739479  C 0 2.90480961923847  0.0759144237405108 2.60521042084168  0.227743271221532 2.34468937875751  L 1.36645962732919 0.390781563126253  C 1.51828847481021 0.130260521042083  1.69289164941339 0  1.89026915113872 0  C 2.08764665286404 0  2.26224982746722 0.130260521042083  2.41407867494824 0.390781563126253  L 13.0269151138716 18.6012024048096  Z M 21.7722567287785 18.6012024048096  C 21.9240855762595 18.8617234468938  22 19.1613226452906  22 19.5  C 22 19.8386773547094  21.9240855762595 20.1382765531062  21.7722567287785 20.3987975951904  L 11.1594202898551 38.6092184368737  C 11.0075914423741 38.8697394789579  10.8329882677709 39  10.6356107660455 39  C 10.4382332643202 39  10.263630089717 38.8697394789579  10.111801242236 38.6092184368737  L 8.97308488612837 36.6553106212425  C 8.82125603864734 36.3947895791583  8.74534161490683 36.0951903807615  8.74534161490683 35.7565130260521  C 8.74534161490683 35.4178356713427  8.82125603864734 35.1182364729459  8.97308488612837 34.8577154308617  L 17.9233954451346 19.5  L 8.97308488612837 4.14228456913828  C 8.82125603864734 3.88176352705411  8.74534161490683 3.58216432865731  8.74534161490683 3.2434869739479  C 8.74534161490683 2.90480961923847  8.82125603864734 2.60521042084168  8.97308488612837 2.34468937875751  L 10.111801242236 0.390781563126253  C 10.263630089717 0.130260521042083  10.4382332643202 0  10.6356107660455 0  C 10.8329882677709 0  11.0075914423741 0.130260521042083  11.1594202898551 0.390781563126253  L 21.7722567287785 18.6012024048096  Z " fill-rule="nonzero" fill="#000000" stroke="none" transform="matrix(1 0 0 1 -74 87 )" />
  </g>
</svg>