<?xml version="1.0" encoding="utf-8"?>
<svg version="1.1" xmlns:xlink="http://www.w3.org/1999/xlink" width="19px" height="20px" xmlns="http://www.w3.org/2000/svg">
  <g transform="matrix(1 0 0 1 -288 -1119 )">
    <path d="M 13.2337740384615 15.1729910714286  C 13.5534855769231 14.8121279761905  13.7133413461538 14.360119047619  13.7133413461538 13.8169642857143  C 13.7133413461538 13.3928571428571  13.6924078525641 12.9947916666667  13.6505408653846 12.6227678571429  C 13.6086738782051 12.250744047619  13.5287459935897 11.8768601190476  13.4107572115385 11.5011160714286  C 13.2927684294872 11.1253720238095  13.1424278846154 10.805431547619  12.9597355769231 10.5412946428571  C 12.7770432692308 10.2771577380952  12.533453525641 10.0613839285714  12.2289663461538 9.89397321428571  C 11.9244791666667 9.7265625  11.578125 9.64285714285714  11.1899038461538 9.64285714285714  C 11.1442307692308 9.67261904761905  11.0167267628205 9.74888392857143  10.8073918269231 9.87165178571429  C 10.5980568910256 9.99441964285714  10.4362980769231 10.0855654761905  10.3221153846154 10.1450892857143  C 10.2079326923077 10.2046130952381  10.0537860576923 10.2790178571429  9.85967548076923 10.3683035714286  C 9.66556490384615 10.4575892857143  9.47906650641026 10.5208333333333  9.30018028846154 10.5580357142857  C 9.12129407051282 10.5952380952381  8.9443108974359 10.6138392857143  8.76923076923077 10.6138392857143  C 8.59415064102564 10.6138392857143  8.41716746794872 10.5952380952381  8.23828125 10.5580357142857  C 8.05939503205128 10.5208333333333  7.87289663461539 10.4575892857143  7.67878605769231 10.3683035714286  C 7.48467548076923 10.2790178571429  7.33052884615385 10.2046130952381  7.21634615384615 10.1450892857143  C 7.10216346153846 10.0855654761905  6.9404046474359 9.99441964285714  6.73106971153846 9.87165178571429  C 6.52173477564103 9.74888392857143  6.39423076923077 9.67261904761905  6.34855769230769 9.64285714285714  C 5.96033653846154 9.64285714285714  5.61398237179487 9.7265625  5.30949519230769 9.89397321428571  C 5.00500801282051 10.0613839285714  4.76141826923077 10.2771577380952  4.57872596153846 10.5412946428571  C 4.39603365384615 10.805431547619  4.24569310897436 11.1253720238095  4.12770432692308 11.5011160714286  C 4.00971554487179 11.8768601190476  3.92978766025641 12.250744047619  3.88792067307692 12.6227678571429  C 3.84605368589744 12.9947916666667  3.82512019230769 13.3928571428571  3.82512019230769 13.8169642857143  C 3.82512019230769 14.360119047619  3.98497596153846 14.8121279761905  4.3046875 15.1729910714286  C 4.62439903846154 15.5338541666667  5.01642628205128 15.7142857142857  5.48076923076923 15.7142857142857  L 12.0576923076923 15.7142857142857  C 12.5220352564103 15.7142857142857  12.9140625 15.5338541666667  13.2337740384615 15.1729910714286  Z M 10.8644831730769 9.22991071428571  C 11.4468149038462 8.66443452380952  11.7379807692308 7.98363095238095  11.7379807692308 7.1875  C 11.7379807692308 6.38392857142857  11.4468149038462 5.69940476190476  10.8644831730769 5.13392857142857  C 10.2821514423077 4.56845238095238  9.58373397435897 4.28571428571429  8.76923076923077 4.28571428571429  C 7.95472756410257 4.28571428571429  7.25631009615385 4.56845238095238  6.67397836538462 5.13392857142857  C 6.09164663461539 5.69940476190476  5.80048076923077 6.38392857142857  5.80048076923077 7.1875  C 5.80048076923077 7.98363095238095  6.09164663461539 8.66443452380952  6.67397836538462 9.22991071428571  C 7.25631009615385 9.79538690476191  7.95472756410257 10.078125  8.76923076923077 10.078125  C 9.58373397435897 10.078125  10.2821514423077 9.79538690476191  10.8644831730769 9.22991071428571  Z M 18.8972355769231 12.9575892857143  C 18.9657451923077 13.0245535714286  19 13.110119047619  19 13.2142857142857  L 19 15.3571428571429  C 19 15.4613095238095  18.9657451923077 15.546875  18.8972355769231 15.6138392857143  C 18.8287259615385 15.6808035714286  18.7411858974359 15.7142857142857  18.6346153846154 15.7142857142857  L 17.5384615384615 15.7142857142857  L 17.5384615384615 18.2142857142857  C 17.5384615384615 18.7053571428571  17.3595753205128 19.125744047619  17.0018028846154 19.4754464285714  C 16.6440304487179 19.8251488095238  16.2139423076923 20  15.7115384615385 20  L 1.82692307692308 20  C 1.32451923076923 20  0.89443108974359 19.8251488095238  0.536658653846154 19.4754464285714  C 0.178886217948718 19.125744047619  0 18.7053571428571  0 18.2142857142857  L 0 1.78571428571429  C 0 1.29464285714286  0.178886217948718 0.874255952380951  0.536658653846154 0.524553571428572  C 0.89443108974359 0.174851190476191  1.32451923076923 0  1.82692307692308 0  L 15.7115384615385 0  C 16.2139423076923 0  16.6440304487179 0.174851190476191  17.0018028846154 0.524553571428572  C 17.3595753205128 0.874255952380951  17.5384615384615 1.29464285714286  17.5384615384615 1.78571428571429  L 17.5384615384615 4.28571428571429  L 18.6346153846154 4.28571428571429  C 18.7411858974359 4.28571428571429  18.8287259615385 4.31919642857143  18.8972355769231 4.38616071428571  C 18.9657451923077 4.453125  19 4.53869047619047  19 4.64285714285714  L 19 6.78571428571429  C 19 6.88988095238095  18.9657451923077 6.97544642857143  18.8972355769231 7.04241071428571  C 18.8287259615385 7.109375  18.7411858974359 7.14285714285714  18.6346153846154 7.14285714285714  L 17.5384615384615 7.14285714285714  L 17.5384615384615 8.57142857142857  L 18.6346153846154 8.57142857142857  C 18.7411858974359 8.57142857142857  18.8287259615385 8.60491071428571  18.8972355769231 8.671875  C 18.9657451923077 8.73883928571429  19 8.82440476190476  19 8.92857142857143  L 19 11.0714285714286  C 19 11.1755952380952  18.9657451923077 11.2611607142857  18.8972355769231 11.328125  C 18.8287259615385 11.3950892857143  18.7411858974359 11.4285714285714  18.6346153846154 11.4285714285714  L 17.5384615384615 11.4285714285714  L 17.5384615384615 12.8571428571429  L 18.6346153846154 12.8571428571429  C 18.7411858974359 12.8571428571429  18.8287259615385 12.890625  18.8972355769231 12.9575892857143  Z " fill-rule="nonzero" fill="#000000" stroke="none" transform="matrix(1 0 0 1 288 1119 )" />
  </g>
</svg>