<?xml version="1.0" encoding="utf-8"?>
<svg version="1.1" xmlns:xlink="http://www.w3.org/1999/xlink" width="134px" height="272px" xmlns="http://www.w3.org/2000/svg">
  <g transform="matrix(1 0 0 1 -99 -153 )">
    <path d="M 99 153  L 233 153  L 233 425  L 99 425  L 99 153  " fill-rule="nonzero" fill="#cccccc" stroke="none" />
    <path d="M 108 162  L 224 162  L 224 416  L 108 416  L 108 162  " fill-rule="nonzero" fill="#ffffff" stroke="none" />
    <path d="M 178.73 213.9  C 173.102 213.9  168.68 209.478  168.68 203.85  C 168.68 198.222  173.102 193.8  178.73 193.8  C 184.358 193.8  188.78 198.222  188.78 203.85  C 188.78 209.478  184.358 213.9  178.73 213.9  " fill-rule="nonzero" fill="#cccccc" stroke="none" />
    <path d="M 112 413  L 112 277.15  L 139.25 215.4  L 177.4 264.8  L 199.2 252.45  L 221 264.8  L 221 413  L 112 413  " fill-rule="nonzero" fill="#169bd5" stroke="none" />
  </g>
</svg>