<?xml version="1.0" encoding="utf-8"?>
<svg version="1.1" xmlns:xlink="http://www.w3.org/1999/xlink" width="35px" height="36px" xmlns="http://www.w3.org/2000/svg">
  <g transform="matrix(1 0 0 1 -43 -210 )">
    <path d="M 17.8604651162791 21  L 17.8604651162791 16  L 34.7209302325581 16  C 34.906976744186 16.46875  35 17.46875  35 18.421875  C 35 21.8125  34.2945736434109 24.83984375  32.8837209302326 27.50390625  C 31.4728682170543 30.16796875  29.4612403100775 32.25  26.8488372093023 33.75  C 24.2364341085271 35.25  21.2403100775194 36  17.8604651162791 36  C 15.4263565891473 36  13.1085271317829 35.52734375  10.906976744186 34.58203125  C 8.70542635658915 33.63671875  6.8062015503876 32.359375  5.2093023255814 30.75  C 3.61240310077519 29.140625  2.34496124031008 27.2265625  1.40697674418605 25.0078125  C 0.468992248062015 22.7890625  0 20.453125  0 18  C 0 15.546875  0.468992248062015 13.2109375  1.40697674418605 10.9921875  C 2.34496124031008 8.7734375  3.61240310077519 6.85937499999999  5.2093023255814 5.25  C 6.8062015503876 3.640625  8.70542635658915 2.36328125  10.906976744186 1.41796875  C 13.1085271317829 0.472656249999996  15.4263565891473 0  17.8604651162791 0  C 22.5116279069767 0  26.5038759689923 1.5703125  29.8372093023256 4.7109375  L 24.9767441860465 9.421875  C 23.0697674418605 7.56249999999999  20.6976744186047 6.6328125  17.8604651162791 6.6328125  C 15.8604651162791 6.6328125  14.0116279069767 7.14062499999999  12.3139534883721 8.15625  C 10.6162790697674 9.171875  9.27131782945737 10.55078125  8.27906976744186 12.29296875  C 7.28682170542636 14.03515625  6.79069767441861 15.9375  6.79069767441861 18  C 6.79069767441861 20.0625  7.28682170542636 21.96484375  8.27906976744186 23.70703125  C 9.27131782945737 25.44921875  10.6162790697674 26.828125  12.3139534883721 27.84375  C 14.0116279069767 28.859375  15.8604651162791 29.3671875  17.8604651162791 29.3671875  C 19.2093023255814 29.3671875  20.4496124031008 29.1796875  21.5813953488372 28.8046875  C 22.7131782945736 28.4296875  23.6434108527132 27.9609375  24.3720930232558 27.3984375  C 25.1007751937985 26.8359375  25.7364341085271 26.1953125  26.2790697674419 25.4765625  C 26.8217054263566 24.7578125  27.2209302325581 24.078125  27.4767441860465 23.4375  C 27.7325581395349 22.796875  27.906976744186 22.1875  28 21  L 17.8604651162791 21  Z " fill-rule="nonzero" fill="#000000" stroke="none" transform="matrix(1 0 0 1 43 210 )" />
  </g>
</svg>