<?xml version="1.0" encoding="utf-8"?>
<svg version="1.1" xmlns:xlink="http://www.w3.org/1999/xlink" width="36px" height="36px" xmlns="http://www.w3.org/2000/svg">
  <g transform="matrix(1 0 0 1 -154 -210 )">
    <path d="M 6.75 0  L 29.25 0  C 31.109375 0  32.69921875 0.660156249999998  34.01953125 1.98046875  C 35.33984375 3.30078125  36 4.89062499999999  36 6.75  L 36 29.25  C 36 31.109375  35.33984375 32.69921875  34.01953125 34.01953125  C 32.69921875 35.33984375  31.109375 36  29.25 36  L 24.84375 36  L 24.84375 22.0546875  L 29.5078125 22.0546875  L 30.2109375 16.6171875  L 24.84375 16.6171875  L 24.84375 13.1484375  C 24.84375 12.2734375  25.02734375 11.6171875  25.39453125 11.1796875  C 25.76171875 10.7421875  26.4765625 10.5234375  27.5390625 10.5234375  L 30.3984375 10.5  L 30.3984375 5.6484375  C 29.4140625 5.5078125  28.0234375 5.4375  26.2265625 5.4375  C 24.1015625 5.4375  22.40234375 6.0625  21.12890625 7.3125  C 19.85546875 8.5625  19.21875 10.328125  19.21875 12.609375  L 19.21875 16.6171875  L 14.53125 16.6171875  L 14.53125 22.0546875  L 19 22.0546875  L 19 36  L 6.75 36  C 4.890625 36  3.30078125 35.33984375  1.98046875 34.01953125  C 0.66015625 32.69921875  0 31.109375  0 29.25  L 0 6.75  C 0 4.89062499999999  0.66015625 3.30078125  1.98046875 1.98046875  C 3.30078125 0.660156249999998  4.890625 0  6.75 0  Z " fill-rule="nonzero" fill="#000000" stroke="none" transform="matrix(1 0 0 1 154 210 )" />
  </g>
</svg>