<?xml version="1.0" encoding="utf-8"?>
<svg version="1.1" xmlns:xlink="http://www.w3.org/1999/xlink" width="27px" height="27px" xmlns="http://www.w3.org/2000/svg">
  <g transform="matrix(1 0 0 1 -1151 -61 )">
    <path d="M 1164.5 61  C 1172.06 61  1178 66.94  1178 74.5  C 1178 82.06  1172.06 88  1164.5 88  C 1156.94 88  1151 82.06  1151 74.5  C 1151 66.94  1156.94 61  1164.5 61  Z " fill-rule="nonzero" fill="#ffffff" stroke="none" />
    <path d="M 1164.5 61.5  C 1171.78 61.5  1177.5 67.22  1177.5 74.5  C 1177.5 81.78  1171.78 87.5  1164.5 87.5  C 1157.22 87.5  1151.5 81.78  1151.5 74.5  C 1151.5 67.22  1157.22 61.5  1164.5 61.5  Z " stroke-width="1" stroke="#797979" fill="none" />
  </g>
</svg>