<?xml version="1.0" encoding="utf-8"?>
<svg version="1.1" xmlns:xlink="http://www.w3.org/1999/xlink" width="69px" height="69px" xmlns="http://www.w3.org/2000/svg">
  <g transform="matrix(1 0 0 1 0 -294 )">
    <path d="M 0 294  L 69 294  L 69 363  L 0 363  L 0 294  " fill-rule="nonzero" fill="#cccccc" stroke="none" />
    <path d="M 5 299  L 64 299  L 64 358  L 5 358  L 5 299  " fill-rule="nonzero" fill="#ffffff" stroke="none" />
    <path d="M 41.055 314.7  C 38.157 314.7  35.88 312.423  35.88 309.525  C 35.88 306.627  38.157 304.35  41.055 304.35  C 43.953 304.35  46.23 306.627  46.23 309.525  C 46.23 312.423  43.953 314.7  41.055 314.7  " fill-rule="nonzero" fill="#cccccc" stroke="none" />
    <path d="M 7 357  L 7 326.2  L 21 312.2  L 40.6 323.4  L 51.8 320.6  L 63 323.4  L 63 357  L 7 357  " fill-rule="nonzero" fill="#169bd5" stroke="none" />
  </g>
</svg>