<?xml version="1.0" encoding="utf-8"?>
<svg version="1.1" xmlns:xlink="http://www.w3.org/1999/xlink" width="12px" height="12px" viewBox="167 53.5  12 12" xmlns="http://www.w3.org/2000/svg">
  <path d="M 173 53.5  C 176.36 53.5  179 56.14  179 59.5  C 179 62.86  176.36 65.5  173 65.5  C 169.64 65.5  167 62.86  167 59.5  C 167 56.14  169.64 53.5  173 53.5  Z " fill-rule="nonzero" fill="#ffffff" stroke="none" />
  <path d="M 173 54  C 176.08 54  178.5 56.42  178.5 59.5  C 178.5 62.58  176.08 65  173 65  C 169.92 65  167.5 62.58  167.5 59.5  C 167.5 56.42  169.92 54  173 54  Z " stroke-width="1" stroke="#797979" fill="none" />
  <path d="M 173 62.5  C 171.32 62.5  170 61.18  170 59.5  C 170 57.82  171.32 56.5  173 56.5  C 174.68 56.5  176 57.82  176 59.5  C 176 61.18  174.68 62.5  173 62.5  " fill-rule="nonzero" fill="#797979" stroke="none" />
</svg>