<?xml version="1.0" encoding="utf-8"?>
<svg version="1.1" xmlns:xlink="http://www.w3.org/1999/xlink" width="12px" height="12px" viewBox="444 587.5  12 12" xmlns="http://www.w3.org/2000/svg">
  <path d="M 450 587.5  C 453.36 587.5  456 590.14  456 593.5  C 456 596.86  453.36 599.5  450 599.5  C 446.64 599.5  444 596.86  444 593.5  C 444 590.14  446.64 587.5  450 587.5  Z " fill-rule="nonzero" fill="#ffffff" stroke="none" />
  <path d="M 450 588  C 453.08 588  455.5 590.42  455.5 593.5  C 455.5 596.58  453.08 599  450 599  C 446.92 599  444.5 596.58  444.5 593.5  C 444.5 590.42  446.92 588  450 588  Z " stroke-width="1" stroke="#797979" fill="none" />
  <path d="M 450 596.5  C 448.32 596.5  447 595.18  447 593.5  C 447 591.82  448.32 590.5  450 590.5  C 451.68 590.5  453 591.82  453 593.5  C 453 595.18  451.68 596.5  450 596.5  " fill-rule="nonzero" fill="#797979" stroke="none" />
</svg>