<?xml version="1.0" encoding="utf-8"?>
<svg version="1.1" xmlns:xlink="http://www.w3.org/1999/xlink" width="26px" height="23px" xmlns="http://www.w3.org/2000/svg">
  <g transform="matrix(1 0 0 1 -5 -16 )">
    <path d="M 25.2310267857143 10.393125  C 25.7436755952381 11.6772916666667  26 13.2729166666667  26 15.18  C 26 16.7708333333333  25.3857886904762 18.931875  24.1573660714286 21.663125  C 24.1283482142857 21.7302083333333  24.0775669642857 21.8452083333333  24.0050223214286 22.008125  C 23.9324776785714 22.1710416666667  23.8671875 22.3147916666667  23.8091517857143 22.439375  C 23.7511160714286 22.5639583333333  23.6882440476191 22.669375  23.6205357142857 22.755625  C 23.5044642857143 22.9185416666667  23.3690476190476 23  23.2142857142857 23  C 23.0691964285714 23  22.9555431547619 22.9520833333333  22.8733258928571 22.85625  C 22.7911086309524 22.7604166666667  22.75 22.640625  22.75 22.496875  C 22.75 22.410625  22.7620907738095 22.2836458333333  22.7862723214286 22.1159375  C 22.8104538690476 21.9482291666667  22.8225446428571 21.835625  22.8225446428571 21.778125  C 22.8709077380952 21.1264583333333  22.8950892857143 20.5370833333333  22.8950892857143 20.01  C 22.8950892857143 19.0420833333333  22.8104538690476 18.1747916666667  22.6411830357143 17.408125  C 22.471912202381 16.6414583333333  22.2373511904762 15.9778125  21.9375 15.4171875  C 21.6376488095238 14.8565625  21.250744047619 14.3726041666667  20.7767857142857 13.9653125  C 20.3028273809524 13.5580208333333  19.7925967261905 13.225  19.24609375 12.96625  C 18.6995907738095 12.7075  18.0563616071429 12.5038541666667  17.31640625 12.3553125  C 16.5764508928571 12.2067708333333  15.8316592261905 12.10375  15.08203125 12.04625  C 14.3324032738095 11.98875  13.483630952381 11.96  12.5357142857143 11.96  L 9.28571428571429 11.96  L 9.28571428571429 15.64  C 9.28571428571429 15.8891666666667  9.19382440476191 16.1047916666667  9.01004464285714 16.286875  C 8.82626488095238 16.4689583333333  8.60863095238095 16.56  8.35714285714286 16.56  C 8.10565476190476 16.56  7.88802083333333 16.4689583333333  7.70424107142857 16.286875  L 0.275669642857143 8.926875  C 0.091889880952381 8.74479166666666  0 8.52916666666667  0 8.28  C 0 8.03083333333333  0.091889880952381 7.81520833333333  0.275669642857143 7.633125  L 7.70424107142857 0.273124999999999  C 7.88802083333333 0.0910416666666656  8.10565476190476 0  8.35714285714286 0  C 8.60863095238095 0  8.82626488095238 0.0910416666666656  9.01004464285714 0.273124999999999  C 9.19382440476191 0.45520833333333  9.28571428571429 0.670833333333331  9.28571428571429 0.920000000000001  L 9.28571428571429 4.6  L 12.5357142857143 4.6  C 19.4322916666667 4.6  23.6640625 6.53104166666667  25.2310267857143 10.393125  Z " fill-rule="nonzero" fill="#000000" stroke="none" transform="matrix(1 0 0 1 5 16 )" />
  </g>
</svg>