<?xml version="1.0" encoding="utf-8"?>
<svg version="1.1" xmlns:xlink="http://www.w3.org/1999/xlink" width="14px" height="14px" xmlns="http://www.w3.org/2000/svg">
  <g transform="matrix(1 0 0 1 -192 -893 )">
    <path d="M 13.8268229166667 11.4078125  C 13.9422743055556 11.5463541666667  14 11.7104166666667  14 11.9  L 14 13.3  C 14 13.4895833333333  13.9422743055556 13.6536458333333  13.8268229166667 13.7921875  C 13.7113715277778 13.9307291666667  13.5746527777778 14  13.4166666666667 14  L 0.583333333333333 14  C 0.425347222222222 14  0.288628472222222 13.9307291666667  0.173177083333333 13.7921875  C 0.0577256944444444 13.6536458333333  0 13.4895833333333  0 13.3  L 0 11.9  C 0 11.7104166666667  0.0577256944444444 11.5463541666667  0.173177083333333 11.4078125  C 0.288628472222222 11.2692708333333  0.425347222222222 11.2  0.583333333333333 11  L 13.4166666666667 11  C 13.5746527777778 11.2  13.7113715277778 11.2692708333333  13.8268229166667 11.4078125  Z M 13.8268229166667 5.8078125  C 13.9422743055556 5.94635416666667  14 6.11041666666667  14 6.3  L 14 7.7  C 14 7.88958333333333  13.9422743055556 8.05364583333333  13.8268229166667 8.1921875  C 13.7113715277778 8.33072916666667  13.5746527777778 8.4  13.4166666666667 8.4  L 0.583333333333333 8.4  C 0.425347222222222 8.4  0.288628472222222 8.33072916666667  0.173177083333333 8.1921875  C 0.0577256944444444 8.05364583333333  0 7.88958333333333  0 7.7  L 0 6.3  C 0 6.11041666666667  0.0577256944444444 5.94635416666667  0.173177083333333 5.8078125  C 0.288628472222222 5.66927083333333  0.425347222222222 5.6  0.583333333333333 5.6  L 13.4166666666667 5.6  C 13.5746527777778 5.6  13.7113715277778 5.66927083333333  13.8268229166667 5.8078125  Z M 13.8268229166667 0.207812500000001  C 13.9422743055556 0.346354166666666  14 0.510416666666666  14 0.700000000000001  L 14 2.1  C 14 2.28958333333333  13.9422743055556 2.45364583333333  13.8268229166667 2.5921875  C 13.7113715277778 2.73072916666667  13.5746527777778 2.8  13.4166666666667 3  L 0.583333333333333 3  C 0.425347222222222 2.8  0.288628472222222 2.73072916666667  0.173177083333333 2.5921875  C 0.0577256944444444 2.45364583333333  0 2.28958333333333  0 2.1  L 0 0.700000000000001  C 0 0.510416666666666  0.0577256944444444 0.346354166666666  0.173177083333333 0.207812500000001  C 0.288628472222222 0.0692708333333325  0.425347222222222 0  0.583333333333333 0  L 13.4166666666667 0  C 13.5746527777778 0  13.7113715277778 0.0692708333333325  13.8268229166667 0.207812500000001  Z " fill-rule="nonzero" fill="#000000" stroke="none" transform="matrix(1 0 0 1 192 893 )" />
  </g>
</svg>