<?xml version="1.0" encoding="utf-8"?>
<svg version="1.1" xmlns:xlink="http://www.w3.org/1999/xlink" width="12px" height="12px" viewBox="945 94.5  12 12" xmlns="http://www.w3.org/2000/svg">
  <path d="M 951 94.5  C 954.36 94.5  957 97.14  957 100.5  C 957 103.86  954.36 106.5  951 106.5  C 947.64 106.5  945 103.86  945 100.5  C 945 97.14  947.64 94.5  951 94.5  Z " fill-rule="nonzero" fill="#ffffff" stroke="none" />
  <path d="M 951 95  C 954.08 95  956.5 97.42  956.5 100.5  C 956.5 103.58  954.08 106  951 106  C 947.92 106  945.5 103.58  945.5 100.5  C 945.5 97.42  947.92 95  951 95  Z " stroke-width="1" stroke="#797979" fill="none" />
  <path d="M 951 103.5  C 949.32 103.5  948 102.18  948 100.5  C 948 98.82  949.32 97.5  951 97.5  C 952.68 97.5  954 98.82  954 100.5  C 954 102.18  952.68 103.5  951 103.5  " fill-rule="nonzero" fill="#797979" stroke="none" />
</svg>