<?xml version="1.0" encoding="utf-8"?>
<svg version="1.1" xmlns:xlink="http://www.w3.org/1999/xlink" width="12px" height="12px" viewBox="1061 162.5  12 12" xmlns="http://www.w3.org/2000/svg">
  <path d="M 1067 162.5  C 1070.36 162.5  1073 165.14  1073 168.5  C 1073 171.86  1070.36 174.5  1067 174.5  C 1063.64 174.5  1061 171.86  1061 168.5  C 1061 165.14  1063.64 162.5  1067 162.5  Z " fill-rule="nonzero" fill="#ffffff" stroke="none" />
  <path d="M 1067 163  C 1070.08 163  1072.5 165.42  1072.5 168.5  C 1072.5 171.58  1070.08 174  1067 174  C 1063.92 174  1061.5 171.58  1061.5 168.5  C 1061.5 165.42  1063.92 163  1067 163  Z " stroke-width="1" stroke="#797979" fill="none" />
  <path d="M 1067 171.5  C 1065.32 171.5  1064 170.18  1064 168.5  C 1064 166.82  1065.32 165.5  1067 165.5  C 1068.68 165.5  1070 166.82  1070 168.5  C 1070 170.18  1068.68 171.5  1067 171.5  " fill-rule="nonzero" fill="#797979" stroke="none" />
</svg>