<?xml version="1.0" encoding="utf-8"?>
<svg version="1.1" xmlns:xlink="http://www.w3.org/1999/xlink" width="12px" height="12px" viewBox="70 81.5  12 12" xmlns="http://www.w3.org/2000/svg">
  <path d="M 76 81.5  C 79.36 81.5  82 84.14  82 87.5  C 82 90.86  79.36 93.5  76 93.5  C 72.64 93.5  70 90.86  70 87.5  C 70 84.14  72.64 81.5  76 81.5  Z " fill-rule="nonzero" fill="#ffffff" stroke="none" />
  <path d="M 76 82  C 79.08 82  81.5 84.42  81.5 87.5  C 81.5 90.58  79.08 93  76 93  C 72.92 93  70.5 90.58  70.5 87.5  C 70.5 84.42  72.92 82  76 82  Z " stroke-width="1" stroke="#797979" fill="none" />
  <path d="M 76 90.5  C 74.32 90.5  73 89.18  73 87.5  C 73 85.82  74.32 84.5  76 84.5  C 77.68 84.5  79 85.82  79 87.5  C 79 89.18  77.68 90.5  76 90.5  " fill-rule="nonzero" fill="#797979" stroke="none" />
</svg>