<?xml version="1.0" encoding="utf-8"?>
<svg version="1.1" xmlns:xlink="http://www.w3.org/1999/xlink" width="12px" height="12px" viewBox="16 14.5  12 12" xmlns="http://www.w3.org/2000/svg">
  <path d="M 22 14.5  C 25.36 14.5  28 17.14  28 20.5  C 28 23.86  25.36 26.5  22 26.5  C 18.64 26.5  16 23.86  16 20.5  C 16 17.14  18.64 14.5  22 14.5  Z " fill-rule="nonzero" fill="#ffffff" stroke="none" />
  <path d="M 22 15  C 25.08 15  27.5 17.42  27.5 20.5  C 27.5 23.58  25.08 26  22 26  C 18.92 26  16.5 23.58  16.5 20.5  C 16.5 17.42  18.92 15  22 15  Z " stroke-width="1" stroke="#797979" fill="none" />
  <path d="M 22 23.5  C 20.32 23.5  19 22.18  19 20.5  C 19 18.82  20.32 17.5  22 17.5  C 23.68 17.5  25 18.82  25 20.5  C 25 22.18  23.68 23.5  22 23.5  " fill-rule="nonzero" fill="#797979" stroke="none" />
</svg>