<?xml version="1.0" encoding="utf-8"?>
<svg version="1.1" xmlns:xlink="http://www.w3.org/1999/xlink" width="12px" height="12px" viewBox="160 14.5  12 12" xmlns="http://www.w3.org/2000/svg">
  <path d="M 166 14.5  C 169.36 14.5  172 17.14  172 20.5  C 172 23.86  169.36 26.5  166 26.5  C 162.64 26.5  160 23.86  160 20.5  C 160 17.14  162.64 14.5  166 14.5  Z " fill-rule="nonzero" fill="#ffffff" stroke="none" />
  <path d="M 166 15  C 169.08 15  171.5 17.42  171.5 20.5  C 171.5 23.58  169.08 26  166 26  C 162.92 26  160.5 23.58  160.5 20.5  C 160.5 17.42  162.92 15  166 15  Z " stroke-width="1" stroke="#797979" fill="none" />
  <path d="M 166 23.5  C 164.32 23.5  163 22.18  163 20.5  C 163 18.82  164.32 17.5  166 17.5  C 167.68 17.5  169 18.82  169 20.5  C 169 22.18  167.68 23.5  166 23.5  " fill-rule="nonzero" fill="#797979" stroke="none" />
</svg>