<?xml version="1.0" encoding="utf-8"?>
<svg version="1.1" xmlns:xlink="http://www.w3.org/1999/xlink" width="12px" height="12px" viewBox="302 14.5  12 12" xmlns="http://www.w3.org/2000/svg">
  <path d="M 308 14.5  C 311.36 14.5  314 17.14  314 20.5  C 314 23.86  311.36 26.5  308 26.5  C 304.64 26.5  302 23.86  302 20.5  C 302 17.14  304.64 14.5  308 14.5  Z " fill-rule="nonzero" fill="#ffffff" stroke="none" />
  <path d="M 308 15  C 311.08 15  313.5 17.42  313.5 20.5  C 313.5 23.58  311.08 26  308 26  C 304.92 26  302.5 23.58  302.5 20.5  C 302.5 17.42  304.92 15  308 15  Z " stroke-width="1" stroke="#797979" fill="none" />
  <path d="M 308 23.5  C 306.32 23.5  305 22.18  305 20.5  C 305 18.82  306.32 17.5  308 17.5  C 309.68 17.5  311 18.82  311 20.5  C 311 22.18  309.68 23.5  308 23.5  " fill-rule="nonzero" fill="#797979" stroke="none" />
</svg>