<?xml version="1.0" encoding="utf-8"?>
<svg version="1.1" xmlns:xlink="http://www.w3.org/1999/xlink" width="12px" height="12px" viewBox="302 66.5  12 12" xmlns="http://www.w3.org/2000/svg">
  <path d="M 308 66.5  C 311.36 66.5  314 69.14  314 72.5  C 314 75.86  311.36 78.5  308 78.5  C 304.64 78.5  302 75.86  302 72.5  C 302 69.14  304.64 66.5  308 66.5  Z " fill-rule="nonzero" fill="#ffffff" stroke="none" />
  <path d="M 308 67  C 311.08 67  313.5 69.42  313.5 72.5  C 313.5 75.58  311.08 78  308 78  C 304.92 78  302.5 75.58  302.5 72.5  C 302.5 69.42  304.92 67  308 67  Z " stroke-width="1" stroke="#797979" fill="none" />
  <path d="M 308 75.5  C 306.32 75.5  305 74.18  305 72.5  C 305 70.82  306.32 69.5  308 69.5  C 309.68 69.5  311 70.82  311 72.5  C 311 74.18  309.68 75.5  308 75.5  " fill-rule="nonzero" fill="#797979" stroke="none" />
</svg>