<?xml version="1.0" encoding="utf-8"?>
<svg version="1.1" xmlns:xlink="http://www.w3.org/1999/xlink" width="12px" height="12px" viewBox="302 119.5  12 12" xmlns="http://www.w3.org/2000/svg">
  <path d="M 308 119.5  C 311.36 119.5  314 122.14  314 125.5  C 314 128.86  311.36 131.5  308 131.5  C 304.64 131.5  302 128.86  302 125.5  C 302 122.14  304.64 119.5  308 119.5  Z " fill-rule="nonzero" fill="#ffffff" stroke="none" />
  <path d="M 308 120  C 311.08 120  313.5 122.42  313.5 125.5  C 313.5 128.58  311.08 131  308 131  C 304.92 131  302.5 128.58  302.5 125.5  C 302.5 122.42  304.92 120  308 120  Z " stroke-width="1" stroke="#797979" fill="none" />
  <path d="M 308 128.5  C 306.32 128.5  305 127.18  305 125.5  C 305 123.82  306.32 122.5  308 122.5  C 309.68 122.5  311 123.82  311 125.5  C 311 127.18  309.68 128.5  308 128.5  " fill-rule="nonzero" fill="#797979" stroke="none" />
</svg>