<?xml version="1.0" encoding="utf-8"?>
<svg version="1.1" xmlns:xlink="http://www.w3.org/1999/xlink" width="12px" height="12px" viewBox="16 119.5  12 12" xmlns="http://www.w3.org/2000/svg">
  <path d="M 22 119.5  C 25.36 119.5  28 122.14  28 125.5  C 28 128.86  25.36 131.5  22 131.5  C 18.64 131.5  16 128.86  16 125.5  C 16 122.14  18.64 119.5  22 119.5  Z " fill-rule="nonzero" fill="#ffffff" stroke="none" />
  <path d="M 22 120  C 25.08 120  27.5 122.42  27.5 125.5  C 27.5 128.58  25.08 131  22 131  C 18.92 131  16.5 128.58  16.5 125.5  C 16.5 122.42  18.92 120  22 120  Z " stroke-width="1" stroke="#797979" fill="none" />
  <path d="M 22 128.5  C 20.32 128.5  19 127.18  19 125.5  C 19 123.82  20.32 122.5  22 122.5  C 23.68 122.5  25 123.82  25 125.5  C 25 127.18  23.68 128.5  22 128.5  " fill-rule="nonzero" fill="#797979" stroke="none" />
</svg>