<?xml version="1.0" encoding="utf-8"?>
<svg version="1.1" xmlns:xlink="http://www.w3.org/1999/xlink" width="12px" height="12px" viewBox="16 171.5  12 12" xmlns="http://www.w3.org/2000/svg">
  <path d="M 22 171.5  C 25.36 171.5  28 174.14  28 177.5  C 28 180.86  25.36 183.5  22 183.5  C 18.64 183.5  16 180.86  16 177.5  C 16 174.14  18.64 171.5  22 171.5  Z " fill-rule="nonzero" fill="#ffffff" stroke="none" />
  <path d="M 22 172  C 25.08 172  27.5 174.42  27.5 177.5  C 27.5 180.58  25.08 183  22 183  C 18.92 183  16.5 180.58  16.5 177.5  C 16.5 174.42  18.92 172  22 172  Z " stroke-width="1" stroke="#797979" fill="none" />
  <path d="M 22 180.5  C 20.32 180.5  19 179.18  19 177.5  C 19 175.82  20.32 174.5  22 174.5  C 23.68 174.5  25 175.82  25 177.5  C 25 179.18  23.68 180.5  22 180.5  " fill-rule="nonzero" fill="#797979" stroke="none" />
</svg>