<?xml version="1.0" encoding="utf-8"?>
<svg version="1.1" xmlns:xlink="http://www.w3.org/1999/xlink" width="12px" height="12px" viewBox="445 171.5  12 12" xmlns="http://www.w3.org/2000/svg">
  <path d="M 451 171.5  C 454.36 171.5  457 174.14  457 177.5  C 457 180.86  454.36 183.5  451 183.5  C 447.64 183.5  445 180.86  445 177.5  C 445 174.14  447.64 171.5  451 171.5  Z " fill-rule="nonzero" fill="#ffffff" stroke="none" />
  <path d="M 451 172  C 454.08 172  456.5 174.42  456.5 177.5  C 456.5 180.58  454.08 183  451 183  C 447.92 183  445.5 180.58  445.5 177.5  C 445.5 174.42  447.92 172  451 172  Z " stroke-width="1" stroke="#797979" fill="none" />
  <path d="M 451 180.5  C 449.32 180.5  448 179.18  448 177.5  C 448 175.82  449.32 174.5  451 174.5  C 452.68 174.5  454 175.82  454 177.5  C 454 179.18  452.68 180.5  451 180.5  " fill-rule="nonzero" fill="#797979" stroke="none" />
</svg>