<?xml version="1.0" encoding="utf-8"?>
<svg version="1.1" xmlns:xlink="http://www.w3.org/1999/xlink" width="12px" height="12px" viewBox="16 290.5  12 12" xmlns="http://www.w3.org/2000/svg">
  <path d="M 22 290.5  C 25.36 290.5  28 293.14  28 296.5  C 28 299.86  25.36 302.5  22 302.5  C 18.64 302.5  16 299.86  16 296.5  C 16 293.14  18.64 290.5  22 290.5  Z " fill-rule="nonzero" fill="#ffffff" stroke="none" />
  <path d="M 22 291  C 25.08 291  27.5 293.42  27.5 296.5  C 27.5 299.58  25.08 302  22 302  C 18.92 302  16.5 299.58  16.5 296.5  C 16.5 293.42  18.92 291  22 291  Z " stroke-width="1" stroke="#797979" fill="none" />
  <path d="M 22 299.5  C 20.32 299.5  19 298.18  19 296.5  C 19 294.82  20.32 293.5  22 293.5  C 23.68 293.5  25 294.82  25 296.5  C 25 298.18  23.68 299.5  22 299.5  " fill-rule="nonzero" fill="#797979" stroke="none" />
</svg>