<?xml version="1.0" encoding="utf-8"?>
<svg version="1.1" xmlns:xlink="http://www.w3.org/1999/xlink" width="12px" height="12px" viewBox="445 228.5  12 12" xmlns="http://www.w3.org/2000/svg">
  <path d="M 451 228.5  C 454.36 228.5  457 231.14  457 234.5  C 457 237.86  454.36 240.5  451 240.5  C 447.64 240.5  445 237.86  445 234.5  C 445 231.14  447.64 228.5  451 228.5  Z " fill-rule="nonzero" fill="#ffffff" stroke="none" />
  <path d="M 451 229  C 454.08 229  456.5 231.42  456.5 234.5  C 456.5 237.58  454.08 240  451 240  C 447.92 240  445.5 237.58  445.5 234.5  C 445.5 231.42  447.92 229  451 229  Z " stroke-width="1" stroke="#797979" fill="none" />
  <path d="M 451 237.5  C 449.32 237.5  448 236.18  448 234.5  C 448 232.82  449.32 231.5  451 231.5  C 452.68 231.5  454 232.82  454 234.5  C 454 236.18  452.68 237.5  451 237.5  " fill-rule="nonzero" fill="#797979" stroke="none" />
</svg>