<?xml version="1.0" encoding="utf-8"?>
<svg version="1.1" xmlns:xlink="http://www.w3.org/1999/xlink" width="26px" height="26px" xmlns="http://www.w3.org/2000/svg">
  <g transform="matrix(1 0 0 1 -596 -63 )">
    <path d="M 15.0143229166667 21.5143229166667  C 15.1158854166667 21.4127604166667  15.1666666666667 21.2829861111111  15.1666666666667 21.125  L 15.1666666666667 17.875  C 15.1666666666667 17.7170138888889  15.1158854166667 17.5872395833333  15.0143229166667 17.4856770833333  C 14.9127604166667 17.3841145833333  14.7829861111111 17.3333333333333  14.625 17.3333333333333  L 11.375 17.3333333333333  C 11.2170138888889 17.3333333333333  11.0872395833333 17.3841145833333  10.9856770833333 17.4856770833333  C 10.8841145833333 17.5872395833333  10.8333333333333 17.7170138888889  10.8333333333333 17.875  L 10.8333333333333 21.125  C 10.8333333333333 21.2829861111111  10.8841145833333 21.4127604166667  10.9856770833333 21.5143229166667  C 11.0872395833333 21.6158854166667  11.2170138888889 21.6666666666667  11.375 21.6666666666667  L 14.625 21.6666666666667  C 14.7829861111111 21.6666666666667  14.9127604166667 21.6158854166667  15.0143229166667 21.5143229166667  Z M 19.2884114583333 11.12109375  C 19.4294704861111 10.7035590277778  19.5 10.2465277777778  19.5 9.75  C 19.5 8.75694444444444  19.1868489583333 7.83723958333333  18.560546875 6.99088541666667  C 17.9342447916667 6.14453125  17.1527777777778 5.49001736111111  16.2161458333333 5.02734375  C 15.2795138888889 4.56467013888889  14.3203125 4.33333333333333  13.3385416666667 4.33333333333333  C 10.5963541666667 4.33333333333333  8.50303819444444 5.53515625  7.05859375 7.93880208333333  C 6.88932291666667 8.20963541666667  6.93446180555556 8.44661458333333  7.19401041666667 8.64973958333333  L 9.42838541666667 10.3424479166667  C 9.50737847222222 10.41015625  9.61458333333333 10.4440104166667  9.75 10.4440104166667  C 9.93055555555556 10.4440104166667  10.0716145833333 10.3763020833333  10.1731770833333 10.2408854166667  C 10.7712673611111 9.47352430555556  11.2565104166667 8.95442708333333  11.62890625 8.68359375  C 12.0125868055556 8.41276041666667  12.4978298611111 8.27734375  13.0846354166667 8.27734375  C 13.6263020833333 8.27734375  14.1087239583333 8.42404513888889  14.5319010416667 8.71744791666667  C 14.955078125 9.01085069444444  15.1666666666667 9.34375  15.1666666666667 9.71614583333333  C 15.1666666666667 10.1449652777778  15.0538194444444 10.4891493055556  14.828125 10.7486979166667  C 14.6024305555556 11.0082465277778  14.21875 11.2621527777778  13.6770833333333 11.5104166666667  C 12.9661458333333 11.8263888888889  12.314453125 12.314453125  11.7220052083333 12.974609375  C 11.1295572916667 13.634765625  10.8333333333333 14.3428819444444  10.8333333333333 15.0989583333333  L 10.8333333333333 15.7083333333333  C 10.8333333333333 15.8663194444444  10.8841145833333 15.99609375  10.9856770833333 16.09765625  C 11.0872395833333 16.19921875  11.2170138888889 16.25  11.375 16.25  L 14.625 16.25  C 14.7829861111111 16.25  14.9127604166667 16.19921875  15.0143229166667 16.09765625  C 15.1158854166667 15.99609375  15.1666666666667 15.8663194444444  15.1666666666667 15.7083333333333  C 15.1666666666667 15.4939236111111  15.2879774305556 15.2146267361111  15.5305989583333 14.8704427083333  C 15.7732204861111 14.5262586805556  16.0807291666667 14.2469618055556  16.453125 14.0325520833333  C 16.8142361111111 13.8294270833333  17.0907118055556 13.6686197916667  17.2825520833333 13.5501302083333  C 17.4743923611111 13.431640625  17.7339409722222 13.2341579861111  18.0611979166667 12.9576822916667  C 18.3884548611111 12.6812065972222  18.6395399305556 12.4103732638889  18.814453125 12.1451822916667  C 18.9893663194444 11.8799913194444  19.1473524305556 11.5386284722222  19.2884114583333 11.12109375  Z M 24.2565104166667 6.474609375  C 25.4188368055556 8.46636284722222  26 10.6414930555556  26 13  C 26 15.3585069444444  25.4188368055556 17.5336371527778  24.2565104166667 19.525390625  C 23.0941840277778 21.5171440972222  21.5171440972222 23.0941840277778  19.525390625 24.2565104166667  C 17.5336371527778 25.4188368055556  15.3585069444444 26  13 26  C 10.6414930555556 26  8.46636284722222 25.4188368055556  6.474609375 24.2565104166667  C 4.48285590277778 23.0941840277778  2.90581597222222 21.5171440972222  1.74348958333333 19.525390625  C 0.581163194444444 17.5336371527778  0 15.3585069444444  0 13  C 0 10.6414930555556  0.581163194444444 8.46636284722222  1.74348958333333 6.474609375  C 2.90581597222222 4.48285590277778  4.48285590277778 2.90581597222222  6.474609375 1.74348958333333  C 8.46636284722222 0.581163194444442  10.6414930555556 0  13 0  C 15.3585069444444 0  17.5336371527778 0.581163194444442  19.525390625 1.74348958333333  C 21.5171440972222 2.90581597222222  23.0941840277778 4.48285590277778  24.2565104166667 6.474609375  Z " fill-rule="nonzero" fill="#000000" stroke="none" transform="matrix(1 0 0 1 596 63 )" />
  </g>
</svg>