<?xml version="1.0" encoding="utf-8"?>
<svg version="1.1" xmlns:xlink="http://www.w3.org/1999/xlink" width="16px" height="13px" xmlns="http://www.w3.org/2000/svg">
  <g transform="matrix(1 0 0 1 -1029 -59 )">
    <path d="M 4.18341463414634 5  L 1.66243902439024 5  L 6.52487804878049 10.1953125  L 4.18341463414634 5  Z M 5.27609756097561 5  L 8 11.03125  L 10.7239024390244 5  L 5.27609756097561 5  Z M 1.50634146341463 4  L 4.20682926829268 4  L 5.7990243902439 0.999999999999999  L 3.75414634146341 0.999999999999999  L 1.50634146341463 4  Z M 11.8165853658537 5  L 9.47512195121951 10.1953125  L 14.3375609756098 5  L 11.8165853658537 5  Z M 6.93073170731707 0.999999999999999  L 5.33853658536585 4  L 10.6614634146341 4  L 9.06926829268293 0.999999999999999  L 6.93073170731707 0.999999999999999  Z M 10.2009756097561 0.999999999999999  L 11.7931707317073 4  L 14.4936585365854 4  L 12.2458536585366 0.999999999999999  L 10.2009756097561 0.999999999999999  Z M 12.4956097560976 0  C 12.6673170731707 0  12.8 0.0677083333333324  12.8936585365854 0.203125  L 15.8907317073171 4.203125  C 15.9635772357724 4.296875  15.9973983739837 4.40494791666667  15.9921951219512 4.52734375  C 15.9869918699187 4.64973958333333  15.9427642276423 4.75520833333333  15.859512195122 4.84375  L 8.36682926829268 12.84375  C 8.27317073170732 12.9479166666667  8.15089430894309 13  8 13  C 7.84910569105691 13  7.72682926829268 12.9479166666667  7.63317073170732 12.84375  L 0.140487804878049 4.84375  C 0.0572357723577236 4.75520833333333  0.0130081300813008 4.64973958333333  0.00780487804878049 4.52734375  C 0.00260162601626016 4.40494791666667  0.0364227642276423 4.296875  0.109268292682927 4.203125  L 3.10634146341463 0.203125  C 3.2 0.0677083333333324  3.33268292682927 0  3.50439024390244 0  L 12.4956097560976 0  Z " fill-rule="nonzero" fill="#000000" stroke="none" transform="matrix(1 0 0 1 1029 59 )" />
  </g>
</svg>