<?xml version="1.0" encoding="utf-8"?>
<svg version="1.1" xmlns:xlink="http://www.w3.org/1999/xlink" width="28px" height="26px" xmlns="http://www.w3.org/2000/svg">
  <g transform="matrix(1 0 0 1 -522 -63 )">
    <path d="M 0 5.57142857142857  L 14 0  L 28 5.57142857142857  L 28 7.42857142857143  L 26.1333333333333 7.42857142857143  C 26.1333333333333 7.68005952380952  26.0336805555556 7.89769345238095  25.834375 8.08147321428572  C 25.6350694444444 8.26525297619047  25.3993055555556 8.35714285714286  25.1270833333333 8.35714285714286  L 2.87291666666667 8.35714285714286  C 2.60069444444444 8.35714285714286  2.36493055555556 8.26525297619047  2.165625 8.08147321428572  C 1.96631944444444 7.89769345238095  1.86666666666667 7.68005952380952  1.86666666666667 7.42857142857143  L 0 7.42857142857143  L 0 5.57142857142857  Z M 4 20.4285714285714  L 4 9.28571428571428  L 8 9.28571428571428  L 8 20.4285714285714  L 9.33333333333333 20.4285714285714  L 9.33333333333333 9.28571428571428  L 13 9.28571428571428  L 13 20.4285714285714  L 15 20.4285714285714  L 15 9.28571428571428  L 18.6666666666667 9.28571428571428  L 18.6666666666667 20.4285714285714  L 20 20.4285714285714  L 20 9.28571428571428  L 24 9.28571428571428  L 24 20.4285714285714  L 25.1270833333333 20.4285714285714  C 25.3993055555556 20.4285714285714  25.6350694444444 20.5204613095238  25.834375 20.7042410714286  C 26.0336805555556 20.8880208333333  26.1333333333333 21.1056547619048  26.1333333333333 21.3571428571429  L 26.1333333333333 22  L 1.86666666666667 22  L 1.86666666666667 21.3571428571429  C 1.86666666666667 21.1056547619048  1.96631944444444 20.8880208333333  2.165625 20.7042410714286  C 2.36493055555556 20.5204613095238  2.60069444444444 20.4285714285714  2.87291666666667 20.4285714285714  L 4 20.4285714285714  Z M 1.00625 23  L 26.99375 23  C 27.2659722222222 23.2142857142857  27.5017361111111 23.3061755952381  27.7010416666667 23.4899553571429  C 27.9003472222222 23.6737351190476  28 23.891369047619  28 24.1428571428571  L 28 26  L 0 26  L 0 24.1428571428571  C 0 23.891369047619  0.0996527777777778 23.6737351190476  0.298958333333333 23.4899553571429  C 0.498263888888889 23.3061755952381  0.734027777777778 23.2142857142857  1.00625 23  Z " fill-rule="nonzero" fill="#000000" stroke="none" transform="matrix(1 0 0 1 522 63 )" />
  </g>
</svg>