<?xml version="1.0" encoding="utf-8"?>
<svg version="1.1" xmlns:xlink="http://www.w3.org/1999/xlink" width="18px" height="18px" xmlns="http://www.w3.org/2000/svg">
  <defs>
    <mask fill="white" id="clip16">
      <path d="M 15 18  C 10.005 18  6 13.995  6 9  L 6 9  C 6 4.005  10.005 0  15 0  L 15 0  C 19.995 0  24 4.005  24 9  L 24 9  C 24 13.995  19.995 18  15 18  " fill-rule="evenodd" />
    </mask>
  </defs>
  <g transform="matrix(1 0 0 1 -6 0 )">
    <path d="M 6 0  L 24 0  L 24 18  L 6 18  L 6 0  " fill-rule="nonzero" fill="#cccccc" stroke="none" mask="url(#clip16)" />
    <path d="M 7 1  L 23 1  L 23 17  L 7 17  L 7 1  " fill-rule="nonzero" fill="#ffffff" stroke="none" mask="url(#clip16)" />
    <path d="M 16.71 5.4  C 15.954 5.4  15.36 4.806  15.36 4.05  C 15.36 3.294  15.954 2.7  16.71 2.7  C 17.466 2.7  18.06 3.294  18.06 4.05  C 18.06 4.806  17.466 5.4  16.71 5.4  " fill-rule="nonzero" fill="#cccccc" stroke="none" mask="url(#clip16)" />
    <path d="M 8 17  L 8 8.75  L 11.75 5  L 17 8  L 20 7.25  L 23 8  L 23 17  L 8 17  " fill-rule="nonzero" fill="#169bd5" stroke="none" mask="url(#clip16)" />
  </g>
</svg>