<?xml version="1.0" encoding="utf-8"?>
<svg version="1.1" xmlns:xlink="http://www.w3.org/1999/xlink" width="26px" height="26px" xmlns="http://www.w3.org/2000/svg">
  <defs>
    <mask fill="white" id="clip10">
      <path d="M 13 33  C 5.785 33  0 27.215  0 20  L 0 20  C 0 12.785  5.785 7  13 7  L 13 7  C 20.215 7  26 12.785  26 20  L 26 20  C 26 27.215  20.215 33  13 33  " fill-rule="evenodd" />
    </mask>
  </defs>
  <g transform="matrix(1 0 0 1 0 -7 )">
    <path d="M 0 7  L 26 7  L 26 33  L 0 33  L 0 7  " fill-rule="nonzero" fill="#cccccc" stroke="none" mask="url(#clip10)" />
    <path d="M 2 9  L 24 9  L 24 31  L 2 31  L 2 9  " fill-rule="nonzero" fill="#ffffff" stroke="none" mask="url(#clip10)" />
    <path d="M 15.47 14.8  C 14.378 14.8  13.52 13.942  13.52 12.85  C 13.52 11.758  14.378 10.9  15.47 10.9  C 16.562 10.9  17.42 11.758  17.42 12.85  C 17.42 13.942  16.562 14.8  15.47 14.8  " fill-rule="nonzero" fill="#cccccc" stroke="none" mask="url(#clip10)" />
    <path d="M 3 31  L 3 19.45  L 8.25 14.2  L 15.6 18.4  L 19.8 17.35  L 24 18.4  L 24 31  L 3 31  " fill-rule="nonzero" fill="#169bd5" stroke="none" mask="url(#clip10)" />
  </g>
</svg>