<?xml version="1.0" encoding="utf-8"?>
<svg version="1.1" xmlns:xlink="http://www.w3.org/1999/xlink" width="50px" height="40px" xmlns="http://www.w3.org/2000/svg">
  <g transform="matrix(1 0 0 1 -13 -10 )">
    <path d="M 13 10  L 63 10  L 63 50  L 13 50  L 13 10  " fill-rule="nonzero" fill="#cccccc" stroke="none" />
    <path d="M 16 13  L 60 13  L 60 47  L 16 47  L 16 13  " fill-rule="nonzero" fill="#ffffff" stroke="none" />
    <path d="M 42 22  C 40.32 22  39 20.68  39 19  C 39 17.32  40.32 16  42 16  C 43.68 16  45 17.32  45 19  C 45 20.68  43.68 22  42 22  " fill-rule="nonzero" fill="#cccccc" stroke="none" />
    <path d="M 17 46  L 17 28.4  L 27.5 20.4  L 42.2 30.64  L 50.6 25.2  L 59 30.64  L 59 46  L 17 46  " fill-rule="nonzero" fill="#169bd5" stroke="none" />
  </g>
</svg>