<?xml version="1.0" encoding="utf-8"?>
<svg version="1.1" xmlns:xlink="http://www.w3.org/1999/xlink" width="26px" height="26px" xmlns="http://www.w3.org/2000/svg">
  <g transform="matrix(1 0 0 1 -414 -332 )">
    <path d="M 4.875 0  L 21.125 0  C 22.4678819444444 0  23.6161024305556 0.476779513888887  24.5696614583333 1.43033854166667  C 25.5232204861111 2.38389756944444  26 3.53211805555555  26 4.875  L 26 21.125  C 26 22.4678819444444  25.5232204861111 23.6161024305556  24.5696614583333 24.5696614583333  C 23.6161024305556 25.5232204861111  22.4678819444444 26  21.125 26  L 18 26  L 18 15.9283854166667  L 21.3111979166667 15.9283854166667  L 21.8190104166667 12.0013020833333  L 17.9427083333333 12.0013020833333  L 17.9427083333333 9.49609375  C 17.9427083333333 8.86414930555555  18.0753038194444 8.39019097222222  18.3404947916667 8.07421875  C 18.6056857638889 7.75824652777778  19.1219618055556 7.60026041666667  19.8893229166667 7.60026041666667  L 21.9544270833333 7.58333333333333  L 21.9544270833333 4.07942708333333  C 21.2434895833333 3.97786458333333  20.2391493055556 3.92708333333333  18.94140625 3.92708333333333  C 17.4066840277778 3.92708333333333  16.1794704861111 4.37847222222222  15.259765625 5.28125  C 14.3400607638889 6.18402777777778  13.8802083333333 7.45920138888889  13.8802083333333 9.10677083333333  L 13.8802083333333 12.0013020833333  L 10.4947916666667 12.0013020833333  L 10.4947916666667 15.9283854166667  L 13.8802083333333 15.9283854166667  L 13.8802083333333 26  L 4.875 26  C 3.53211805555556 26  2.38389756944444 25.5232204861111  1.43033854166667 24.5696614583333  C 0.476779513888889 23.6161024305556  0 22.4678819444444  0 21.125  L 0 4.875  C 0 3.53211805555555  0.476779513888889 2.38389756944444  1.43033854166667 1.43033854166667  C 2.38389756944444 0.476779513888887  3.53211805555556 0  4.875 0  Z " fill-rule="nonzero" fill="#000000" stroke="none" transform="matrix(1 0 0 1 414 332 )" />
  </g>
</svg>