<?xml version="1.0" encoding="utf-8"?>
<svg version="1.1" xmlns:xlink="http://www.w3.org/1999/xlink" width="25px" height="26px" xmlns="http://www.w3.org/2000/svg">
  <g transform="matrix(1 0 0 1 -334 -332 )">
    <path d="M 12.7574750830565 15.6067708333333  L 12.7574750830565 11.1380208333333  L 24.8006644518272 11.1380208333333  C 24.9335548172757 11.8940972222222  25 12.6163194444444  25 13.3046875  C 25 15.7534722222222  24.4961240310078 17.9398871527778  23.4883720930233 19.8639322916667  C 22.4806201550388 21.7879774305556  21.0437430786268 23.2916666666667  19.1777408637874 24.375  C 17.311738648948 25.4583333333333  15.171650055371 26  12.7574750830565 26  C 11.0188261351052 26  9.36323366555925 25.6586371527778  7.79069767441861 24.9759114583333  C 6.21816168327796 24.2931857638889  4.86157253599114 23.3706597222222  3.72093023255814 22.2083333333333  C 2.58028792912514 21.0460069444444  1.6749723145072 19.6636284722222  1.00498338870432 18.0611979166667  C 0.33499446290144 16.4587673611111  0 14.7717013888889  0 13  C 0 11.2282986111111  0.33499446290144 9.54123263888889  1.00498338870432 7.93880208333333  C 1.6749723145072 6.33637152777778  2.58028792912514 4.95399305555555  3.72093023255814 3.79166666666667  C 4.86157253599114 2.62934027777778  6.21816168327796 1.70681423611111  7.79069767441861 1.02408854166667  C 9.36323366555925 0.34136284722222  11.0188261351052 0  12.7574750830565 0  C 16.0797342192691 0  18.9313399778516 1.13411458333333  21.312292358804 3.40234375  L 17.8405315614618 6.8046875  C 16.4784053156146 5.46180555555555  14.7840531561462 4.79036458333333  12.7574750830565 4.79036458333333  C 11.328903654485 4.79036458333333  10.0083056478405 5.15711805555555  8.79568106312292 5.890625  C 7.58305647840532 6.62413194444444  6.62236987818383 7.62000868055555  5.91362126245847 8.87825520833333  C 5.20487264673311 10.1365017361111  4.85049833887043 11.5104166666667  4.85049833887043 13  C 4.85049833887043 14.4895833333333  5.20487264673311 15.8634982638889  5.91362126245847 17.1217447916667  C 6.62236987818383 18.3799913194444  7.58305647840532 19.3758680555556  8.79568106312292 20.109375  C 10.0083056478405 20.8428819444444  11.328903654485 21.2096354166667  12.7574750830565 21.2096354166667  C 13.7209302325581 21.2096354166667  14.6068660022148 21.07421875  15.4152823920266 20.8033854166667  C 16.2236987818383 20.5325520833333  16.8881506090808 20.1940104166667  17.4086378737542 19.7877604166667  C 17.9291251384275 19.3815104166667  18.3831672203765 18.9188368055556  18.7707641196013 18.3997395833333  C 19.1583610188261 17.8806423611111  19.4435215946844 17.3897569444444  19.6262458471761 16.9270833333333  C 19.8089700996678 16.4644097222222  19.9335548172757 16.0243055555556  20 15.6067708333333  L 12.7574750830565 15.6067708333333  Z " fill-rule="nonzero" fill="#000000" stroke="none" transform="matrix(1 0 0 1 334 332 )" />
  </g>
</svg>