<?xml version="1.0" encoding="utf-8"?>
<svg version="1.1" xmlns:xlink="http://www.w3.org/1999/xlink" width="21px" height="16px" xmlns="http://www.w3.org/2000/svg">
  <g transform="matrix(1 0 0 1 -513 -208 )">
    <path d="M 1.5 8  C 2.8046875 10.047619047619  4.47265625 11.5357142857143  6.50390625 12.4642857142857  L 7.41796875 10.7857142857143  C 6.73828125 10.2857142857143  6.20703125 9.65476190476191  5.82421875 8.89285714285714  C 5.44140625 8.13095238095238  5.25 7.32539682539682  5.25 6.47619047619048  C 5.25 5.51587301587302  5.48828125 4.62301587301587  5.96484375 3.79761904761905  C 4.17578125 4.72619047619048  2.6875 6.12698412698413  1.5 8  Z M 10.8984375 3.83333333333333  C 11.0078125 3.72222222222222  11.0625 3.58730158730159  11.0625 3.42857142857143  C 11.0625 3.26984126984127  11.0078125 3.13492063492063  10.8984375 3.02380952380952  C 10.7890625 2.91269841269841  10.65625 2.85714285714286  10.5 2.85714285714286  C 9.5234375 2.85714285714286  8.685546875 3.21230158730159  7.986328125 3.92261904761905  C 7.287109375 4.63293650793651  6.9375 5.48412698412698  6.9375 6.47619047619048  C 6.9375 6.63492063492063  6.9921875 6.76984126984127  7.1015625 6.88095238095238  C 7.2109375 6.99206349206349  7.34375 7.04761904761905  7.5 7.04761904761905  C 7.65625 7.04761904761905  7.7890625 6.99206349206349  7.8984375 6.88095238095238  C 8.0078125 6.76984126984127  8.0625 6.63492063492063  8.0625 6.47619047619048  C 8.0625 5.79365079365079  8.30078125 5.21031746031746  8.77734375 4.72619047619048  C 9.25390625 4.24206349206349  9.828125 4  10.5 4  C 10.65625 4  10.7890625 3.94444444444444  10.8984375 3.83333333333333  Z M 15.12890625 0.833333333333334  C 15.25390625 0.912698412698411  15.31640625 1.01984126984127  15.31640625 1.15476190476191  C 15.31640625 1.21031746031746  15.3125 1.24603174603174  15.3046875 1.26190476190476  C 14.4765625 2.76190476190476  13.2421875 5.01190476190476  11.6015625 8.01190476190476  C 9.9609375 11.0119047619048  8.73046875 13.2579365079365  7.91015625 14.75  L 7.3359375 15.8095238095238  C 7.2578125 15.9365079365079  7.1484375 16  7.0078125 16  C 6.9140625 16  6.390625 15.7222222222222  5.4375 15.1666666666667  C 5.3125 15.0873015873016  5.25 14.9761904761905  5.25 14.8333333333333  C 5.25 14.7380952380952  5.421875 14.3928571428571  5.765625 13.797619047619  C 4.6484375 13.281746031746  3.619140625 12.5952380952381  2.677734375 11.7380952380952  C 1.736328125 10.8809523809524  0.921875 9.90873015873016  0.234375 8.82142857142857  C 0.078125 8.57539682539682  0 8.3015873015873  0 8  C 0 7.6984126984127  0.078125 7.42460317460317  0.234375 7.17857142857143  C 1.4296875 5.31349206349206  2.9140625 3.84126984126984  4.6875 2.76190476190476  C 6.4609375 1.68253968253968  8.3984375 1.14285714285714  10.5 1.14285714285714  C 11.1953125 1.14285714285714  11.8984375 1.21031746031746  12.609375 1.34523809523809  L 13.2421875 0.19047619047619  C 13.3203125 0.0634920634920633  13.4296875 0  13.5703125 0  C 13.609375 0  13.6796875 0.0238095238095237  13.78125 0.0714285714285712  C 13.8828125 0.119047619047619  14.00390625 0.180555555555554  14.14453125 0.255952380952381  C 14.28515625 0.331349206349206  14.4140625 0.404761904761905  14.53125 0.476190476190476  C 14.6484375 0.547619047619047  14.771484375 0.621031746031743  14.900390625 0.696428571428571  C 15.029296875 0.771825396825395  15.10546875 0.817460317460316  15.12890625 0.833333333333334  Z M 15.65625 5.47619047619048  C 15.71875 5.83333333333333  15.75 6.16666666666667  15.75 6.47619047619048  C 15.75 7.57936507936508  15.44140625 8.58531746031746  14.82421875 9.49404761904762  C 14.20703125 10.4027777777778  13.390625 11.0555555555556  12.375 11.452380952381  L 15.65625 5.47619047619048  Z M 20.765625 7.17857142857143  C 20.921875 7.4484126984127  21 7.72222222222222  21 8  C 21 8.27777777777778  20.921875 8.5515873015873  20.765625 8.82142857142857  C 20.4609375 9.32936507936508  20.03515625 9.90476190476191  19.48828125 10.547619047619  C 18.31640625 11.9126984126984  16.958984375 12.9722222222222  15.416015625 13.7261904761905  C 13.873046875 14.4801587301587  12.234375 14.8571428571429  10.5 14.8571428571429  L 11.3671875 13.2857142857143  C 13.0234375 13.1428571428571  14.556640625 12.5992063492063  15.966796875 11.6547619047619  C 17.376953125 10.7103174603175  18.5546875 9.49206349206349  19.5 8  C 18.6015625 6.57936507936508  17.5 5.41269841269841  16.1953125 4.5  L 16.93359375 3.16666666666667  C 17.67578125 3.67460317460317  18.388671875 4.28174603174603  19.072265625 4.98809523809524  C 19.755859375 5.69444444444444  20.3203125 6.42460317460317  20.765625 7.17857142857143  Z " fill-rule="nonzero" fill="#7f7f7f" stroke="none" transform="matrix(1 0 0 1 513 208 )" />
  </g>
</svg>