<?xml version="1.0" encoding="utf-8"?>
<svg version="1.1" xmlns:xlink="http://www.w3.org/1999/xlink" width="31px" height="26px" xmlns="http://www.w3.org/2000/svg">
  <g transform="matrix(1 0 0 1 -493 -332 )">
    <path d="M 10.4227120535714 9.30143229166667  C 10.8551897321429 9.724609375  11.0714285714286 10.2352430555556  11.0714285714286 10.8333333333333  C 11.0714285714286 11.4314236111111  10.8551897321429 11.9420572916667  10.4227120535714 12.365234375  C 9.990234375 12.7884114583333  9.46837797619048 13  8.85714285714286 13  C 8.24590773809524 13  7.72405133928572 12.7884114583333  7.29157366071429 12.365234375  C 6.85909598214286 11.9420572916667  6.64285714285714 11.4314236111111  6.64285714285714 10.8333333333333  C 6.64285714285714 10.2352430555556  6.85909598214286 9.724609375  7.29157366071429 9.30143229166667  C 7.72405133928572 8.87825520833333  8.24590773809524 8.66666666666667  8.85714285714286 8.66666666666667  C 9.46837797619048 8.66666666666667  9.990234375 8.87825520833333  10.4227120535714 9.30143229166667  Z M 17.0655691964286 9.30143229166667  C 17.498046875 9.724609375  17.7142857142857 10.2352430555556  17.7142857142857 10.8333333333333  C 17.7142857142857 11.4314236111111  17.498046875 11.9420572916667  17.0655691964286 12.365234375  C 16.6330915178571 12.7884114583333  16.1112351190476 13  15.5 13  C 14.8887648809524 13  14.3669084821429 12.7884114583333  13.9344308035714 12.365234375  C 13.501953125 11.9420572916667  13.2857142857143 11.4314236111111  13.2857142857143 10.8333333333333  C 13.2857142857143 10.2352430555556  13.501953125 9.724609375  13.9344308035714 9.30143229166667  C 14.3669084821429 8.87825520833333  14.8887648809524 8.66666666666667  15.5 8.66666666666667  C 16.1112351190476 8.66666666666667  16.6330915178571 8.87825520833333  17.0655691964286 9.30143229166667  Z M 23.7084263392857 9.30143229166667  C 24.1409040178571 9.724609375  24.3571428571429 10.2352430555556  24.3571428571429 10.8333333333333  C 24.3571428571429 11.4314236111111  24.1409040178571 11.9420572916667  23.7084263392857 12.365234375  C 23.2759486607143 12.7884114583333  22.7540922619048 13  22.1428571428571 13  C 21.5316220238095 13  21.009765625 12.7884114583333  20.5772879464286 12.365234375  C 20.1448102678571 11.9420572916667  19.9285714285714 11.4314236111111  19.9285714285714 10.8333333333333  C 19.9285714285714 10.2352430555556  20.1448102678571 9.724609375  20.5772879464286 9.30143229166667  C 21.009765625 8.87825520833333  21.5316220238095 8.66666666666667  22.1428571428571 8.66666666666667  C 22.7540922619048 8.66666666666667  23.2759486607143 8.87825520833333  23.7084263392857 9.30143229166667  Z M 22.099609375 3.34309895833333  C 20.0525483630952 2.55881076388889  17.8526785714286 2.16666666666667  15.5 2.16666666666667  C 13.1473214285714 2.16666666666667  10.9474516369048 2.55881076388889  8.900390625 3.34309895833333  C 6.85332961309524 4.12738715277778  5.22721354166667 5.18532986111111  4.02204241071429 6.51692708333333  C 2.8168712797619 7.84852430555555  2.21428571428571 9.28732638888889  2.21428571428571 10.8333333333333  C 2.21428571428571 12.0972222222222  2.62658110119048 13.3018663194444  3.451171875 14.447265625  C 4.27576264880952 15.5926649305556  5.43768601190476 16.5828993055556  6.93694196428571 17.41796875  L 8.44196428571428 18.2643229166667  L 7.97488839285714 19.8893229166667  C 7.69810267857143 20.9162326388889  7.2944568452381 21.88671875  6.76395089285714 22.80078125  C 8.51692708333333 22.08984375  10.1026785714286 21.125  11.5212053571429 19.90625  L 12.2650669642857 19.2630208333333  L 13.2511160714286 19.3645833333333  C 14.046875 19.4548611111111  14.7965029761905 19.5  15.5 19.5  C 17.8526785714286 19.5  20.0525483630952 19.1078559027778  22.099609375 18.3235677083333  C 24.1466703869048 17.5392795138889  25.7727864583333 16.4813368055556  26.9779575892857 15.1497395833333  C 28.1831287202381 13.8181423611111  28.7857142857143 12.3793402777778  28.7857142857143 10.8333333333333  C 28.7857142857143 9.28732638888889  28.1831287202381 7.84852430555555  26.9779575892857 6.51692708333333  C 25.7727864583333 5.18532986111111  24.1466703869048 4.12738715277778  22.099609375 3.34309895833333  Z M 29.7717633928571 6.626953125  C 30.5905877976191 7.96419270833333  31 9.36631944444444  31 10.8333333333333  C 31 12.796875  30.3080357142857 14.6108940972222  28.9241071428571 16.275390625  C 27.5401785714286 17.9398871527778  25.6603422619048 19.2545572916667  23.2845982142857 20.2194010416667  C 20.9088541666667 21.1842447916667  18.3139880952381 21.6666666666667  15.5 21.6666666666667  C 14.6927083333333 21.6666666666667  13.8565848214286 21.6215277777778  12.9916294642857 21.53125  C 10.7081473214286 23.5060763888889  8.05561755952381 24.8715277777778  5.03404017857143 25.6276041666667  C 4.46893601190476 25.7855902777778  3.81156994047619 25.9097222222222  3.06194196428571 26  L 2.97544642857143 26  C 2.80245535714286 26  2.64676339285714 25.9407552083333  2.50837053571429 25.822265625  C 2.36997767857143 25.7037760416667  2.27771577380952 25.5486111111111  2.23158482142857 25.3567708333333  L 2.23158482142857 25.33984375  C 2.19698660714286 25.2947048611111  2.19410342261905 25.2269965277778  2.22293526785714 25.13671875  C 2.25176711309524 25.0464409722222  2.26329985119048 24.9900173611111  2.25753348214286 24.9674479166667  C 2.25176711309524 24.9448784722222  2.27771577380952 24.8912760416667  2.33537946428571 24.806640625  L 2.43917410714286 24.654296875  C 2.43917410714286 24.654296875  2.47953869047619 24.6063368055556  2.56026785714286 24.5104166666667  C 2.64099702380952 24.4144965277778  2.68712797619048 24.3637152777778  2.69866071428571 24.3580729166667  C 2.77938988095238 24.2677951388889  2.95814732142857 24.0731336805556  3.23493303571429 23.7740885416667  C 3.51171875 23.4750434027778  3.71065848214286 23.2606336805556  3.83175223214286 23.130859375  C 3.95284598214286 23.0010850694444  4.13160342261905 22.7782118055556  4.36802455357143 22.4622395833333  C 4.60444568452381 22.1462673611111  4.79185267857143 21.8585069444444  4.93024553571429 21.5989583333333  C 5.06863839285714 21.3394097222222  5.22433035714286 21.0065104166667  5.39732142857143 20.6002604166667  C 5.5703125 20.1940104166667  5.7202380952381 19.7651909722222  5.84709821428571 19.3138020833333  C 4.03645833333333 18.3094618055556  2.60928199404762 17.0681423611111  1.56556919642857 15.58984375  C 0.521856398809524 14.1115451388889  0 12.5260416666667  0 10.8333333333333  C 0 9.36631944444444  0.409412202380952 7.96419270833333  1.22823660714286 6.626953125  C 2.04706101190476 5.28971354166667  3.1484375 4.13585069444444  4.53236607142857 3.16536458333333  C 5.91629464285714 2.19487847222222  7.56547619047619 1.42469618055555  9.47991071428572 0.854817708333332  C 11.3943452380952 0.28493923611111  13.4010416666667 0  15.5 0  C 17.5989583333333 0  19.6056547619048 0.28493923611111  21.5200892857143 0.854817708333332  C 23.4345238095238 1.42469618055555  25.0837053571429 2.19487847222222  26.4676339285714 3.16536458333333  C 27.8515625 4.13585069444444  28.9529389880952 5.28971354166667  29.7717633928571 6.626953125  Z " fill-rule="nonzero" fill="#000000" stroke="none" transform="matrix(1 0 0 1 493 332 )" />
  </g>
</svg>