<?xml version="1.0" encoding="utf-8"?>
<svg version="1.1" xmlns:xlink="http://www.w3.org/1999/xlink" width="12px" height="12px" viewBox="230 396.5  12 12" xmlns="http://www.w3.org/2000/svg">
  <path d="M 236 396.5  C 239.36 396.5  242 399.14  242 402.5  C 242 405.86  239.36 408.5  236 408.5  C 232.64 408.5  230 405.86  230 402.5  C 230 399.14  232.64 396.5  236 396.5  Z " fill-rule="nonzero" fill="#ffffff" stroke="none" />
  <path d="M 236 397  C 239.08 397  241.5 399.42  241.5 402.5  C 241.5 405.58  239.08 408  236 408  C 232.92 408  230.5 405.58  230.5 402.5  C 230.5 399.42  232.92 397  236 397  Z " stroke-width="1" stroke="#797979" fill="none" />
  <path d="M 236 405.5  C 234.32 405.5  233 404.18  233 402.5  C 233 400.82  234.32 399.5  236 399.5  C 237.68 399.5  239 400.82  239 402.5  C 239 404.18  237.68 405.5  236 405.5  " fill-rule="nonzero" fill="#797979" stroke="none" />
</svg>