<?xml version="1.0" encoding="utf-8"?>
<svg version="1.1" xmlns:xlink="http://www.w3.org/1999/xlink" width="141px" height="237px" xmlns="http://www.w3.org/2000/svg">
  <g transform="matrix(1 0 0 1 -82 -188 )">
    <path d="M 82 188  L 223 188  L 223 425  L 82 425  L 82 188  " fill-rule="nonzero" fill="#cccccc" stroke="none" />
    <path d="M 92 198  L 213 198  L 213 415  L 92 415  L 92 198  " fill-rule="nonzero" fill="#ffffff" stroke="none" />
    <path d="M 165.895 244.7  C 159.973 244.7  155.32 240.047  155.32 234.125  C 155.32 228.203  159.973 223.55  165.895 223.55  C 171.817 223.55  176.47 228.203  176.47 234.125  C 176.47 240.047  171.817 244.7  165.895 244.7  " fill-rule="nonzero" fill="#cccccc" stroke="none" />
    <path d="M 96 412  L 96 296.5  L 124.5 244  L 164.4 286  L 187.2 275.5  L 210 286  L 210 412  L 96 412  " fill-rule="nonzero" fill="#169bd5" stroke="none" />
  </g>
</svg>