<?xml version="1.0" encoding="utf-8"?>
<svg version="1.1" xmlns:xlink="http://www.w3.org/1999/xlink" width="14px" height="14px" xmlns="http://www.w3.org/2000/svg">
  <g transform="matrix(1 0 0 1 -22 -145 )">
    <path d="M 9.78125 12.31640625  C 10.640625 11.8606770833333  11.3463541666667 11.2421875  11.8984375 10.4609375  C 11.7838541666667 9.65364583333333  11.5559895833333 8.98307291666667  11.21484375 8.44921875  C 10.8736979166667 7.91536458333333  10.3932291666667 7.60677083333333  9.7734375 7.5234375  C 9.42447916666667 7.90885416666667  9.00911458333333 8.20963541666666  8.52734375 8.42578125  C 8.04557291666667 8.64192708333333  7.53645833333333 8.75  7 8.75  C 6.46354166666667 8.75  5.95442708333333 8.64192708333333  5.47265625 8.42578125  C 4.99088541666667 8.20963541666666  4.57552083333333 7.90885416666667  4.2265625 7.5234375  C 3.60677083333333 7.60677083333333  3.12630208333333 7.91536458333333  2.78515625 8.44921875  C 2.44401041666667 8.98307291666667  2.21614583333333 9.65364583333333  2.1015625 10.4609375  C 2.65364583333333 11.2421875  3.359375 11.8606770833333  4.21875 12.31640625  C 5.078125 12.7721354166667  6.00520833333333 13  7 13  C 7.99479166666667 13  8.921875 12.7721354166667  9.78125 12.31640625  Z M 9.12109375 7.12109375  C 9.70703125 6.53515625  10 5.828125  10 5  C 10 4.171875  9.70703125 3.46484375  9.12109375 2.87890625  C 8.53515625 2.29296875  7.828125 2  7 2  C 6.171875 2  5.46484375 2.29296875  4.87890625 2.87890625  C 4.29296875 3.46484375  4 4.171875  4 5  C 4 5.828125  4.29296875 6.53515625  4.87890625 7.12109375  C 5.46484375 7.70703125  6.171875 8  7 8  C 7.828125 8  8.53515625 7.70703125  9.12109375 7.12109375  Z M 13.4453125 4.28125  C 13.8151041666667 5.14583333333333  14 6.05208333333333  14 7  C 14 7.94791666666667  13.8151041666667 8.85286458333333  13.4453125 9.71484375  C 13.0755208333333 10.5768229166667  12.5794270833333 11.3216145833333  11.95703125 11.94921875  C 11.3346354166667 12.5768229166667  10.5911458333333 13.0755208333333  9.7265625 13.4453125  C 8.86197916666667 13.8151041666667  7.953125 14  7 14  C 6.05208333333333 14  5.14583333333333 13.8151041666667  4.28125 13.4453125  C 3.41666666666667 13.0755208333333  2.671875 12.578125  2.046875 11.953125  C 1.421875 11.328125  0.924479166666667 10.5833333333333  0.5546875 9.71875  C 0.184895833333333 8.85416666666667  0 7.94791666666667  0 7  C 0 6.05208333333333  0.184895833333333 5.14583333333333  0.5546875 4.28125  C 0.924479166666667 3.41666666666667  1.421875 2.671875  2.046875 2.046875  C 2.671875 1.421875  3.41666666666667 0.924479166666666  4.28125 0.5546875  C 5.14583333333333 0.184895833333333  6.05208333333333 0  7 0  C 7.94791666666667 0  8.85416666666667 0.184895833333333  9.71875 0.5546875  C 10.5833333333333 0.924479166666666  11.328125 1.421875  11.953125 2.046875  C 12.578125 2.671875  13.0755208333333 3.41666666666667  13.4453125 4.28125  Z " fill-rule="nonzero" fill="#000000" stroke="none" transform="matrix(1 0 0 1 22 145 )" />
  </g>
</svg>