<?xml version="1.0" encoding="utf-8"?>
<svg version="1.1" xmlns:xlink="http://www.w3.org/1999/xlink" width="69px" height="69px" xmlns="http://www.w3.org/2000/svg">
  <g transform="matrix(1 0 0 1 -119 -1441 )">
    <path d="M 21.1004464285714 2.73381696428571  C 25.3616071428571 0.911272321428571  29.828125 0  34.5 0  C 39.171875 0  43.6383928571429 0.911272321428571  47.8995535714286 2.73381696428571  C 52.1607142857143 4.55636160714286  55.8314732142857 7.0078125  58.9118303571429 10.0881696428571  C 61.9921875 13.1685267857143  64.4436383928572 16.8392857142857  66.2661830357143 21.1004464285714  C 68.0887276785714 25.3616071428571  69 29.828125  69 34.5  C 69 39.171875  68.0887276785714 43.6383928571429  66.2661830357143 47.8995535714286  C 64.4436383928572 52.1607142857143  61.9921875 55.8314732142857  58.9118303571429 58.9118303571429  C 55.8314732142857 61.9921875  52.1607142857143 64.4436383928571  47.8995535714286 66.2661830357143  C 43.6383928571429 68.0887276785714  39.171875 69  34.5 69  C 29.828125 69  25.3616071428571 68.0887276785714  21.1004464285714 66.2661830357143  C 16.8392857142857 64.4436383928571  13.1685267857143 61.9921875  10.0881696428571 58.9118303571429  C 7.0078125 55.8314732142857  4.55636160714286 52.1607142857143  2.73381696428571 47.8995535714286  C 0.911272321428571 43.6383928571429  0 39.171875  0 34.5  C 0 29.828125  0.911272321428571 25.3616071428571  2.73381696428571 21.1004464285714  C 4.55636160714286 16.8392857142857  7.0078125 13.1685267857143  10.0881696428571 10.0881696428571  C 13.1685267857143 7.0078125  16.8392857142857 4.55636160714286  21.1004464285714 2.73381696428571  Z M 48.4001116071429 8.39397321428571  C 44.0106026785714 6.08370535714286  39.3772321428571 4.92857142857143  34.5 4.92857142857143  C 29.6227678571429 4.92857142857143  24.9893973214286 6.08370535714286  20.5998883928571 8.39397321428571  L 28.0697544642857 15.8638392857143  C 30.1746651785714 15.1450892857143  32.3180803571429 14.7857142857143  34.5 14.7857142857143  C 36.6819196428571 14.7857142857143  38.8253348214286 15.1450892857143  40.9302455357143 15.8638392857143  L 48.4001116071429 8.39397321428571  Z M 4.92857142857143 34.5  C 4.92857142857143 39.3772321428571  6.08370535714286 44.0106026785714  8.39397321428571 48.4001116071429  L 15.8638392857143 40.9302455357143  C 15.1450892857143 38.8253348214286  14.7857142857143 36.6819196428571  14.7857142857143 34.5  C 14.7857142857143 32.3180803571429  15.1450892857143 30.1746651785714  15.8638392857143 28.0697544642857  L 8.39397321428571 20.5998883928571  C 6.08370535714286 24.9893973214286  4.92857142857143 29.6227678571429  4.92857142857143 34.5  Z M 20.5998883928571 60.6060267857143  C 24.9893973214286 62.9162946428571  29.6227678571429 64.0714285714286  34.5 64.0714285714286  C 39.3772321428571 64.0714285714286  44.0106026785714 62.9162946428571  48.4001116071429 60.6060267857143  L 40.9302455357143 53.1361607142857  C 38.8253348214286 53.8549107142857  36.6819196428571 54.2142857142857  34.5 54.2142857142857  C 32.3180803571429 54.2142857142857  30.1746651785714 53.8549107142857  28.0697544642857 53.1361607142857  L 20.5998883928571 60.6060267857143  Z M 24.0460379464286 44.9539620535714  C 26.9338727678571 47.841796875  30.4185267857143 49.2857142857143  34.5 49.2857142857143  C 38.5814732142857 49.2857142857143  42.0661272321429 47.841796875  44.9539620535714 44.9539620535714  C 47.841796875 42.0661272321429  49.2857142857143 38.5814732142857  49.2857142857143 34.5  C 49.2857142857143 30.4185267857143  47.841796875 26.9338727678571  44.9539620535714 24.0460379464286  C 42.0661272321429 21.158203125  38.5814732142857 19.7142857142857  34.5 19.7142857142857  C 30.4185267857143 19.7142857142857  26.9338727678571 21.158203125  24.0460379464286 24.0460379464286  C 21.158203125 26.9338727678571  19.7142857142857 30.4185267857143  19.7142857142857 34.5  C 19.7142857142857 38.5814732142857  21.158203125 42.0661272321429  24.0460379464286 44.9539620535714  Z M 54.2142857142857 34.5  C 54.2142857142857 36.6819196428571  53.8549107142857 38.8253348214286  53.1361607142857 40.9302455357143  L 60.6060267857143 48.4001116071429  C 62.9162946428571 44.0106026785714  64.0714285714286 39.3772321428571  64.0714285714286 34.5  C 64.0714285714286 29.6227678571429  62.9162946428571 24.9893973214286  60.6060267857143 20.5998883928571  L 53.1361607142857 28.0697544642857  C 53.8549107142857 30.1746651785714  54.2142857142857 32.3180803571429  54.2142857142857 34.5  Z " fill-rule="nonzero" fill="#ffffff" stroke="none" transform="matrix(1 0 0 1 119 1441 )" />
  </g>
</svg>