<?xml version="1.0" encoding="utf-8"?>
<svg version="1.1" xmlns:xlink="http://www.w3.org/1999/xlink" width="44px" height="44px" xmlns="http://www.w3.org/2000/svg">
  <defs>
    <mask fill="white" id="clip31">
      <path d="M 52 51  C 39.79 51  30 41.21  30 29  L 30 29  C 30 16.79  39.79 7  52 7  L 52 7  C 64.21 7  74 16.79  74 29  L 74 29  C 74 41.21  64.21 51  52 51  " fill-rule="evenodd" />
    </mask>
  </defs>
  <g transform="matrix(1 0 0 1 -30 -7 )">
    <path d="M 30 7  L 74 7  L 74 51  L 30 51  L 30 7  " fill-rule="nonzero" fill="#cccccc" stroke="none" mask="url(#clip31)" />
    <path d="M 33 10  L 71 10  L 71 48  L 33 48  L 33 10  " fill-rule="nonzero" fill="#ffffff" stroke="none" mask="url(#clip31)" />
    <path d="M 56.18 20.2  C 54.332 20.2  52.88 18.748  52.88 16.9  C 52.88 15.052  54.332 13.6  56.18 13.6  C 58.028 13.6  59.48 15.052  59.48 16.9  C 59.48 18.748  58.028 20.2  56.18 20.2  " fill-rule="nonzero" fill="#cccccc" stroke="none" mask="url(#clip31)" />
    <path d="M 34 47  L 34 27.2  L 43 18.2  L 55.6 25.4  L 62.8 23.6  L 70 25.4  L 70 47  L 34 47  " fill-rule="nonzero" fill="#169bd5" stroke="none" mask="url(#clip31)" />
  </g>
</svg>