<?xml version="1.0" encoding="utf-8"?>
<svg version="1.1" xmlns:xlink="http://www.w3.org/1999/xlink" width="39px" height="39px" xmlns="http://www.w3.org/2000/svg">
  <g transform="matrix(1 0 0 1 -169 -649 )">
    <path d="M 188.5 649  C 199.42 649  208 657.58  208 668.5  C 208 679.42  199.42 688  188.5 688  C 177.58 688  169 679.42  169 668.5  C 169 657.58  177.58 649  188.5 649  Z " fill-rule="nonzero" fill="#ffffff" stroke="none" />
    <path d="M 188.5 649.5  C 199.14 649.5  207.5 657.86  207.5 668.5  C 207.5 679.14  199.14 687.5  188.5 687.5  C 177.86 687.5  169.5 679.14  169.5 668.5  C 169.5 657.86  177.86 649.5  188.5 649.5  Z " stroke-width="1" stroke="#797979" fill="none" />
  </g>
</svg>