<?xml version="1.0" encoding="utf-8"?>
<svg version="1.1" xmlns:xlink="http://www.w3.org/1999/xlink" width="21px" height="21px" xmlns="http://www.w3.org/2000/svg">
  <g transform="matrix(1 0 0 1 -227 -213 )">
    <path d="M 6.421875 0.83203125  C 7.71875 0.27734375  9.078125 0  10.5 0  C 11.921875 0  13.28125 0.27734375  14.578125 0.83203125  C 15.875 1.38671875  16.9921875 2.1328125  17.9296875 3.0703125  C 18.8671875 4.0078125  19.61328125 5.125  20.16796875 6.421875  C 20.72265625 7.71875  21 9.078125  21 10.5  C 21 11.921875  20.72265625 13.28125  20.16796875 14.578125  C 19.61328125 15.875  18.8671875 16.9921875  17.9296875 17.9296875  C 16.9921875 18.8671875  15.875 19.61328125  14.578125 20.16796875  C 13.28125 20.72265625  11.921875 21  10.5 21  C 9.078125 21  7.71875 20.72265625  6.421875 20.16796875  C 5.125 19.61328125  4.0078125 18.8671875  3.0703125 17.9296875  C 2.1328125 16.9921875  1.38671875 15.875  0.83203125 14.578125  C 0.27734375 13.28125  0 11.921875  0 10.5  C 0 9.078125  0.27734375 7.71875  0.83203125 6.421875  C 1.38671875 5.125  2.1328125 4.0078125  3.0703125 3.0703125  C 4.0078125 2.1328125  5.125 1.38671875  6.421875 0.83203125  Z M 14.73046875 2.5546875  C 13.39453125 1.8515625  11.984375 1.5  10.5 1.5  C 9.015625 1.5  7.60546875 1.8515625  6.26953125 2.5546875  L 8.54296875 4.828125  C 9.18359375 4.609375  9.8359375 4.5  10.5 4.5  C 11.1640625 4.5  11.81640625 4.609375  12.45703125 4.828125  L 14.73046875 2.5546875  Z M 1.5 10.5  C 1.5 11.984375  1.8515625 13.39453125  2.5546875 14.73046875  L 4.828125 12.45703125  C 4.609375 11.81640625  4.5 11.1640625  4.5 10.5  C 4.5 9.8359375  4.609375 9.18359375  4.828125 8.54296875  L 2.5546875 6.26953125  C 1.8515625 7.60546875  1.5 9.015625  1.5 10.5  Z M 6.26953125 18.4453125  C 7.60546875 19.1484375  9.015625 19.5  10.5 19.5  C 11.984375 19.5  13.39453125 19.1484375  14.73046875 18.4453125  L 12.45703125 16.171875  C 11.81640625 16.390625  11.1640625 16.5  10.5 16.5  C 9.8359375 16.5  9.18359375 16.390625  8.54296875 16.171875  L 6.26953125 18.4453125  Z M 7.318359375 13.681640625  C 8.197265625 14.560546875  9.2578125 15  10.5 15  C 11.7421875 15  12.802734375 14.560546875  13.681640625 13.681640625  C 14.560546875 12.802734375  15 11.7421875  15 10.5  C 15 9.2578125  14.560546875 8.197265625  13.681640625 7.318359375  C 12.802734375 6.439453125  11.7421875 6  10.5 6  C 9.2578125 6  8.197265625 6.439453125  7.318359375 7.318359375  C 6.439453125 8.197265625  6 9.2578125  6 10.5  C 6 11.7421875  6.439453125 12.802734375  7.318359375 13.681640625  Z M 16.5 10.5  C 16.5 11.1640625  16.390625 11.81640625  16.171875 12.45703125  L 18.4453125 14.73046875  C 19.1484375 13.39453125  19.5 11.984375  19.5 10.5  C 19.5 9.015625  19.1484375 7.60546875  18.4453125 6.26953125  L 16.171875 8.54296875  C 16.390625 9.18359375  16.5 9.8359375  16.5 10.5  Z " fill-rule="nonzero" fill="#f59a23" stroke="none" transform="matrix(1 0 0 1 227 213 )" />
  </g>
</svg>