<?xml version="1.0" encoding="utf-8"?>
<svg version="1.1" xmlns:xlink="http://www.w3.org/1999/xlink" width="22px" height="19px" xmlns="http://www.w3.org/2000/svg">
  <g transform="matrix(1 0 0 1 -436 -31 )">
    <path d="M 21.7667410714286 6.305625  C 21.9222470238095 6.45604166666667  22 6.63416666666667  22 6.84  C 22 7.04583333333333  21.9222470238095 7.22395833333333  21.7667410714286 7.374375  L 15.4810267857143 13.454375  C 15.3255208333333 13.6047916666667  15.141369047619 13.68  14.9285714285714 13.68  C 14.7157738095238 13.68  14.5316220238095 13.6047916666667  14.3761160714286 13.454375  C 14.2206101190476 13.3039583333333  14.1428571428571 13.1258333333333  14.1428571428571 12.92  L 14.1428571428571 9.88  L 11.3928571428571 9.88  C 10.5907738095238 9.88  9.8725818452381 9.90375  9.23828125 9.95125  C 8.60398065476191 9.99875  7.97377232142857 10.0838541666667  7.34765625 10.2065625  C 6.72154017857143 10.3292708333333  6.1772693452381 10.4975  5.71484375 10.71125  C 5.25241815476191 10.925  4.82068452380952 11.2001041666667  4.41964285714286 11.5365625  C 4.01860119047619 11.8730208333333  3.69122023809524 12.2728125  3.4375 12.7359375  C 3.18377976190476 13.1990625  2.98530505952381 13.7472916666667  2.84207589285714 14.380625  C 2.69884672619048 15.0139583333333  2.62723214285714 15.7304166666667  2.62723214285714 16.53  C 2.62723214285714 16.9654166666667  2.64769345238095 17.4522916666667  2.68861607142857 17.990625  C 2.68861607142857 18.038125  2.69884672619048 18.1311458333333  2.71930803571429 18.2696875  C 2.7397693452381 18.4082291666667  2.75 18.513125  2.75 18.584375  C 2.75 18.703125  2.71521577380952 18.8020833333333  2.64564732142857 18.88125  C 2.57607886904762 18.9604166666667  2.47991071428571 19  2.35714285714286 19  C 2.22619047619048 19  2.11160714285714 18.9327083333333  2.01339285714286 18.798125  C 1.95610119047619 18.726875  1.90290178571429 18.6397916666667  1.85379464285714 18.536875  C 1.8046875 18.4339583333333  1.74944196428571 18.3152083333333  1.68805803571429 18.180625  C 1.62667410714286 18.0460416666667  1.58370535714286 17.9510416666667  1.55915178571429 17.895625  C 0.519717261904762 15.639375  0 13.8541666666667  0 12.54  C 0 10.9645833333333  0.216889880952381 9.64645833333333  0.650669642857143 8.585625  C 1.9765625 5.39520833333333  5.55729166666667 3.8  11.3928571428571 3.8  L 14.1428571428571 3.8  L 14.1428571428571 0.760000000000001  C 14.1428571428571 0.554166666666665  14.2206101190476 0.376041666666664  14.3761160714286 0.225624999999999  C 14.5316220238095 0.0752083333333324  14.7157738095238 0  14.9285714285714 0  C 15.141369047619 0  15.3255208333333 0.0752083333333324  15.4810267857143 0.225624999999999  L 21.7667410714286 6.305625  Z " fill-rule="nonzero" fill="#000000" stroke="none" transform="matrix(1 0 0 1 436 31 )" />
  </g>
</svg>