<?xml version="1.0" encoding="utf-8"?>
<svg version="1.1" xmlns:xlink="http://www.w3.org/1999/xlink" width="73px" height="62px" xmlns="http://www.w3.org/2000/svg">
  <g transform="matrix(1 0 0 1 -95 -548 )">
    <path d="M 95 548  L 168 548  L 168 610  L 95 610  L 95 548  " fill-rule="nonzero" fill="#cccccc" stroke="none" />
    <path d="M 99 552  L 164 552  L 164 606  L 99 606  L 99 552  " fill-rule="nonzero" fill="#ffffff" stroke="none" />
    <path d="M 137.61 566.6  C 135.006 566.6  132.96 564.554  132.96 561.95  C 132.96 559.346  135.006 557.3  137.61 557.3  C 140.214 557.3  142.26 559.346  142.26 561.95  C 142.26 564.554  140.214 566.6  137.61 566.6  " fill-rule="nonzero" fill="#cccccc" stroke="none" />
    <path d="M 101 605  L 101 576.95  L 116.5 564.2  L 138.2 579.01095890411  L 150.6 571.85  L 163 579.01095890411  L 163 605  L 101 605  " fill-rule="nonzero" fill="#169bd5" stroke="none" />
  </g>
</svg>