<?xml version="1.0" encoding="utf-8"?>
<svg version="1.1" xmlns:xlink="http://www.w3.org/1999/xlink" width="96px" height="82px" xmlns="http://www.w3.org/2000/svg">
  <g>
    <path d="M 0 0  L 96 0  L 96 82  L 0 82  L 0 0  " fill-rule="nonzero" fill="#cccccc" stroke="none" />
    <path d="M 6 6  L 90 6  L 90 76  L 6 76  L 6 6  " fill-rule="nonzero" fill="#ffffff" stroke="none" />
    <path d="M 56.07 24.6  C 52.626 24.6  49.92 21.894  49.92 18.45  C 49.92 15.006  52.626 12.3  56.07 12.3  C 59.514 12.3  62.22 15.006  62.22 18.45  C 62.22 21.894  59.514 24.6  56.07 24.6  " fill-rule="nonzero" fill="#cccccc" stroke="none" />
    <path d="M 8 74  L 8 37.7  L 28 21.2  L 56 40.175  L 72 31.1  L 88 40.175  L 88 74  L 8 74  " fill-rule="nonzero" fill="#169bd5" stroke="none" />
  </g>
</svg>