<?xml version="1.0" encoding="utf-8"?>
<svg version="1.1" xmlns:xlink="http://www.w3.org/1999/xlink" width="36px" height="36px" xmlns="http://www.w3.org/2000/svg">
  <g transform="matrix(1 0 0 1 -416 -224 )">
    <path d="M 34.7150027886224 0  C 34.9827105409928 0  35.2236475181261 0.0736607142857175  35.4378137200223 0.220982142857145  C 35.8795315114334 0.542410714285715  36.0602342442833 0.970982142857142  35.9799219185722 1.50669642857143  L 30.8399330730619 32.3638392857143  C 30.7730061349693 32.7522321428571  30.5588399330731 33.0535714285714  30.1974344673731 33.2678571428571  C 30.0100390407139 33.375  29.8025655326269 33.4285714285714  29.5750139431121 33.4285714285714  C 29.4277746793084 33.4285714285714  29.2671500278862 33.3950892857143  29.0931399888455 33.328125  L 19.9977691020636 29.6116071428571  L 15.1388733965421 35.5379464285714  C 14.8979364194088 35.8459821428571  14.5699944227552 36  14.1550474065811 36  C 13.9810373675404 36  13.8337981037368 35.9732142857143  13.7133296151701 35.9196428571429  C 13.4590072504183 35.8258928571429  13.2548800892359 35.6685267857143  13.100948131623 35.4475446428571  C 12.94701617401 35.2265625  12.8700501952036 34.9821428571429  12.8700501952036 34.7142857142857  L 12.8700501952036 27.703125  L 30.2175125488009 6.42857142857143  L 8.75404350250976 25.0111607142857  L 0.823201338538762 21.7566964285714  C 0.327941996653653 21.5691964285714  0.060234244283324 21.2008928571429  0.0200780814277747 20.6517857142857  C -0.00669269380925823 20.1160714285714  0.207473508087005 19.7209821428571  0.662576687116564 19.4665178571429  L 34.0725041829336 0.18080357142857  C 34.2732849972114 0.0602678571428554  34.4874511991076 0  34.7150027886224 0  Z " fill-rule="nonzero" fill="#000000" stroke="none" transform="matrix(1 0 0 1 416 224 )" />
  </g>
</svg>