<?xml version="1.0" encoding="utf-8"?>
<svg version="1.1" xmlns:xlink="http://www.w3.org/1999/xlink" width="33px" height="36px" xmlns="http://www.w3.org/2000/svg">
  <g transform="matrix(1 0 0 1 -541 -224 )">
    <path d="M 22.9849759615385 27.3113839285714  C 23.5402644230769 26.6618303571429  23.8179086538462 25.8482142857143  23.8179086538462 24.8705357142857  C 23.8179086538462 24.1071428571429  23.7815504807692 23.390625  23.7088341346154 22.7209821428571  C 23.6361177884615 22.0513392857143  23.4972956730769 21.3783482142857  23.2923677884615 20.7020089285714  C 23.0874399038462 20.0256696428571  22.8263221153846 19.4497767857143  22.5090144230769 18.9743303571429  C 22.1917067307692 18.4988839285714  21.7686298076923 18.1104910714286  21.2397836538462 17.8091517857143  C 20.7109375 17.5078125  20.109375 17.3571428571429  19.4350961538462 17.3571428571429  C 19.3557692307692 17.4107142857143  19.1343149038462 17.5479910714286  18.7707331730769 17.7689732142857  C 18.4071514423077 17.9899553571429  18.1262019230769 18.1540178571429  17.9278846153846 18.2611607142857  C 17.7295673076923 18.3683035714286  17.4618389423077 18.5022321428571  17.1246995192308 18.6629464285714  C 16.7875600961538 18.8236607142857  16.4636418269231 18.9375  16.1529447115385 19.0044642857143  C 15.8422475961538 19.0714285714286  15.5348557692308 19.1049107142857  15.2307692307692 19.1049107142857  C 14.9266826923077 19.1049107142857  14.6192908653846 19.0714285714286  14.30859375 19.0044642857143  C 13.9978966346154 18.9375  13.6739783653846 18.8236607142857  13.3368389423077 18.6629464285714  C 12.9996995192308 18.5022321428571  12.7319711538462 18.3683035714286  12.5336538461538 18.2611607142857  C 12.3353365384615 18.1540178571429  12.0543870192308 17.9899553571429  11.6908052884615 17.7689732142857  C 11.3272235576923 17.5479910714286  11.1057692307692 17.4107142857143  11.0264423076923 17.3571428571429  C 10.3521634615385 17.3571428571429  9.75060096153846 17.5078125  9.22175480769231 17.8091517857143  C 8.69290865384616 18.1104910714286  8.26983173076923 18.4988839285714  7.95252403846154 18.9743303571429  C 7.63521634615385 19.4497767857143  7.37409855769231 20.0256696428571  7.16917067307692 20.7020089285714  C 6.96424278846154 21.3783482142857  6.82542067307692 22.0513392857143  6.75270432692308 22.7209821428571  C 6.67998798076923 23.390625  6.64362980769231 24.1071428571429  6.64362980769231 24.8705357142857  C 6.64362980769231 25.8482142857143  6.92127403846154 26.6618303571429  7.4765625 27.3113839285714  C 8.03185096153846 27.9609375  8.71274038461539 28.2857142857143  9.51923076923077 28  L 20.9423076923077 28  C 21.7487980769231 28.2857142857143  22.4296875 27.9609375  22.9849759615385 27.3113839285714  Z M 18.8698918269231 16.6138392857143  C 19.8813100961538 15.5959821428571  20.3870192307692 14.3705357142857  20.3870192307692 12.9375  C 20.3870192307692 11.4910714285714  19.8813100961538 10.2589285714286  18.8698918269231 9.24107142857143  C 17.8584735576923 8.22321428571428  16.6454326923077 7.71428571428572  15.2307692307692 7.71428571428572  C 13.8161057692308 7.71428571428572  12.6030649038462 8.22321428571428  11.5916466346154 9.24107142857143  C 10.5802283653846 10.2589285714286  10.0745192307692 11.4910714285714  10.0745192307692 12.9375  C 10.0745192307692 14.3705357142857  10.5802283653846 15.5959821428571  11.5916466346154 16.6138392857143  C 12.6030649038462 17.6316964285714  13.8161057692308 18.140625  15.2307692307692 18.140625  C 16.6454326923077 18.140625  17.8584735576923 17.6316964285714  18.8698918269231 16.6138392857143  Z M 32.8215144230769 23.3236607142857  C 32.9405048076923 23.4441964285714  33 23.5982142857143  33 23.7857142857143  L 33 27.6428571428571  C 33 27.8303571428571  32.9405048076923 27.984375  32.8215144230769 28.1049107142857  C 32.7025240384615 28.2254464285714  32.5504807692308 28.2857142857143  32.3653846153846 28.2857142857143  L 30.4615384615385 28.2857142857143  L 30.4615384615385 32.7857142857143  C 30.4615384615385 33.6696428571429  30.1508413461538 34.4263392857143  29.5294471153846 35.0558035714286  C 28.9080528846154 35.6852678571429  28.1610576923077 36  27.2884615384615 36  L 3.17307692307692 36  C 2.30048076923077 36  1.55348557692308 35.6852678571429  0.932091346153846 35.0558035714286  C 0.310697115384615 34.4263392857143  0 33.6696428571429  0 32.7857142857143  L 0 3.21428571428571  C 0 2.33035714285714  0.310697115384615 1.57366071428571  0.932091346153846 0.94419642857143  C 1.55348557692308 0.314732142857143  2.30048076923077 0  3.17307692307692 0  L 27.2884615384615 0  C 28.1610576923077 0  28.9080528846154 0.314732142857143  29.5294471153846 0.94419642857143  C 30.1508413461538 1.57366071428571  30.4615384615385 2.33035714285714  30.4615384615385 3.21428571428571  L 30.4615384615385 7.71428571428572  L 32.3653846153846 7.71428571428572  C 32.5504807692308 7.71428571428572  32.7025240384615 7.77455357142857  32.8215144230769 7.89508928571428  C 32.9405048076923 8.015625  33 8.16964285714285  33 8.35714285714286  L 33 12.2142857142857  C 33 12.4017857142857  32.9405048076923 12.5558035714286  32.8215144230769 12.6763392857143  C 32.7025240384615 12.796875  32.5504807692308 12.8571428571429  32.3653846153846 12.8571428571429  L 30.4615384615385 12.8571428571429  L 30.4615384615385 15.4285714285714  L 32.3653846153846 15.4285714285714  C 32.5504807692308 15.4285714285714  32.7025240384615 15.4888392857143  32.8215144230769 15.609375  C 32.9405048076923 15.7299107142857  33 15.8839285714286  33 16.0714285714286  L 33 19.9285714285714  C 33 20.1160714285714  32.9405048076923 20.2700892857143  32.8215144230769 20.390625  C 32.7025240384615 20.5111607142857  32.5504807692308 20.5714285714286  32.3653846153846 20.5714285714286  L 30.4615384615385 20.5714285714286  L 30.4615384615385 23.1428571428571  L 32.3653846153846 23.1428571428571  C 32.5504807692308 23.1428571428571  32.7025240384615 23.203125  32.8215144230769 23.3236607142857  Z " fill-rule="nonzero" fill="#000000" stroke="none" transform="matrix(1 0 0 1 541 224 )" />
  </g>
</svg>