<?xml version="1.0" encoding="utf-8"?>
<svg version="1.1" xmlns:xlink="http://www.w3.org/1999/xlink" width="18px" height="18px" xmlns="http://www.w3.org/2000/svg">
  <g transform="matrix(1 0 0 1 -233 -327 )">
    <path d="M 14.7421875 13.6640625  C 14.9140625 13.25  15 12.85546875  15 12.48046875  C 15 12.39453125  14.9921875 12.33203125  14.9765625 12.29296875  C 14.9609375 12.25390625  14.890625 12.189453125  14.765625 12.099609375  C 14.640625 12.009765625  14.482421875 11.912109375  14.291015625 11.806640625  C 14.099609375 11.701171875  13.9140625 11.59765625  13.734375 11.49609375  C 13.5546875 11.39453125  13.376953125 11.296875  13.201171875 11.203125  C 13.025390625 11.109375  12.9140625 11.05078125  12.8671875 11.02734375  C 12.828125 11.00390625  12.75390625 10.953125  12.64453125 10.875  C 12.53515625 10.796875  12.4375 10.73828125  12.3515625 10.69921875  C 12.265625 10.66015625  12.18359375 10.640625  12.10546875 10.640625  C 11.98828125 10.640625  11.845703125 10.720703125  11.677734375 10.880859375  C 11.509765625 11.041015625  11.35546875 11.216796875  11.21484375 11.408203125  C 11.07421875 11.599609375  10.923828125 11.775390625  10.763671875 11.935546875  C 10.603515625 12.095703125  10.47265625 12.17578125  10.37109375 12.17578125  C 10.31640625 12.17578125  10.251953125 12.162109375  10.177734375 12.134765625  C 10.103515625 12.107421875  10.04296875 12.08203125  9.99609375 12.05859375  C 9.94921875 12.03515625  9.8828125 11.998046875  9.796875 11.947265625  C 9.7109375 11.896484375  9.65625 11.86328125  9.6328125 11.84765625  C 8.859375 11.41796875  8.1953125 10.923828125  7.640625 10.365234375  C 7.0859375 9.806640625  6.58984375 9.140625  6.15234375 8.3671875  C 6.13671875 8.34375  6.103515625 8.2890625  6.052734375 8.203125  C 6.001953125 8.1171875  5.96484375 8.05078125  5.94140625 8.00390625  C 5.91796875 7.95703125  5.892578125 7.896484375  5.865234375 7.822265625  C 5.837890625 7.748046875  5.82421875 7.68359375  5.82421875 7.62890625  C 5.82421875 7.52734375  5.904296875 7.396484375  6.064453125 7.236328125  C 6.224609375 7.076171875  6.400390625 6.92578125  6.591796875 6.78515625  C 6.783203125 6.64453125  6.958984375 6.490234375  7.119140625 6.322265625  C 7.279296875 6.154296875  7.359375 6.01171875  7.359375 5.89453125  C 7.359375 5.81640625  7.33984375 5.734375  7.30078125 5.6484375  C 7.26171875 5.5625  7.203125 5.46484375  7.125 5.35546875  C 7.046875 5.24609375  6.99609375 5.171875  6.97265625 5.1328125  C 6.94921875 5.0859375  6.890625 4.974609375  6.796875 4.798828125  C 6.703125 4.623046875  6.60546875 4.4453125  6.50390625 4.265625  C 6.40234375 4.0859375  6.298828125 3.900390625  6.193359375 3.708984375  C 6.087890625 3.517578125  5.990234375 3.359375  5.900390625 3.234375  C 5.810546875 3.109375  5.74609375 3.0390625  5.70703125 3.0234375  C 5.66796875 3.0078125  5.60546875 3  5.51953125 3  C 5.14453125 3  4.75 3.0859375  4.3359375 3.2578125  C 3.9765625 3.421875  3.6640625 3.791015625  3.3984375 4.365234375  C 3.1328125 4.939453125  3 5.44921875  3 5.89453125  C 3 6.01953125  3.009765625 6.15234375  3.029296875 6.29296875  C 3.048828125 6.43359375  3.068359375 6.552734375  3.087890625 6.650390625  C 3.107421875 6.748046875  3.142578125 6.876953125  3.193359375 7.037109375  C 3.244140625 7.197265625  3.283203125 7.3125  3.310546875 7.3828125  C 3.337890625 7.453125  3.38671875 7.58203125  3.45703125 7.76953125  C 3.52734375 7.95703125  3.5703125 8.07421875  3.5859375 8.12109375  C 4.0546875 9.40234375  4.900390625 10.654296875  6.123046875 11.876953125  C 7.345703125 13.099609375  8.59765625 13.9453125  9.87890625 14.4140625  C 9.92578125 14.4296875  10.04296875 14.47265625  10.23046875 14.54296875  C 10.41796875 14.61328125  10.546875 14.662109375  10.6171875 14.689453125  C 10.6875 14.716796875  10.802734375 14.755859375  10.962890625 14.806640625  C 11.123046875 14.857421875  11.251953125 14.892578125  11.349609375 14.912109375  C 11.447265625 14.931640625  11.56640625 14.951171875  11.70703125 14.970703125  C 11.84765625 14.990234375  11.98046875 15  12.10546875 15  C 12.55078125 15  13.060546875 14.8671875  13.634765625 14.6015625  C 14.208984375 14.3359375  14.578125 14.0234375  14.7421875 13.6640625  Z M 17.009765625 0.990234375000001  C 17.669921875 1.650390625  18 2.4453125  18 3.375  L 18 14.625  C 18 15.5546875  17.669921875 16.349609375  17.009765625 17.009765625  C 16.349609375 17.669921875  15.5546875 18  14.625 18  L 3.375 18  C 2.4453125 18  1.650390625 17.669921875  0.990234375 17.009765625  C 0.330078125 16.349609375  0 15.5546875  0 14.625  L 0 3.375  C 0 2.4453125  0.330078125 1.650390625  0.990234375 0.990234375000001  C 1.650390625 0.330078124999999  2.4453125 0  3.375 0  L 14.625 0  C 15.5546875 0  16.349609375 0.330078124999999  17.009765625 0.990234375000001  Z " fill-rule="nonzero" fill="#000000" stroke="none" transform="matrix(1 0 0 1 233 327 )" />
  </g>
</svg>