<?xml version="1.0" encoding="utf-8"?>
<svg version="1.1" xmlns:xlink="http://www.w3.org/1999/xlink" width="22px" height="18px" xmlns="http://www.w3.org/2000/svg">
  <g transform="matrix(1 0 0 1 -351 -66 )">
    <path d="M 5.75219512195122 6.92307692307692  L 2.28585365853659 6.92307692307692  L 8.97170731707317 14.1165865384615  L 5.75219512195122 6.92307692307692  Z M 7.25463414634146 6.92307692307692  L 11 15.2740384615385  L 14.7453658536585 6.92307692307692  L 7.25463414634146 6.92307692307692  Z M 2.07121951219512 5.53846153846154  L 5.78439024390244 5.53846153846154  L 7.97365853658537 1.38461538461538  L 5.1619512195122 1.38461538461538  L 2.07121951219512 5.53846153846154  Z M 16.2478048780488 6.92307692307692  L 13.0282926829268 14.1165865384615  L 19.7141463414634 6.92307692307692  L 16.2478048780488 6.92307692307692  Z M 9.52975609756098 1.38461538461538  L 7.34048780487805 5.53846153846154  L 14.659512195122 5.53846153846154  L 12.470243902439 1.38461538461538  L 9.52975609756098 1.38461538461538  Z M 14.0263414634146 1.38461538461538  L 16.2156097560976 5.53846153846154  L 19.9287804878049 5.53846153846154  L 16.8380487804878 1.38461538461538  L 14.0263414634146 1.38461538461538  Z M 17.1814634146341 0  C 17.4175609756098 0  17.6 0.0937499999999987  17.7287804878049 0.28125  L 21.849756097561 5.81971153846154  C 21.949918699187 5.94951923076923  21.9964227642276 6.09915865384615  21.9892682926829 6.26862980769231  C 21.9821138211382 6.43810096153846  21.9213008130081 6.58413461538461  21.8068292682927 6.70673076923077  L 11.5043902439024 17.7836538461538  C 11.3756097560976 17.9278846153846  11.2074796747967 18  11 18  C 10.7925203252033 18  10.6243902439024 17.9278846153846  10.4956097560976 17.7836538461538  L 0.193170731707317 6.70673076923077  C 0.0786991869918699 6.58413461538461  0.0178861788617886 6.43810096153846  0.0107317073170732 6.26862980769231  C 0.00357723577235772 6.09915865384615  0.0500813008130081 5.94951923076923  0.150243902439024 5.81971153846154  L 4.27121951219512 0.28125  C 4.4 0.0937499999999987  4.58243902439024 0  4.81853658536585 0  L 17.1814634146341 0  Z " fill-rule="nonzero" fill="#000000" stroke="none" transform="matrix(1 0 0 1 351 66 )" />
  </g>
</svg>