<?xml version="1.0" encoding="utf-8"?>
<svg version="1.1" xmlns:xlink="http://www.w3.org/1999/xlink" width="163px" height="299px" xmlns="http://www.w3.org/2000/svg">
  <g>
    <path d="M 0 0  L 163 0  L 163 299  L 0 299  L 0 0  " fill-rule="nonzero" fill="#cccccc" stroke="none" />
    <path d="M 11 11  L 152 11  L 152 288  L 11 288  L 11 11  " fill-rule="nonzero" fill="#ffffff" stroke="none" />
    <path d="M 96.985 69.3  C 90.139 69.3  84.76 63.921  84.76 57.075  C 84.76 50.229  90.139 44.85  96.985 44.85  C 103.831 44.85  109.21 50.229  109.21 57.075  C 109.21 63.921  103.831 69.3  96.985 69.3  " fill-rule="nonzero" fill="#cccccc" stroke="none" />
    <path d="M 15 284  L 15 136.05  L 48.25 68.8  L 94.8 122.6  L 121.4 109.15  L 148 122.6  L 148 284  L 15 284  " fill-rule="nonzero" fill="#169bd5" stroke="none" />
  </g>
</svg>