<?xml version="1.0" encoding="utf-8"?>
<svg version="1.1" xmlns:xlink="http://www.w3.org/1999/xlink" width="34px" height="26px" xmlns="http://www.w3.org/2000/svg">
  <g transform="matrix(1 0 0 1 -423 -200 )">
    <path d="M 33.8197544642857 16.8980654761905  C 33.9399181547619 17.0205853174603  34 17.1656746031746  34 17.3333333333333  L 34 21.047619047619  C 34 21.2152777777778  33.9399181547619 21.3603670634921  33.8197544642857 21.4828869047619  C 33.6995907738095 21.6054067460317  33.5572916666667 21.6666666666667  33.3928571428571 21.6666666666667  L 7.28571428571429 21.6666666666667  L 7.28571428571429 25.3809523809524  C 7.28571428571429 25.5486111111111  7.22563244047619 25.6937003968254  7.10546875 25.8162202380952  C 6.98530505952381 25.9387400793651  6.84300595238095 26  6.67857142857143 26  C 6.52678571428571 26  6.375 25.9355158730159  6.22321428571429 25.8065476190476  L 0.170758928571429 19.6160714285714  C 0.0569196428571429 19.5  0 19.3581349206349  0 19.1904761904762  C 0 19.0099206349206  0.0569196428571429 18.8616071428571  0.170758928571429 18.7455357142857  L 6.2421875 12.5550595238095  C 6.35602678571429 12.4389880952381  6.5014880952381 12.3809523809524  6.67857142857143 12.3809523809524  C 6.84300595238095 12.3809523809524  6.98530505952381 12.4422123015873  7.10546875 12.5647321428571  C 7.22563244047619 12.687251984127  7.28571428571429 12.8323412698413  7.28571428571429 13  L 7.28571428571429 16.7142857142857  L 33.3928571428571 16.7142857142857  C 33.5572916666667 16.7142857142857  33.6995907738095 16.7755456349206  33.8197544642857 16.8980654761905  Z M 33.8292410714286 6.36458333333333  C 33.9430803571429 6.48065476190476  34 6.62896825396825  34 6.80952380952381  C 34 6.99007936507936  33.9430803571429 7.13839285714286  33.8292410714286 7.25446428571428  L 27.7578125 13.4449404761905  C 27.6439732142857 13.5610119047619  27.4985119047619 13.6190476190476  27.3214285714286 13.6190476190476  C 27.1569940476191 13.6190476190476  27.0146949404762 13.5577876984127  26.89453125 13.4352678571429  C 26.7743675595238 13.312748015873  26.7142857142857 13.1676587301587  26.7142857142857 13  L 26.7142857142857 9.28571428571428  L 0.607142857142857 9.28571428571428  C 0.442708333333333 9.28571428571428  0.300409226190476 9.22445436507937  0.180245535714286 9.10193452380952  C 0.0600818452380952 8.97941468253968  0 8.8343253968254  0 8.66666666666667  L 0 4.95238095238095  C 0 4.78472222222222  0.0600818452380952 4.63963293650794  0.180245535714286 4.5171130952381  C 0.300409226190476 4.39459325396825  0.442708333333333 4.33333333333333  0.607142857142857 4.33333333333333  L 26.7142857142857 4.33333333333333  L 26.7142857142857 0.61904761904762  C 26.7142857142857 0.438492063492062  26.7712053571429 0.290178571428572  26.8850446428571 0.174107142857144  C 26.9988839285714 0.0580357142857155  27.1443452380952 0  27.3214285714286 0  C 27.4732142857143 0  27.625 0.0644841269841268  27.7767857142857 0.19345238095238  L 33.8292410714286 6.36458333333333  Z " fill-rule="nonzero" fill="#000000" stroke="none" transform="matrix(1 0 0 1 423 200 )" />
  </g>
</svg>