<?xml version="1.0" encoding="utf-8"?>
<svg version="1.1" xmlns:xlink="http://www.w3.org/1999/xlink" width="30px" height="30px" xmlns="http://www.w3.org/2000/svg">
  <g transform="matrix(1 0 0 1 -248 -190 )">
    <path d="M 9.17410714285714 1.18861607142857  C 11.0267857142857 0.396205357142857  12.96875 0  15 0  C 17.03125 0  18.9732142857143 0.396205357142857  20.8258928571429 1.18861607142857  C 22.6785714285714 1.98102678571428  24.2745535714286 3.046875  25.6138392857143 4.38616071428571  C 26.953125 5.72544642857143  28.0189732142857 7.32142857142857  28.8113839285714 9.17410714285714  C 29.6037946428571 11.0267857142857  30 12.96875  30 15  C 30 17.03125  29.6037946428571 18.9732142857143  28.8113839285714 20.8258928571429  C 28.0189732142857 22.6785714285714  26.953125 24.2745535714286  25.6138392857143 25.6138392857143  C 24.2745535714286 26.953125  22.6785714285714 28.0189732142857  20.8258928571429 28.8113839285714  C 18.9732142857143 29.6037946428571  17.03125 30  15 30  C 12.96875 30  11.0267857142857 29.6037946428571  9.17410714285714 28.8113839285714  C 7.32142857142857 28.0189732142857  5.72544642857143 26.953125  4.38616071428571 25.6138392857143  C 3.046875 24.2745535714286  1.98102678571429 22.6785714285714  1.18861607142857 20.8258928571429  C 0.396205357142857 18.9732142857143  0 17.03125  0 15  C 0 12.96875  0.396205357142857 11.0267857142857  1.18861607142857 9.17410714285714  C 1.98102678571429 7.32142857142857  3.046875 5.72544642857143  4.38616071428571 4.38616071428571  C 5.72544642857143 3.046875  7.32142857142857 1.98102678571428  9.17410714285714 1.18861607142857  Z M 21.0435267857143 3.64955357142857  C 19.1350446428571 2.64508928571429  17.1205357142857 2.14285714285714  15 2.14285714285714  C 12.8794642857143 2.14285714285714  10.8649553571429 2.64508928571429  8.95647321428572 3.64955357142857  L 12.2042410714286 6.89732142857143  C 13.1194196428571 6.58482142857143  14.0513392857143 6.42857142857143  15 6.42857142857143  C 15.9486607142857 6.42857142857143  16.8805803571429 6.58482142857143  17.7957589285714 6.89732142857143  L 21.0435267857143 3.64955357142857  Z M 2.14285714285714 15  C 2.14285714285714 17.1205357142857  2.64508928571429 19.1350446428571  3.64955357142857 21.0435267857143  L 6.89732142857143 17.7957589285714  C 6.58482142857143 16.8805803571429  6.42857142857143 15.9486607142857  6.42857142857143 15  C 6.42857142857143 14.0513392857143  6.58482142857143 13.1194196428571  6.89732142857143 12.2042410714286  L 3.64955357142857 8.95647321428571  C 2.64508928571429 10.8649553571429  2.14285714285714 12.8794642857143  2.14285714285714 15  Z M 8.95647321428572 26.3504464285714  C 10.8649553571429 27.3549107142857  12.8794642857143 27.8571428571429  15 27.8571428571429  C 17.1205357142857 27.8571428571429  19.1350446428571 27.3549107142857  21.0435267857143 26.3504464285714  L 17.7957589285714 23.1026785714286  C 16.8805803571429 23.4151785714286  15.9486607142857 23.5714285714286  15 23.5714285714286  C 14.0513392857143 23.5714285714286  13.1194196428571 23.4151785714286  12.2042410714286 23.1026785714286  L 8.95647321428572 26.3504464285714  Z M 10.4547991071429 19.5452008928571  C 11.7103794642857 20.80078125  13.2254464285714 21.4285714285714  15 21.4285714285714  C 16.7745535714286 21.4285714285714  18.2896205357143 20.80078125  19.5452008928571 19.5452008928571  C 20.80078125 18.2896205357143  21.4285714285714 16.7745535714286  21.4285714285714 15  C 21.4285714285714 13.2254464285714  20.80078125 11.7103794642857  19.5452008928571 10.4547991071429  C 18.2896205357143 9.19921875  16.7745535714286 8.57142857142857  15 8.57142857142857  C 13.2254464285714 8.57142857142857  11.7103794642857 9.19921875  10.4547991071429 10.4547991071429  C 9.19921875 11.7103794642857  8.57142857142857 13.2254464285714  8.57142857142857 15  C 8.57142857142857 16.7745535714286  9.19921875 18.2896205357143  10.4547991071429 19.5452008928571  Z M 23.5714285714286 15  C 23.5714285714286 15.9486607142857  23.4151785714286 16.8805803571429  23.1026785714286 17.7957589285714  L 26.3504464285714 21.0435267857143  C 27.3549107142857 19.1350446428571  27.8571428571429 17.1205357142857  27.8571428571429 15  C 27.8571428571429 12.8794642857143  27.3549107142857 10.8649553571429  26.3504464285714 8.95647321428571  L 23.1026785714286 12.2042410714286  C 23.4151785714286 13.1194196428571  23.5714285714286 14.0513392857143  23.5714285714286 15  Z " fill-rule="nonzero" fill="#f59a23" stroke="none" transform="matrix(1 0 0 1 248 190 )" />
  </g>
</svg>