<?xml version="1.0" encoding="utf-8"?>
<svg version="1.1" xmlns:xlink="http://www.w3.org/1999/xlink" width="22px" height="20px" xmlns="http://www.w3.org/2000/svg">
  <g transform="matrix(1 0 0 1 -590 -121 )">
    <path d="M 0 4.28571428571429  L 11 0  L 22 4.28571428571429  L 22 5.71428571428571  L 20.5333333333333 5.71428571428571  C 20.5333333333333 5.90773809523809  20.4550347222222 6.07514880952381  20.2984375 6.21651785714286  C 20.1418402777778 6.3578869047619  19.9565972222222 6.42857142857143  19.7427083333333 6.42857142857143  L 2.25729166666667 6.42857142857143  C 2.04340277777778 6.42857142857143  1.85815972222222 6.3578869047619  1.7015625 6.21651785714286  C 1.54496527777778 6.07514880952381  1.46666666666667 5.90773809523809  1.46666666666667 5.71428571428571  L 0 5.71428571428571  L 0 4.28571428571429  Z M 2.93333333333333 15.7142857142857  L 2.93333333333333 7.14285714285714  L 5.86666666666667 7.14285714285714  L 5.86666666666667 15.7142857142857  L 7.33333333333333 15.7142857142857  L 7.33333333333333 7.14285714285714  L 10.2666666666667 7.14285714285714  L 10.2666666666667 15.7142857142857  L 11.7333333333333 15.7142857142857  L 11.7333333333333 7.14285714285714  L 14.6666666666667 7.14285714285714  L 14.6666666666667 15.7142857142857  L 16.1333333333333 15.7142857142857  L 16.1333333333333 7.14285714285714  L 19.0666666666667 7.14285714285714  L 19.0666666666667 15.7142857142857  L 19.7427083333333 15.7142857142857  C 19.9565972222222 15.7142857142857  20.1418402777778 15.7849702380952  20.2984375 15.9263392857143  C 20.4550347222222 16.0677083333333  20.5333333333333 16.235119047619  20.5333333333333 16.4285714285714  L 20.5333333333333 17  L 1.46666666666667 17  L 1.46666666666667 16.4285714285714  C 1.46666666666667 16.235119047619  1.54496527777778 16.0677083333333  1.7015625 15.9263392857143  C 1.85815972222222 15.7849702380952  2.04340277777778 15.7142857142857  2.25729166666667 15.7142857142857  L 2.93333333333333 15.7142857142857  Z M 0.790625 17.8571428571429  L 21.209375 17.8571428571429  C 21.4232638888889 17.8571428571429  21.6085069444444 17.9278273809524  21.7651041666667 18.0691964285714  C 21.9217013888889 18.2105654761905  22 18.3779761904762  22 18.5714285714286  L 22 20  L 0 20  L 0 18.5714285714286  C 0 18.3779761904762  0.0782986111111111 18.2105654761905  0.234895833333333 18.0691964285714  C 0.391493055555556 17.9278273809524  0.576736111111111 17.8571428571429  0.790625 17.8571428571429  Z " fill-rule="nonzero" fill="#000000" stroke="none" transform="matrix(1 0 0 1 590 121 )" />
  </g>
</svg>