<?xml version="1.0" encoding="utf-8"?>
<svg version="1.1" xmlns:xlink="http://www.w3.org/1999/xlink" width="20px" height="20px" xmlns="http://www.w3.org/2000/svg">
  <g transform="matrix(1 0 0 1 -552 -84 )">
    <path d="M 6.11607142857143 0.792410714285714  C 7.35119047619048 0.264136904761905  8.64583333333333 0  10 0  C 11.3541666666667 0  12.6488095238095 0.264136904761905  13.8839285714286 0.792410714285714  C 15.1190476190476 1.32068452380952  16.1830357142857 2.03125  17.0758928571429 2.92410714285714  C 17.96875 3.81696428571429  18.6793154761905 4.88095238095238  19.2075892857143 6.11607142857143  C 19.7358630952381 7.35119047619047  20 8.64583333333333  20 10  C 20 11.3541666666667  19.7358630952381 12.6488095238095  19.2075892857143 13.8839285714286  C 18.6793154761905 15.1190476190476  17.96875 16.1830357142857  17.0758928571429 17.0758928571429  C 16.1830357142857 17.96875  15.1190476190476 18.6793154761905  13.8839285714286 19.2075892857143  C 12.6488095238095 19.7358630952381  11.3541666666667 20  10 20  C 8.64583333333333 20  7.35119047619048 19.7358630952381  6.11607142857143 19.2075892857143  C 4.88095238095238 18.6793154761905  3.81696428571429 17.96875  2.92410714285714 17.0758928571429  C 2.03125 16.1830357142857  1.32068452380952 15.1190476190476  0.792410714285714 13.8839285714286  C 0.264136904761905 12.6488095238095  0 11.3541666666667  0 10  C 0 8.64583333333333  0.264136904761905 7.35119047619047  0.792410714285714 6.11607142857143  C 1.32068452380952 4.88095238095238  2.03125 3.81696428571429  2.92410714285714 2.92410714285714  C 3.81696428571429 2.03125  4.88095238095238 1.32068452380952  6.11607142857143 0.792410714285714  Z M 14.0290178571429 2.43303571428571  C 12.7566964285714 1.76339285714286  11.4136904761905 1.42857142857143  10 1.42857142857143  C 8.58630952380952 1.42857142857143  7.24330357142857 1.76339285714286  5.97098214285714 2.43303571428571  L 8.13616071428571 4.59821428571429  C 8.74627976190476 4.38988095238095  9.36755952380952 4.28571428571429  10 4.28571428571429  C 10.6324404761905 4.28571428571429  11.2537202380952 4.38988095238095  11.8638392857143 4.59821428571429  L 14.0290178571429 2.43303571428571  Z M 1.42857142857143 10  C 1.42857142857143 11.4136904761905  1.76339285714286 12.7566964285714  2.43303571428571 14.0290178571429  L 4.59821428571429 11.8638392857143  C 4.38988095238095 11.2537202380952  4.28571428571429 10.6324404761905  4.28571428571429 10  C 4.28571428571429 9.36755952380952  4.38988095238095 8.74627976190476  4.59821428571429 8.13616071428571  L 2.43303571428571 5.97098214285714  C 1.76339285714286 7.24330357142857  1.42857142857143 8.58630952380952  1.42857142857143 10  Z M 5.97098214285714 17.5669642857143  C 7.24330357142857 18.2366071428571  8.58630952380952 18.5714285714286  10 18.5714285714286  C 11.4136904761905 18.5714285714286  12.7566964285714 18.2366071428571  14.0290178571429 17.5669642857143  L 11.8638392857143 15.4017857142857  C 11.2537202380952 15.610119047619  10.6324404761905 15.7142857142857  10 15.7142857142857  C 9.36755952380952 15.7142857142857  8.74627976190476 15.610119047619  8.13616071428571 15.4017857142857  L 5.97098214285714 17.5669642857143  Z M 6.96986607142857 13.0301339285714  C 7.80691964285714 13.8671875  8.81696428571429 14.2857142857143  10 14.2857142857143  C 11.1830357142857 14.2857142857143  12.1930803571429 13.8671875  13.0301339285714 13.0301339285714  C 13.8671875 12.1930803571429  14.2857142857143 11.1830357142857  14.2857142857143 10  C 14.2857142857143 8.81696428571429  13.8671875 7.80691964285714  13.0301339285714 6.96986607142857  C 12.1930803571429 6.1328125  11.1830357142857 5.71428571428571  10 5.71428571428571  C 8.81696428571429 5.71428571428571  7.80691964285714 6.1328125  6.96986607142857 6.96986607142857  C 6.1328125 7.80691964285714  5.71428571428571 8.81696428571429  5.71428571428571 10  C 5.71428571428571 11.1830357142857  6.1328125 12.1930803571429  6.96986607142857 13.0301339285714  Z M 15.7142857142857 10  C 15.7142857142857 10.6324404761905  15.610119047619 11.2537202380952  15.4017857142857 11.8638392857143  L 17.5669642857143 14.0290178571429  C 18.2366071428571 12.7566964285714  18.5714285714286 11.4136904761905  18.5714285714286 10  C 18.5714285714286 8.58630952380952  18.2366071428571 7.24330357142857  17.5669642857143 5.97098214285714  L 15.4017857142857 8.13616071428571  C 15.610119047619 8.74627976190476  15.7142857142857 9.36755952380952  15.7142857142857 10  Z " fill-rule="nonzero" fill="#000000" stroke="none" transform="matrix(1 0 0 1 552 84 )" />
  </g>
</svg>