<?xml version="1.0" encoding="utf-8"?>
<svg version="1.1" xmlns:xlink="http://www.w3.org/1999/xlink" width="59px" height="59px" xmlns="http://www.w3.org/2000/svg">
  <g transform="matrix(1 0 0 1 -1128 -440 )">
    <path d="M 18.0424107142857 2.33761160714286  C 21.6860119047619 0.779203869047619  25.5052083333333 0  29.5 0  C 33.4947916666667 0  37.3139880952381 0.779203869047619  40.9575892857143 2.33761160714286  C 44.6011904761905 3.89601934523809  47.7399553571429 5.9921875  50.3738839285714 8.62611607142857  C 53.0078125 11.2600446428571  55.1039806547619 14.3988095238095  56.6623883928571 18.0424107142857  C 58.2207961309524 21.6860119047619  59 25.5052083333333  59 29.5  C 59 33.4947916666667  58.2207961309524 37.3139880952381  56.6623883928571 40.9575892857143  C 55.1039806547619 44.6011904761905  53.0078125 47.7399553571429  50.3738839285714 50.3738839285714  C 47.7399553571429 53.0078125  44.6011904761905 55.1039806547619  40.9575892857143 56.6623883928571  C 37.3139880952381 58.2207961309524  33.4947916666667 59  29.5 59  C 25.5052083333333 59  21.6860119047619 58.2207961309524  18.0424107142857 56.6623883928571  C 14.3988095238095 55.1039806547619  11.2600446428571 53.0078125  8.62611607142857 50.3738839285714  C 5.9921875 47.7399553571429  3.8960193452381 44.6011904761905  2.33761160714286 40.9575892857143  C 0.779203869047619 37.3139880952381  0 33.4947916666667  0 29.5  C 0 25.5052083333333  0.779203869047619 21.6860119047619  2.33761160714286 18.0424107142857  C 3.8960193452381 14.3988095238095  5.9921875 11.2600446428571  8.62611607142857 8.62611607142857  C 11.2600446428571 5.9921875  14.3988095238095 3.89601934523809  18.0424107142857 2.33761160714286  Z M 41.3856026785714 7.17745535714286  C 37.6322544642857 5.20200892857143  33.6703869047619 4.21428571428571  29.5 4.21428571428571  C 25.3296130952381 4.21428571428571  21.3677455357143 5.20200892857143  17.6143973214286 7.17745535714286  L 24.0016741071429 13.5647321428571  C 25.8015252976191 12.9501488095238  27.6343005952381 12.6428571428571  29.5 12.6428571428571  C 31.3656994047619 12.6428571428571  33.198474702381 12.9501488095238  34.9983258928571 13.5647321428571  L 41.3856026785714 7.17745535714286  Z M 4.21428571428571 29.5  C 4.21428571428571 33.6703869047619  5.20200892857143 37.6322544642857  7.17745535714286 41.3856026785714  L 13.5647321428571 34.9983258928571  C 12.9501488095238 33.1984747023809  12.6428571428571 31.3656994047619  12.6428571428571 29.5  C 12.6428571428571 27.6343005952381  12.9501488095238 25.801525297619  13.5647321428571 24.0016741071429  L 7.17745535714286 17.6143973214286  C 5.20200892857143 21.3677455357143  4.21428571428571 25.3296130952381  4.21428571428571 29.5  Z M 17.6143973214286 51.8225446428571  C 21.3677455357143 53.7979910714286  25.3296130952381 54.7857142857143  29.5 54.7857142857143  C 33.6703869047619 54.7857142857143  37.6322544642857 53.7979910714286  41.3856026785714 51.8225446428571  L 34.9983258928571 45.4352678571429  C 33.198474702381 46.0498511904762  31.3656994047619 46.3571428571429  29.5 46.3571428571429  C 27.6343005952381 46.3571428571429  25.8015252976191 46.0498511904762  24.0016741071429 45.4352678571429  L 17.6143973214286 51.8225446428571  Z M 20.5611049107143 38.4388950892857  C 23.0304129464286 40.908203125  26.0100446428571 42.1428571428571  29.5 42.1428571428571  C 32.9899553571429 42.1428571428571  35.9695870535714 40.908203125  38.4388950892857 38.4388950892857  C 40.908203125 35.9695870535714  42.1428571428571 32.9899553571429  42.1428571428571 29.5  C 42.1428571428571 26.0100446428571  40.908203125 23.0304129464286  38.4388950892857 20.5611049107143  C 35.9695870535714 18.091796875  32.9899553571429 16.8571428571429  29.5 16.8571428571429  C 26.0100446428571 16.8571428571429  23.0304129464286 18.091796875  20.5611049107143 20.5611049107143  C 18.091796875 23.0304129464286  16.8571428571429 26.0100446428571  16.8571428571429 29.5  C 16.8571428571429 32.9899553571429  18.091796875 35.9695870535714  20.5611049107143 38.4388950892857  Z M 46.3571428571429 29.5  C 46.3571428571429 31.3656994047619  46.0498511904762 33.1984747023809  45.4352678571429 34.9983258928571  L 51.8225446428571 41.3856026785714  C 53.7979910714286 37.6322544642857  54.7857142857143 33.6703869047619  54.7857142857143 29.5  C 54.7857142857143 25.3296130952381  53.7979910714286 21.3677455357143  51.8225446428571 17.6143973214286  L 45.4352678571429 24.0016741071429  C 46.0498511904762 25.801525297619  46.3571428571429 27.6343005952381  46.3571428571429 29.5  Z " fill-rule="nonzero" fill="#000000" stroke="none" transform="matrix(1 0 0 1 1128 440 )" />
  </g>
</svg>