<?xml version="1.0" encoding="utf-8"?>
<svg version="1.1" xmlns:xlink="http://www.w3.org/1999/xlink" width="59px" height="49px" xmlns="http://www.w3.org/2000/svg">
  <g transform="matrix(1 0 0 1 -931 -444 )">
    <path d="M 15.4263414634146 18.8461538461538  L 6.13024390243902 18.8461538461538  L 24.060487804878 38.4284855769231  L 15.4263414634146 18.8461538461538  Z M 19.4556097560976 19  L 29.5 41.5793269230769  L 39.5443902439024 19  L 19.4556097560976 19  Z M 5.55463414634146 15.0769230769231  L 15.5126829268293 15.0769230769231  L 21.3839024390244 3.76923076923077  L 13.8434146341463 3.76923076923077  L 5.55463414634146 15.0769230769231  Z M 43.5736585365854 18.8461538461538  L 34.9395121951219 38.4284855769231  L 52.869756097561 18.8461538461538  L 43.5736585365854 18.8461538461538  Z M 25.5570731707317 3.76923076923077  L 19.6858536585366 15  L 39.3141463414634 15  L 33.4429268292683 3.76923076923077  L 25.5570731707317 3.76923076923077  Z M 37.6160975609756 3.76923076923077  L 43.4873170731707 15.0769230769231  L 53.4453658536585 15.0769230769231  L 45.1565853658537 3.76923076923077  L 37.6160975609756 3.76923076923077  Z M 46.0775609756098 0  C 46.7107317073171 0  47.2 0.25520833333333  47.5453658536585 0.765625  L 58.5970731707317 15.8425480769231  C 58.8656910569106 16.1959134615385  58.990406504065 16.603265224359  58.9712195121951 17.0646033653846  C 58.9520325203252 17.5259415064103  58.7889430894309 17.9234775641026  58.4819512195122 18.2572115384615  L 30.8526829268293 48.4110576923077  C 30.5073170731707 48.8036858974359  30.0564227642276 49  29.5 49  C 28.9435772357724 49  28.4926829268293 48.8036858974359  28.1473170731707 48.4110576923077  L 0.518048780487805 18.2572115384615  C 0.211056910569106 17.9234775641026  0.0479674796747967 17.5259415064103  0.0287804878048781 17.0646033653846  C 0.00959349593495935 16.603265224359  0.134308943089431 16.1959134615385  0.402926829268293 15.8425480769231  L 11.4546341463415 0.765625  C 11.8 0.25520833333333  12.2892682926829 0  12.9224390243902 0  L 46.0775609756098 0  Z " fill-rule="nonzero" fill="#000000" stroke="none" transform="matrix(1 0 0 1 931 444 )" />
  </g>
</svg>