<?xml version="1.0" encoding="utf-8"?>
<svg version="1.1" xmlns:xlink="http://www.w3.org/1999/xlink" width="41px" height="41px" xmlns="http://www.w3.org/2000/svg">
  <g transform="matrix(1 0 0 1 -634 -294 )">
    <path d="M 12.5379464285714 1.62444196428571  C 15.0699404761905 0.541480654761905  17.7239583333333 0  20.5 0  C 23.2760416666667 0  25.9300595238095 0.541480654761905  28.4620535714286 1.62444196428571  C 30.9940476190476 2.70740327380952  33.1752232142857 4.1640625  35.0055803571429 5.99441964285714  C 36.8359375 7.82477678571429  38.2925967261905 10.0059523809524  39.3755580357143 12.5379464285714  C 40.4585193452381 15.0699404761905  41 17.7239583333333  41 20.5  C 41 23.2760416666667  40.4585193452381 25.9300595238095  39.3755580357143 28.4620535714286  C 38.2925967261905 30.9940476190476  36.8359375 33.1752232142857  35.0055803571429 35.0055803571429  C 33.1752232142857 36.8359375  30.9940476190476 38.2925967261905  28.4620535714286 39.3755580357143  C 25.9300595238095 40.4585193452381  23.2760416666667 41  20.5 41  C 17.7239583333333 41  15.0699404761905 40.4585193452381  12.5379464285714 39.3755580357143  C 10.0059523809524 38.2925967261905  7.82477678571429 36.8359375  5.99441964285714 35.0055803571429  C 4.1640625 33.1752232142857  2.70740327380952 30.9940476190476  1.62444196428571 28.4620535714286  C 0.541480654761905 25.9300595238095  0 23.2760416666667  0 20.5  C 0 17.7239583333333  0.541480654761905 15.0699404761905  1.62444196428571 12.5379464285714  C 2.70740327380952 10.0059523809524  4.1640625 7.82477678571429  5.99441964285714 5.99441964285714  C 7.82477678571429 4.1640625  10.0059523809524 2.70740327380952  12.5379464285714 1.62444196428571  Z M 28.7594866071429 4.98772321428571  C 26.1512276785714 3.61495535714286  23.3980654761905 2.92857142857143  20.5 2.92857142857143  C 17.6019345238095 2.92857142857143  14.8487723214286 3.61495535714286  12.2405133928571 4.98772321428571  L 16.6791294642857 9.42633928571429  C 17.9298735119048 8.99925595238095  19.2034970238095 8.78571428571429  20.5 8.78571428571429  C 21.7965029761905 8.78571428571429  23.0701264880952 8.99925595238095  24.3208705357143 9.42633928571429  L 28.7594866071429 4.98772321428571  Z M 2.92857142857143 20.5  C 2.92857142857143 23.3980654761905  3.61495535714286 26.1512276785714  4.98772321428571 28.7594866071429  L 9.42633928571428 24.3208705357143  C 8.99925595238095 23.0701264880952  8.78571428571428 21.7965029761905  8.78571428571428 20.5  C 8.78571428571428 19.2034970238095  8.99925595238095 17.9298735119048  9.42633928571428 16.6791294642857  L 4.98772321428571 12.2405133928571  C 3.61495535714286 14.8487723214286  2.92857142857143 17.6019345238095  2.92857142857143 20.5  Z M 12.2405133928571 36.0122767857143  C 14.8487723214286 37.3850446428571  17.6019345238095 38.0714285714286  20.5 38.0714285714286  C 23.3980654761905 38.0714285714286  26.1512276785714 37.3850446428571  28.7594866071429 36.0122767857143  L 24.3208705357143 31.5736607142857  C 23.0701264880952 32.0007440476191  21.7965029761905 32.2142857142857  20.5 32.2142857142857  C 19.2034970238095 32.2142857142857  17.9298735119048 32.0007440476191  16.6791294642857 31.5736607142857  L 12.2405133928571 36.0122767857143  Z M 14.2882254464286 26.7117745535714  C 16.0041852678571 28.427734375  18.0747767857143 29.2857142857143  20.5 29.2857142857143  C 22.9252232142857 29.2857142857143  24.9958147321429 28.427734375  26.7117745535714 26.7117745535714  C 28.427734375 24.9958147321429  29.2857142857143 22.9252232142857  29.2857142857143 20.5  C 29.2857142857143 18.0747767857143  28.427734375 16.0041852678571  26.7117745535714 14.2882254464286  C 24.9958147321429 12.572265625  22.9252232142857 11.7142857142857  20.5 11.7142857142857  C 18.0747767857143 11.7142857142857  16.0041852678571 12.572265625  14.2882254464286 14.2882254464286  C 12.572265625 16.0041852678571  11.7142857142857 18.0747767857143  11.7142857142857 20.5  C 11.7142857142857 22.9252232142857  12.572265625 24.9958147321429  14.2882254464286 26.7117745535714  Z M 32.2142857142857 20.5  C 32.2142857142857 21.7965029761905  32.0007440476191 23.0701264880952  31.5736607142857 24.3208705357143  L 36.0122767857143 28.7594866071429  C 37.3850446428571 26.1512276785714  38.0714285714286 23.3980654761905  38.0714285714286 20.5  C 38.0714285714286 17.6019345238095  37.3850446428571 14.8487723214286  36.0122767857143 12.2405133928571  L 31.5736607142857 16.6791294642857  C 32.0007440476191 17.9298735119048  32.2142857142857 19.2034970238095  32.2142857142857 20.5  Z " fill-rule="nonzero" fill="#000000" stroke="none" transform="matrix(1 0 0 1 634 294 )" />
  </g>
</svg>