<?xml version="1.0" encoding="utf-8"?>
<svg version="1.1" xmlns:xlink="http://www.w3.org/1999/xlink" width="50px" height="50px" xmlns="http://www.w3.org/2000/svg">
  <g transform="matrix(1 0 0 1 -441 -285 )">
    <path d="M 15.2901785714286 1.98102678571428  C 18.3779761904762 0.660342261904762  21.6145833333333 0  25 0  C 28.3854166666667 0  31.6220238095238 0.660342261904762  34.7098214285714 1.98102678571428  C 37.7976190476191 3.30171130952381  40.4575892857143 5.078125  42.6897321428571 7.31026785714286  C 44.921875 9.54241071428572  46.6982886904762 12.2023809523809  48.0189732142857 15.2901785714286  C 49.3396577380952 18.3779761904762  50 21.6145833333333  50 25  C 50 28.3854166666667  49.3396577380952 31.6220238095238  48.0189732142857 34.7098214285714  C 46.6982886904762 37.797619047619  44.921875 40.4575892857143  42.6897321428571 42.6897321428571  C 40.4575892857143 44.921875  37.7976190476191 46.6982886904762  34.7098214285714 48.0189732142857  C 31.6220238095238 49.3396577380952  28.3854166666667 50  25 50  C 21.6145833333333 50  18.3779761904762 49.3396577380952  15.2901785714286 48.0189732142857  C 12.202380952381 46.6982886904762  9.54241071428571 44.921875  7.31026785714286 42.6897321428571  C 5.078125 40.4575892857143  3.30171130952381 37.797619047619  1.98102678571429 34.7098214285714  C 0.660342261904762 31.6220238095238  0 28.3854166666667  0 25  C 0 21.6145833333333  0.660342261904762 18.3779761904762  1.98102678571429 15.2901785714286  C 3.30171130952381 12.2023809523809  5.078125 9.54241071428572  7.31026785714286 7.31026785714286  C 9.54241071428571 5.078125  12.202380952381 3.30171130952381  15.2901785714286 1.98102678571428  Z M 35.0725446428571 6.08258928571428  C 31.8917410714286 4.40848214285715  28.5342261904762 3.57142857142857  25 3.57142857142857  C 21.4657738095238 3.57142857142857  18.1082589285714 4.40848214285715  14.9274553571429 6.08258928571428  L 20.3404017857143 11.4955357142857  C 21.8656994047619 10.9747023809524  23.4188988095238 10.7142857142857  25 10.7142857142857  C 26.5811011904762 10.7142857142857  28.1343005952381 10.9747023809524  29.6595982142857 11.4955357142857  L 35.0725446428571 6.08258928571428  Z M 3.57142857142857 25  C 3.57142857142857 28.5342261904762  4.40848214285714 31.8917410714286  6.08258928571429 35.0725446428571  L 11.4955357142857 29.6595982142857  C 10.9747023809524 28.1343005952381  10.7142857142857 26.5811011904762  10.7142857142857 25  C 10.7142857142857 23.4188988095238  10.9747023809524 21.8656994047619  11.4955357142857 20.3404017857143  L 6.08258928571429 14.9274553571429  C 4.40848214285714 18.1082589285714  3.57142857142857 21.4657738095238  3.57142857142857 25  Z M 14.9274553571429 43.9174107142857  C 18.1082589285714 45.5915178571429  21.4657738095238 46.4285714285714  25 46.4285714285714  C 28.5342261904762 46.4285714285714  31.8917410714286 45.5915178571429  35.0725446428571 43.9174107142857  L 29.6595982142857 38.5044642857143  C 28.1343005952381 39.0252976190476  26.5811011904762 39.2857142857143  25 39.2857142857143  C 23.4188988095238 39.2857142857143  21.8656994047619 39.0252976190476  20.3404017857143 38.5044642857143  L 14.9274553571429 43.9174107142857  Z M 17.4246651785714 32.5753348214286  C 19.5172991071429 34.66796875  22.0424107142857 35.7142857142857  25 35.7142857142857  C 27.9575892857143 35.7142857142857  30.4827008928571 34.66796875  32.5753348214286 32.5753348214286  C 34.66796875 30.4827008928571  35.7142857142857 27.9575892857143  35.7142857142857 25  C 35.7142857142857 22.0424107142857  34.66796875 19.5172991071429  32.5753348214286 17.4246651785714  C 30.4827008928571 15.33203125  27.9575892857143 14.2857142857143  25 14.2857142857143  C 22.0424107142857 14.2857142857143  19.5172991071429 15.33203125  17.4246651785714 17.4246651785714  C 15.33203125 19.5172991071429  14.2857142857143 22.0424107142857  14.2857142857143 25  C 14.2857142857143 27.9575892857143  15.33203125 30.4827008928571  17.4246651785714 32.5753348214286  Z M 39.2857142857143 25  C 39.2857142857143 26.5811011904762  39.0252976190476 28.1343005952381  38.5044642857143 29.6595982142857  L 43.9174107142857 35.0725446428571  C 45.5915178571429 31.8917410714286  46.4285714285714 28.5342261904762  46.4285714285714 25  C 46.4285714285714 21.4657738095238  45.5915178571429 18.1082589285714  43.9174107142857 14.9274553571429  L 38.5044642857143 20.3404017857143  C 39.0252976190476 21.8656994047619  39.2857142857143 23.4188988095238  39.2857142857143 25  Z " fill-rule="nonzero" fill="#000000" stroke="none" transform="matrix(1 0 0 1 441 285 )" />
  </g>
</svg>