<?xml version="1.0" encoding="utf-8"?>
<svg version="1.1" xmlns:xlink="http://www.w3.org/1999/xlink" width="12px" height="12px" viewBox="444 519.5  12 12" xmlns="http://www.w3.org/2000/svg">
  <path d="M 450 519.5  C 453.36 519.5  456 522.14  456 525.5  C 456 528.86  453.36 531.5  450 531.5  C 446.64 531.5  444 528.86  444 525.5  C 444 522.14  446.64 519.5  450 519.5  Z " fill-rule="nonzero" fill="#ffffff" stroke="none" />
  <path d="M 450 520  C 453.08 520  455.5 522.42  455.5 525.5  C 455.5 528.58  453.08 531  450 531  C 446.92 531  444.5 528.58  444.5 525.5  C 444.5 522.42  446.92 520  450 520  Z " stroke-width="1" stroke="#797979" fill="none" />
  <path d="M 450 528.5  C 448.32 528.5  447 527.18  447 525.5  C 447 523.82  448.32 522.5  450 522.5  C 451.68 522.5  453 523.82  453 525.5  C 453 527.18  451.68 528.5  450 528.5  " fill-rule="nonzero" fill="#797979" stroke="none" />
</svg>