<?xml version="1.0" encoding="utf-8"?>
<svg version="1.1" xmlns:xlink="http://www.w3.org/1999/xlink" width="12px" height="12px" viewBox="386 519.5  12 12" xmlns="http://www.w3.org/2000/svg">
  <path d="M 392 519.5  C 395.36 519.5  398 522.14  398 525.5  C 398 528.86  395.36 531.5  392 531.5  C 388.64 531.5  386 528.86  386 525.5  C 386 522.14  388.64 519.5  392 519.5  Z " fill-rule="nonzero" fill="#ffffff" stroke="none" />
  <path d="M 392 520  C 395.08 520  397.5 522.42  397.5 525.5  C 397.5 528.58  395.08 531  392 531  C 388.92 531  386.5 528.58  386.5 525.5  C 386.5 522.42  388.92 520  392 520  Z " stroke-width="1" stroke="#797979" fill="none" />
  <path d="M 392 528.5  C 390.32 528.5  389 527.18  389 525.5  C 389 523.82  390.32 522.5  392 522.5  C 393.68 522.5  395 523.82  395 525.5  C 395 527.18  393.68 528.5  392 528.5  " fill-rule="nonzero" fill="#797979" stroke="none" />
</svg>