<?xml version="1.0" encoding="utf-8"?>
<svg version="1.1" xmlns:xlink="http://www.w3.org/1999/xlink" width="12px" height="12px" viewBox="329 587.5  12 12" xmlns="http://www.w3.org/2000/svg">
  <path d="M 335 587.5  C 338.36 587.5  341 590.14  341 593.5  C 341 596.86  338.36 599.5  335 599.5  C 331.64 599.5  329 596.86  329 593.5  C 329 590.14  331.64 587.5  335 587.5  Z " fill-rule="nonzero" fill="#ffffff" stroke="none" />
  <path d="M 335 588  C 338.08 588  340.5 590.42  340.5 593.5  C 340.5 596.58  338.08 599  335 599  C 331.92 599  329.5 596.58  329.5 593.5  C 329.5 590.42  331.92 588  335 588  Z " stroke-width="1" stroke="#797979" fill="none" />
  <path d="M 335 596.5  C 333.32 596.5  332 595.18  332 593.5  C 332 591.82  333.32 590.5  335 590.5  C 336.68 590.5  338 591.82  338 593.5  C 338 595.18  336.68 596.5  335 596.5  " fill-rule="nonzero" fill="#797979" stroke="none" />
</svg>