<?xml version="1.0" encoding="utf-8"?>
<svg version="1.1" xmlns:xlink="http://www.w3.org/1999/xlink" width="12px" height="12px" viewBox="241 21.5  12 12" xmlns="http://www.w3.org/2000/svg">
  <path d="M 247 21.5  C 250.36 21.5  253 24.14  253 27.5  C 253 30.86  250.36 33.5  247 33.5  C 243.64 33.5  241 30.86  241 27.5  C 241 24.14  243.64 21.5  247 21.5  Z " fill-rule="nonzero" fill="#ffffff" stroke="none" />
  <path d="M 247 22  C 250.08 22  252.5 24.42  252.5 27.5  C 252.5 30.58  250.08 33  247 33  C 243.92 33  241.5 30.58  241.5 27.5  C 241.5 24.42  243.92 22  247 22  Z " stroke-width="1" stroke="#797979" fill="none" />
  <path d="M 247 30.5  C 245.32 30.5  244 29.18  244 27.5  C 244 25.82  245.32 24.5  247 24.5  C 248.68 24.5  250 25.82  250 27.5  C 250 29.18  248.68 30.5  247 30.5  " fill-rule="nonzero" fill="#797979" stroke="none" />
</svg>