<?xml version="1.0" encoding="utf-8"?>
<svg version="1.1" xmlns:xlink="http://www.w3.org/1999/xlink" width="12px" height="12px" viewBox="387 587.5  12 12" xmlns="http://www.w3.org/2000/svg">
  <path d="M 393 587.5  C 396.36 587.5  399 590.14  399 593.5  C 399 596.86  396.36 599.5  393 599.5  C 389.64 599.5  387 596.86  387 593.5  C 387 590.14  389.64 587.5  393 587.5  Z " fill-rule="nonzero" fill="#ffffff" stroke="none" />
  <path d="M 393 588  C 396.08 588  398.5 590.42  398.5 593.5  C 398.5 596.58  396.08 599  393 599  C 389.92 599  387.5 596.58  387.5 593.5  C 387.5 590.42  389.92 588  393 588  Z " stroke-width="1" stroke="#797979" fill="none" />
  <path d="M 393 596.5  C 391.32 596.5  390 595.18  390 593.5  C 390 591.82  391.32 590.5  393 590.5  C 394.68 590.5  396 591.82  396 593.5  C 396 595.18  394.68 596.5  393 596.5  " fill-rule="nonzero" fill="#797979" stroke="none" />
</svg>