<?xml version="1.0" encoding="utf-8"?>
<svg version="1.1" xmlns:xlink="http://www.w3.org/1999/xlink" width="12px" height="12px" viewBox="370 551.5  12 12" xmlns="http://www.w3.org/2000/svg">
  <path d="M 376 551.5  C 379.36 551.5  382 554.14  382 557.5  C 382 560.86  379.36 563.5  376 563.5  C 372.64 563.5  370 560.86  370 557.5  C 370 554.14  372.64 551.5  376 551.5  Z " fill-rule="nonzero" fill="#ffffff" stroke="none" />
  <path d="M 376 552  C 379.08 552  381.5 554.42  381.5 557.5  C 381.5 560.58  379.08 563  376 563  C 372.92 563  370.5 560.58  370.5 557.5  C 370.5 554.42  372.92 552  376 552  Z " stroke-width="1" stroke="#797979" fill="none" />
  <path d="M 376 560.5  C 374.32 560.5  373 559.18  373 557.5  C 373 555.82  374.32 554.5  376 554.5  C 377.68 554.5  379 555.82  379 557.5  C 379 559.18  377.68 560.5  376 560.5  " fill-rule="nonzero" fill="#797979" stroke="none" />
</svg>