<?xml version="1.0" encoding="utf-8"?>
<svg version="1.1" xmlns:xlink="http://www.w3.org/1999/xlink" width="12px" height="12px" viewBox="183 21.5  12 12" xmlns="http://www.w3.org/2000/svg">
  <path d="M 189 21.5  C 192.36 21.5  195 24.14  195 27.5  C 195 30.86  192.36 33.5  189 33.5  C 185.64 33.5  183 30.86  183 27.5  C 183 24.14  185.64 21.5  189 21.5  Z " fill-rule="nonzero" fill="#ffffff" stroke="none" />
  <path d="M 189 22  C 192.08 22  194.5 24.42  194.5 27.5  C 194.5 30.58  192.08 33  189 33  C 185.92 33  183.5 30.58  183.5 27.5  C 183.5 24.42  185.92 22  189 22  Z " stroke-width="1" stroke="#797979" fill="none" />
  <path d="M 189 30.5  C 187.32 30.5  186 29.18  186 27.5  C 186 25.82  187.32 24.5  189 24.5  C 190.68 24.5  192 25.82  192 27.5  C 192 29.18  190.68 30.5  189 30.5  " fill-rule="nonzero" fill="#797979" stroke="none" />
</svg>