<?xml version="1.0" encoding="utf-8"?>
<svg version="1.1" xmlns:xlink="http://www.w3.org/1999/xlink" width="12px" height="12px" viewBox="191 161.5  12 12" xmlns="http://www.w3.org/2000/svg">
  <path d="M 197 161.5  C 200.36 161.5  203 164.14  203 167.5  C 203 170.86  200.36 173.5  197 173.5  C 193.64 173.5  191 170.86  191 167.5  C 191 164.14  193.64 161.5  197 161.5  Z " fill-rule="nonzero" fill="#ffffff" stroke="none" />
  <path d="M 197 162  C 200.08 162  202.5 164.42  202.5 167.5  C 202.5 170.58  200.08 173  197 173  C 193.92 173  191.5 170.58  191.5 167.5  C 191.5 164.42  193.92 162  197 162  Z " stroke-width="1" stroke="#797979" fill="none" />
  <path d="M 197 170.5  C 195.32 170.5  194 169.18  194 167.5  C 194 165.82  195.32 164.5  197 164.5  C 198.68 164.5  200 165.82  200 167.5  C 200 169.18  198.68 170.5  197 170.5  " fill-rule="nonzero" fill="#797979" stroke="none" />
</svg>