<?xml version="1.0" encoding="utf-8"?>
<svg version="1.1" xmlns:xlink="http://www.w3.org/1999/xlink" width="12px" height="12px" viewBox="271 519.5  12 12" xmlns="http://www.w3.org/2000/svg">
  <path d="M 277 519.5  C 280.36 519.5  283 522.14  283 525.5  C 283 528.86  280.36 531.5  277 531.5  C 273.64 531.5  271 528.86  271 525.5  C 271 522.14  273.64 519.5  277 519.5  Z " fill-rule="nonzero" fill="#ffffff" stroke="none" />
  <path d="M 277 520  C 280.08 520  282.5 522.42  282.5 525.5  C 282.5 528.58  280.08 531  277 531  C 273.92 531  271.5 528.58  271.5 525.5  C 271.5 522.42  273.92 520  277 520  Z " stroke-width="1" stroke="#797979" fill="none" />
  <path d="M 277 528.5  C 275.32 528.5  274 527.18  274 525.5  C 274 523.82  275.32 522.5  277 522.5  C 278.68 522.5  280 523.82  280 525.5  C 280 527.18  278.68 528.5  277 528.5  " fill-rule="nonzero" fill="#797979" stroke="none" />
</svg>